<?xml version="1.0" encoding="UTF-8"?>
<svg version="1.1" xmlns="http://www.w3.org/2000/svg" width="1536" height="1024">
<path d="M0 0 C506.88 0 1013.76 0 1536 0 C1536 337.92 1536 675.84 1536 1024 C1029.12 1024 522.24 1024 0 1024 C0 686.08 0 348.16 0 0 Z " fill="#175097" transform="translate(0,0)"/>
<path d="M0 0 C1.98148964 -0.00346579 3.96297735 -0.00823648 5.94446111 -0.01418173 C11.33398172 -0.02659442 16.72334101 -0.0205662 22.11286187 -0.01122308 C27.94655412 -0.00439283 33.78021998 -0.01493328 39.61390686 -0.02316284 C51.0190968 -0.03645918 62.42422731 -0.03364106 73.82941952 -0.02492492 C83.10134454 -0.01813392 92.37325296 -0.01723776 101.64517975 -0.02049637 C102.63604552 -0.0208401 102.63604552 -0.0208401 103.64692879 -0.02119078 C106.32889296 -0.0221249 109.01085713 -0.02308011 111.69282128 -0.02407007 C136.80829943 -0.03322995 161.92374527 -0.02495315 187.03921843 -0.00877938 C209.3237093 0.00546218 231.60814873 0.00417602 253.89263916 -0.01016235 C278.97044483 -0.02624436 304.04822201 -0.03258674 329.12603211 -0.02332556 C331.80165497 -0.0223635 334.47727783 -0.02142498 337.1529007 -0.02049637 C338.46919407 -0.02003354 339.78548744 -0.01957072 341.14166848 -0.01909386 C350.40023629 -0.01650778 359.6587858 -0.0208666 368.91735077 -0.02793503 C380.20324667 -0.03636231 391.48908001 -0.03404377 402.77496877 -0.0180928 C408.52875121 -0.01022763 414.28242943 -0.00708866 420.03621101 -0.01704025 C425.31001584 -0.02602357 430.58362052 -0.02099464 435.85740736 -0.0051076 C437.75816846 -0.00177523 439.6589467 -0.00341876 441.55969664 -0.01073496 C467.88109993 -0.10422437 491.84288323 6.30369732 511.63140869 24.38095093 C512.41000244 25.07833374 513.18859619 25.77571655 513.99078369 26.49423218 C528.75450262 40.41794641 536.53174946 57.85246664 540.63140869 77.38095093 C540.80813079 78.1466978 540.98485289 78.91244467 541.1669302 79.70139599 C541.69509812 82.74837229 541.77162972 85.62179338 541.78962708 88.71476746 C541.79941589 89.99217804 541.80920471 91.26958862 541.81929016 92.58570862 C541.82519358 93.99377404 541.83100408 95.40183985 541.83673096 96.80990601 C541.8463151 98.29831206 541.8563255 99.78671542 541.86672974 101.27511597 C541.89372672 105.30979793 541.91476442 109.34449152 541.93473172 113.37921357 C541.95662344 117.59796908 541.98399653 121.81668893 542.01078796 126.03541565 C542.0606718 134.02153024 542.1056266 142.00766466 542.14881033 149.99381799 C542.19821955 159.08689207 542.25312401 168.17993038 542.30848992 177.27296984 C542.4222438 195.97559697 542.52909717 214.67825788 542.63140869 233.38095093 C543.49355736 233.03216385 543.49355736 233.03216385 544.37312317 232.67633057 C547.00126033 231.61462237 549.6307699 230.55635464 552.26031494 229.49813843 C553.16447144 229.13228638 554.06862793 228.76643433 555.00018311 228.38949585 C570.38431826 222.20777495 585.30314398 219.99770442 601.88140869 220.06845093 C602.56083527 220.07027374 603.24026184 220.07209656 603.9402771 220.07397461 C614.47760908 220.12148119 624.41046605 220.69066053 634.63140869 223.38095093 C635.28528564 223.55255737 635.9391626 223.72416382 636.612854 223.90097046 C656.83131649 229.35264745 675.77152811 238.62330284 691.63140869 252.38095093 C692.46156494 253.07833374 693.29172119 253.77571655 694.14703369 254.49423218 C718.40609372 275.4418561 733.69681461 306.76128974 737.63140869 338.38095093 C737.89545155 343.01025643 737.91843963 347.62012012 737.88140869 352.25595093 C737.87391602 353.49465942 737.86642334 354.73336792 737.85870361 356.00961304 C737.76059581 364.32356449 737.45963405 372.24486949 735.63140869 380.38095093 C735.48074951 381.07349976 735.33009033 381.76604858 735.17486572 382.47958374 C729.65916337 407.26580429 718.84451495 428.713482 701.63140869 447.38095093 C700.81929932 448.26395874 700.00718994 449.14696655 699.17047119 450.05673218 C680.42970486 469.55562012 655.99678395 481.97274829 629.63140869 487.38095093 C628.83581543 487.55827759 628.04022217 487.73560425 627.22052002 487.91830444 C619.49044058 489.51520511 611.94593995 489.7284822 604.06890869 489.69345093 C603.40911011 489.69129578 602.74931152 489.68914062 602.06951904 489.68692017 C591.34743107 489.63084976 581.03545209 489.08078154 570.63140869 486.38095093 C569.92226318 486.19822632 569.21311768 486.01550171 568.48248291 485.82723999 C550.16021386 480.87131645 532.99670702 471.75162859 518.63140869 459.38095093 C517.2991626 458.25559937 517.2991626 458.25559937 515.94000244 457.10751343 C498.53368226 441.96002869 482.48911249 420.11233881 476.63140869 397.38095093 C476.63140869 396.39095093 476.63140869 395.40095093 476.63140869 394.38095093 C475.73422119 394.63489624 474.83703369 394.88884155 473.91265869 395.15048218 C472.04093994 395.66675171 472.04093994 395.66675171 470.13140869 396.19345093 C468.92484619 396.52989624 467.71828369 396.86634155 466.47515869 397.21298218 C464.86281883 397.6114942 463.24784876 397.99941039 461.63140869 398.38095093 C460.04380737 398.76911987 460.04380737 398.76911987 458.4241333 399.16513062 C445.748478 401.92650907 433.12167454 401.90420942 420.19390869 402.00595093 C416.81646825 402.04248198 413.43914286 402.0829524 410.06181335 402.12860107 C407.97632193 402.15578985 405.89074485 402.17715751 403.80513 402.19213867 C402.41118263 402.20753189 402.41118263 402.20753189 400.98907471 402.22323608 C399.75907494 402.23297958 399.75907494 402.23297958 398.50422668 402.24291992 C396.61765637 402.17696337 396.61765637 402.17696337 395.63140869 403.38095093 C395.52224868 406.00141868 395.47718179 408.59649893 395.47369385 411.21786499 C395.46861313 412.03903305 395.46353241 412.86020111 395.45829773 413.70625305 C395.44756936 415.49599376 395.43895893 417.2857481 395.4321785 419.07550812 C395.42042275 421.90824978 395.40097752 424.74083667 395.37905884 427.57351685 C395.31733888 435.62988126 395.26341893 443.68623184 395.2300415 451.74276733 C395.20909516 456.66533496 395.17378755 461.58762412 395.12928391 466.51003265 C395.11511821 468.38705923 395.10640018 470.26413511 395.10322952 472.14121246 C395.09832055 474.76992395 395.07516176 477.39789725 395.0479126 480.02645874 C395.05091873 480.80172409 395.05392487 481.57698944 395.05702209 482.37574768 C394.98748292 486.89320575 394.38356893 489.76807771 391.63140869 493.38095093 C388.73355803 496.12849813 386.7269129 496.81226634 382.75640869 496.81845093 C381.52277588 496.84745483 381.52277588 496.84745483 380.26422119 496.87704468 C373.89062029 495.67608427 369.34362665 490.35482138 364.98297119 485.89266968 C364.36674896 485.27124588 363.75052673 484.64982208 363.1156311 484.00956726 C361.15769492 482.03393356 359.20660138 480.05172638 357.25640869 478.06845093 C355.31252987 476.09674017 353.36712697 474.12659689 351.41860962 472.1594696 C350.21131351 470.94014557 349.00669378 469.71816283 347.8053894 468.49293518 C344.89523861 465.54888343 341.93047601 462.73772328 338.79107666 460.03842163 C334.01681523 455.91167598 329.60074907 451.45713992 325.16265869 446.97470093 C324.28291382 446.09116943 323.40316895 445.20763794 322.49676514 444.29733276 C319.23483924 441.02122773 315.97748305 437.74060113 312.72045898 434.45962524 C309.51653609 431.23264555 306.30871753 428.00957013 303.10015869 424.78720093 C301.85450134 423.52909607 301.85450134 423.52909607 300.5836792 422.24557495 C286.11137441 407.25437786 286.11137441 407.25437786 266.68006575 402.0966152 C265.779279 402.09854993 264.87849225 402.10048466 263.95040894 402.10247803 C262.98156403 402.09668563 262.01271912 402.09089322 261.01451528 402.08492529 C257.77170763 402.0679351 254.52904239 402.0650496 251.28619385 402.06210327 C248.9602117 402.05280443 246.6342329 402.04263583 244.30825806 402.03166199 C237.99477221 402.00434302 231.68130869 401.98920688 225.36777925 401.97623396 C219.43789686 401.96219454 213.50805587 401.93905879 207.57820289 401.91596361 C195.835052 401.87052324 184.0918909 401.83389706 172.34869385 401.80282593 C160.94307663 401.77262909 149.53748441 401.73827362 138.13189697 401.69833374 C137.42854236 401.69587219 136.72518774 401.69341064 136.00051935 401.6908745 C132.4719021 401.67849968 128.94328514 401.66604319 125.41466832 401.65354609 C96.15361778 401.55001957 66.89253282 401.46094977 37.63140869 401.38095093 C37.64140144 403.25777557 37.64140144 403.25777557 37.65159607 405.17251587 C37.71257836 417.00053085 37.75746333 428.82851366 37.78684521 440.65665054 C37.80245883 446.73669266 37.82361826 452.81660721 37.85772705 458.89657593 C37.89047421 464.77101637 37.90829403 470.64533459 37.91604042 476.51985931 C37.92155644 478.75399447 37.93232746 480.98812341 37.94859886 483.22220612 C38.08814608 503.18769419 36.55351743 519.96945784 21.97515869 535.13095093 C12.45267259 544.27253759 1.56078533 550.49778609 -11.88345337 550.51225281 C-12.53600605 550.51436852 -13.18855873 550.51648424 -13.86088574 550.51866406 C-16.04560009 550.5246514 -18.23025647 550.52366482 -20.41497803 550.52279663 C-21.98216856 550.52582894 -23.54935821 550.5293506 -25.11654663 550.5333252 C-28.49085462 550.54120862 -31.86515206 550.54635699 -35.23946762 550.54961586 C-40.57625305 550.55552968 -45.91297193 550.57207321 -51.24972534 550.59095764 C-53.07729145 550.59729483 -54.9048576 550.60362046 -56.73242378 550.60993481 C-57.64760662 550.61310062 -58.56278946 550.61626643 -59.50570512 550.61952817 C-71.92922707 550.66159754 -84.3527177 550.69458578 -96.77630615 550.70687866 C-105.15810963 550.71525746 -113.53974798 550.73773999 -121.92146885 550.77623433 C-126.35608735 550.79599837 -130.790459 550.80839837 -135.22512436 550.80340004 C-139.39656632 550.79875549 -143.56754019 550.81254811 -147.73888779 550.84041214 C-149.26828474 550.84732674 -150.79773008 550.84744754 -152.32712555 550.84021187 C-154.41855998 550.83131769 -156.50845253 550.84702285 -158.59976196 550.86869812 C-159.76893095 550.87108647 -160.93809994 550.87347483 -162.14269829 550.87593555 C-167.79604301 551.76096986 -171.58277328 555.34369403 -175.51873779 559.28817749 C-176.27650009 560.04286316 -177.03426239 560.79754883 -177.81498718 561.57510376 C-178.61513748 562.38243958 -179.41528778 563.18977539 -180.23968506 564.02157593 C-181.08023941 564.8625885 -181.92079376 565.70360107 -182.78681946 566.57009888 C-184.56002276 568.34631582 -186.33080247 570.12495513 -188.0993042 571.90585327 C-190.78819104 574.61292957 -193.48492606 577.31198501 -196.18304443 580.00985718 C-197.91072908 581.74246046 -199.63795755 583.47551876 -201.36468506 585.20907593 C-202.16281113 586.00831482 -202.96093719 586.80755371 -203.7832489 587.63101196 C-207.96880794 591.85166463 -212.00665495 596.14474242 -215.87312317 600.66043091 C-219.41784056 604.73859016 -222.27965337 607.64809604 -227.93109131 608.06845093 C-231.41761124 608.18653271 -232.32006546 607.42470815 -234.96478271 605.03988647 C-238.55483442 600.55667995 -238.09645668 595.59039686 -238.07562256 590.07626343 C-238.09074387 588.99714691 -238.10586517 587.9180304 -238.1214447 586.80621338 C-238.16430023 583.37257963 -238.17315811 579.93982541 -238.18109131 576.50595093 C-238.20423712 574.17259425 -238.22960262 571.83925846 -238.25726318 569.50595093 C-238.32009434 563.79760923 -238.35504553 558.08961093 -238.36859131 552.38095093 C-241.12746114 551.00151601 -243.40062442 551.23579648 -246.48577881 551.20516968 C-247.73359131 551.18132202 -248.98140381 551.15747437 -250.26702881 551.13290405 C-252.87885186 551.09057097 -255.49087547 551.05898268 -258.10296631 551.03915405 C-268.4895108 550.81082 -278.32867836 549.34552926 -286.80609131 542.88095093 C-287.56792725 542.31376343 -288.32976318 541.74657593 -289.11468506 541.16220093 C-289.85847412 540.57438843 -290.60226318 539.98657593 -291.36859131 539.38095093 C-292.20519287 538.75059937 -293.04179443 538.1202478 -293.90374756 537.47079468 C-303.66244897 529.19677684 -308.93476479 516.88291619 -310.36859131 504.38095093 C-310.51954195 500.88007513 -310.53582298 497.3823091 -310.54559326 493.87850952 C-310.55216446 492.84498352 -310.55873566 491.81145752 -310.56550598 490.74661255 C-310.58514618 487.34087031 -310.59688123 483.93517199 -310.60687256 480.52938843 C-310.61094809 479.36051716 -310.61502361 478.19164589 -310.61922264 476.98735428 C-310.6400444 470.79970733 -310.65436264 464.6120823 -310.66375732 458.42440796 C-310.67481023 452.0595565 -310.709209 445.69505571 -310.74892902 439.33032799 C-310.77517002 434.41269312 -310.78345584 429.49514088 -310.7870388 424.57744217 C-310.79188578 422.23248554 -310.80344528 419.88753212 -310.8220768 417.5426445 C-310.96660543 398.14670834 -309.4473782 381.16272356 -295.11859131 366.56845093 C-284.10847397 356.11033134 -272.26913875 351.30015081 -257.11727905 351.22273254 C-256.05603272 351.21532558 -256.05603272 351.21532558 -254.97334707 351.20776898 C-252.61502577 351.19247476 -250.25673153 351.1840554 -247.89837646 351.17562866 C-246.20292933 351.16604378 -244.50748455 351.15603334 -242.81204224 351.14562988 C-238.21751787 351.11864088 -233.6229833 351.09759887 -229.02842379 351.0776279 C-224.22377452 351.05573123 -219.4191565 351.02836057 -214.61453247 351.00157166 C-205.519929 350.95169449 -196.42530814 350.90673722 -187.33067071 350.86354929 C-176.97520615 350.81413435 -166.61977295 350.75923202 -156.26433873 350.7038697 C-134.96578549 350.59012606 -113.66720229 350.48327047 -92.36859131 350.38095093 C-92.8463501 349.45081177 -93.32410889 348.52067261 -93.81634521 347.56234741 C-94.45118626 346.31320085 -95.08577568 345.06392639 -95.72015381 343.81454468 C-96.03412109 343.20493896 -96.34808838 342.59533325 -96.67156982 341.96725464 C-102.40282827 330.63584497 -104.52132054 319.27097315 -104.5090332 306.67390442 C-104.51200433 305.71408301 -104.51497545 304.7542616 -104.5180366 303.76535469 C-104.5266882 300.55835376 -104.52822886 297.35139032 -104.52972412 294.14437866 C-104.53435485 291.84096701 -104.53937985 289.53755612 -104.54476929 287.23414612 C-104.55787185 280.98175419 -104.56433421 274.72937299 -104.56877995 268.47696948 C-104.57171448 264.56697684 -104.57582004 260.6569871 -104.58028412 256.74699593 C-104.59238916 245.90455324 -104.60277216 235.06211378 -104.60615921 224.21966457 C-104.60648856 223.18003176 -104.60648856 223.18003176 -104.60682456 222.11939627 C-104.60704284 221.42472168 -104.60726112 220.73004708 -104.60748601 220.01432174 C-104.60792946 218.6068277 -104.60837603 217.19933365 -104.60882568 215.7918396 C-104.60915783 214.74460826 -104.60915783 214.74460826 -104.60949668 213.67622072 C-104.61344055 202.37613903 -104.63088396 191.07612197 -104.65418521 179.77606522 C-104.67795853 168.15246479 -104.69010635 156.52889991 -104.69152713 144.90527493 C-104.69257294 138.38796288 -104.69843309 131.87074206 -104.71634674 125.35345268 C-104.73288314 119.21796866 -104.73495588 113.08264389 -104.72620773 106.94714546 C-104.72544031 104.7034983 -104.72974094 102.45984238 -104.73966599 100.21621704 C-104.78826959 88.53796307 -104.61996353 77.68697022 -101.36859131 66.38095093 C-101.15131001 65.61365882 -100.9340287 64.84636671 -100.71016312 64.05582333 C-93.55297384 40.79142974 -76.62142056 21.65812409 -55.44281006 9.94345093 C-37.81049893 0.98166636 -19.43892726 -0.07520859 0 0 Z " fill="#F0F4F7" transform="translate(550.3685913085938,229.61904907226563)"/>
<path d="M0 0 C0.33 0 0.66 0 1 0 C1.33 44.55 1.66 89.1 2 135 C8.6 132.36 15.2 129.72 22 127 C34.94879765 122.91090601 47.69793372 121.62966757 61.25 121.6875 C62.26913986 121.69023422 62.26913986 121.69023422 63.30886841 121.69302368 C73.84620039 121.74053027 83.77905736 122.3097096 94 125 C94.65387695 125.17160645 95.30775391 125.34321289 95.98144531 125.52001953 C116.1999078 130.97169652 135.14011942 140.24235191 151 154 C151.83015625 154.69738281 152.6603125 155.39476562 153.515625 156.11328125 C177.77468503 177.06090517 193.06540592 208.38033881 197 240 C197.26404286 244.6293055 197.28703094 249.2391692 197.25 253.875 C197.24250732 255.1137085 197.23501465 256.35241699 197.22729492 257.62866211 C197.12918712 265.94261357 196.82822536 273.86391856 195 282 C194.84934082 282.69254883 194.69868164 283.38509766 194.54345703 284.09863281 C189.02775468 308.88485336 178.21310625 330.33253107 161 349 C160.18789062 349.88300781 159.37578125 350.76601563 158.5390625 351.67578125 C139.79829617 371.1746692 115.36537526 383.59179736 89 389 C88.20440674 389.17732666 87.40881348 389.35465332 86.58911133 389.53735352 C78.85903189 391.13425418 71.31453126 391.34753127 63.4375 391.3125 C62.77770142 391.31034485 62.11790283 391.3081897 61.43811035 391.30596924 C50.71602238 391.24989883 40.40404339 390.69983062 30 388 C28.93628174 387.72591309 28.93628174 387.72591309 27.85107422 387.44628906 C9.52880516 382.49036552 -7.63470167 373.37067766 -22 361 C-22.88816406 360.24976563 -23.77632812 359.49953125 -24.69140625 358.7265625 C-45.10518737 340.96189801 -58.64265558 317.88412881 -66 292 C-66.32742188 290.85273437 -66.65484375 289.70546875 -66.9921875 288.5234375 C-76.05846426 254.4169678 -68.46934842 217.25186616 -51.3671875 187 C-42.49272958 171.82685863 -30.81807113 158.29752887 -17.0625 147.375 C-16.48910889 146.91915527 -15.91571777 146.46331055 -15.32495117 145.99365234 C-10.56271041 142.28482597 -10.56271041 142.28482597 -7.9336853 140.95409775 C-3.75893832 138.87548313 -3.75893832 138.87548313 -1.26115417 135.13388824 C-0.97548927 132.81715112 -0.94753827 130.61604507 -1.00390625 128.28222656 C-0.99323624 127.409603 -0.98256622 126.53697945 -0.97157288 125.63791275 C-0.94489267 122.757552 -0.97321564 119.880314 -1 117 C-0.98700557 115.01848291 -0.96985578 113.03698908 -0.94873047 111.05554199 C-0.90138882 105.68449079 -0.90498241 100.31475268 -0.92483521 94.94356537 C-0.93782927 91.39443873 -0.94417061 87.84535028 -0.94897461 84.29620361 C-0.96027525 76.78078491 -0.97955844 69.26539866 -1 61.75 C-1.02368304 52.98936441 -1.04400582 44.22874635 -1.05593872 35.46808624 C-1.06238737 31.98274811 -1.0748844 28.49746588 -1.08764648 25.012146 C-1.09127913 22.87365771 -1.09463085 20.73516892 -1.09765625 18.59667969 C-1.10282257 17.63763229 -1.10798889 16.6785849 -1.11331177 15.69047546 C-1.11372927 10.36480143 -0.77980547 5.26985442 0 0 Z " fill="#F3F7FA" transform="translate(1091,328)"/>
<path d="M0 0 C1.40435692 -0.00504986 2.80870739 -0.01228208 4.21304315 -0.02149814 C8.05820727 -0.04038515 11.9027333 -0.02820724 15.74788105 -0.01077521 C19.89995781 0.00261481 24.0519422 -0.01284408 28.20401001 -0.02459717 C36.33211302 -0.04296547 44.45997545 -0.0344671 52.58807094 -0.01650894 C59.19395906 -0.00247788 65.79978192 0.00140877 72.40568352 -0.00195122 C73.81646028 -0.00266738 73.81646028 -0.00266738 75.25573758 -0.00339801 C77.16642521 -0.00442435 79.07711282 -0.00547971 80.98780041 -0.00656378 C97.87858803 -0.01512908 114.76925955 0.00153917 131.66001892 0.03126526 C148.04841487 0.06010682 164.43664361 0.06718381 180.82505798 0.05177307 C198.67436154 0.03501157 216.52358574 0.03097584 234.37289137 0.04848343 C236.27620692 0.05032781 238.17952249 0.05216254 240.08283806 0.0539875 C241.48751697 0.05535564 241.48751697 0.05535564 242.92057322 0.05675141 C249.51877938 0.06235677 256.11694678 0.05904967 262.71515083 0.05244255 C270.75572576 0.04471068 278.7961361 0.05145681 286.83667786 0.07661759 C290.9388476 0.08911552 295.04076106 0.09525564 299.14294052 0.08407593 C302.89892036 0.07403298 306.65438919 0.08249383 310.41030686 0.10565711 C312.41093876 0.11325664 314.41161554 0.10126391 316.41222149 0.08855337 C324.26502451 0.16125184 329.01122167 0.86493647 334.95469666 6.23365784 C337.92535316 10.28455307 338.85384312 13.45509069 338.52891541 18.49147034 C337.74974003 23.22712512 335.76040801 26.31229708 332.23985291 29.44068909 C327.85673275 32.5714892 324.71301809 32.75315298 319.39480877 32.76241016 C317.61280607 32.76909693 317.61280607 32.76909693 315.79480332 32.77591878 C314.4883071 32.77573442 313.18181089 32.77555006 311.83572388 32.77536011 C310.43482734 32.77865986 309.03393176 32.78238566 307.63303739 32.78650159 C303.77905254 32.79651668 299.92508326 32.80023757 296.07108724 32.8028909 C291.91624056 32.80679529 287.7614062 32.8163734 283.60656738 32.82510376 C273.5717815 32.84486219 263.53699461 32.85493265 253.50219414 32.86383155 C248.77763918 32.86821462 244.05308534 32.87358131 239.32853127 32.87882042 C223.62569887 32.89583049 207.92286717 32.91032573 192.22002697 32.91756916 C188.14549954 32.91947907 184.07097211 32.9213994 179.9964447 32.9233551 C178.47737844 32.92408071 178.47737844 32.92408071 176.92762396 32.92482098 C160.51406169 32.93312535 144.1005722 32.95847011 127.68704172 32.99093578 C110.83952494 33.02398857 93.99204517 33.04201623 77.14449579 33.0452134 C67.68355661 33.04737992 58.22272363 33.05614958 48.76181602 33.08167458 C40.70653555 33.10335709 32.65138709 33.11144401 24.59608074 33.10170779 C20.48581669 33.09715624 16.37582515 33.09909881 12.2655983 33.11846924 C8.50209235 33.13605266 4.73905869 33.13514284 0.97554807 33.11957195 C-1.02927827 33.11606027 -3.03410928 33.13225796 -5.03886729 33.14917642 C-11.83337059 33.10042104 -16.37297729 32.84963442 -21.82264709 28.62818909 C-25.5584214 23.83873485 -26.49145749 20.04740358 -26.19764709 13.98756409 C-25.50497431 9.6294978 -23.56279676 7.16749448 -20.31445891 4.29407269 C-13.91180843 -0.35174048 -7.68310038 -0.07022856 0 0 Z " fill="#C1D6E3" transform="translate(574.8226470947266,369.37181091308594)"/>
<path d="M0 0 C1.16470558 -0.00623996 2.32941115 -0.01247993 3.52941084 -0.01890898 C6.75392594 -0.03208875 9.97783715 -0.02736544 13.20233703 -0.0149641 C16.68298389 -0.00590774 20.16354959 -0.01988621 23.6441803 -0.03088379 C30.45939976 -0.04866742 37.27444299 -0.04482978 44.08966935 -0.03323323 C49.62867753 -0.02419854 55.16763634 -0.02297505 60.70664978 -0.02732849 C61.49508246 -0.02794142 62.28351513 -0.02855436 63.09583971 -0.02918586 C64.69754113 -0.03046477 66.29924254 -0.03176162 67.90094393 -0.03307623 C82.91902774 -0.04448156 97.93701386 -0.03136907 112.95508164 -0.00987476 C125.84042398 0.0079962 138.72562218 0.00489208 151.61096191 -0.0135498 C166.57541353 -0.03495735 181.53977954 -0.04338293 196.50424433 -0.03110075 C198.10004328 -0.02982656 199.69584225 -0.02856907 201.29164124 -0.02732849 C202.46937708 -0.02640284 202.46937708 -0.02640284 203.67090556 -0.02545848 C209.20306419 -0.02200523 214.73516851 -0.02783339 220.26731873 -0.0372467 C227.00948399 -0.0484668 233.75146299 -0.04542655 240.49360693 -0.02412373 C243.93339882 -0.01361329 247.37288018 -0.009491 250.81266975 -0.02272034 C254.54152176 -0.03362053 258.26949527 -0.01997719 261.99829102 0 C263.08564151 -0.00892289 264.17299201 -0.01784577 265.29329252 -0.02703905 C271.34377312 0.03600953 274.90205401 0.44986582 279.49914551 4.50793457 C283.17937337 9.21175022 283.11737934 13.5394597 282.97961426 19.33215332 C282.37515455 23.32748453 281.1490994 25.36314148 278.39758301 28.23840332 C272.46488621 32.20574171 266.00698045 31.79516786 259.15687561 31.77536011 C257.43537691 31.78215678 257.43537691 31.78215678 255.67910045 31.78909075 C252.50228498 31.79954776 249.32561217 31.80106286 246.148785 31.798702 C242.71926024 31.7982933 239.28976906 31.80933796 235.86026001 31.81881714 C229.14502043 31.83541539 222.42981597 31.84092612 215.7145576 31.84204189 C210.25613591 31.84299276 204.79772581 31.84710495 199.33930779 31.85344315 C183.86036496 31.87105096 168.38144985 31.88028253 152.90249694 31.8787822 C151.65132553 31.87866233 151.65132553 31.87866233 150.37487793 31.87854004 C149.53974436 31.87845828 148.70461079 31.87837652 147.84417015 31.87829228 C134.30509311 31.87747911 120.76612725 31.89662572 107.22708238 31.92481677 C93.3220481 31.9535413 79.41706806 31.96735736 65.51200336 31.96562922 C57.70659401 31.96496525 49.90130128 31.97046058 42.09591866 31.99198532 C35.45151553 32.01019129 28.8072819 32.01454921 22.16286463 32.00096647 C18.77349201 31.99443413 15.38471019 31.99649989 11.99532509 32.01167297 C8.31939109 32.02706442 4.64431404 32.01785639 0.96839905 32.00241089 C-0.10047481 32.01269801 -1.16934868 32.02298514 -2.27061266 32.033584 C-8.5636093 31.97506404 -12.39222594 31.27461728 -17.50085449 27.50793457 C-21.23802405 22.71669155 -22.15953852 18.93119372 -21.88366699 12.87121582 C-21.10712663 8.07726769 -18.61001043 5.48136165 -15.0712204 2.37561798 C-10.46239046 -0.58216657 -5.29760909 -0.04347261 0 0 Z " fill="#C0D5E2" transform="translate(570.5008544921875,450.4920654296875)"/>
<path d="M0 0 C2.56536471 0.00096907 5.12769323 -0.04074218 7.69262695 -0.08496094 C28.19403959 -0.2324487 48.6505246 4.85223202 63.90087891 19.23071289 C71.76179481 27.09162879 76.14229291 35.83476664 76.33520508 47.00097656 C76.24790708 55.08000954 76.24790708 55.08000954 73.52270508 58.37597656 C69.9052233 61.30441419 68.25885061 61.62843968 63.68634033 61.65487671 C62.02922028 61.6677774 62.02922028 61.6677774 60.33862305 61.68093872 C59.12094238 61.68519867 57.90326172 61.68945862 56.64868164 61.69384766 C54.73149323 61.70611389 54.73149323 61.70611389 52.77557373 61.71862793 C48.52984732 61.74485348 44.28411102 61.76015733 40.03833008 61.77441406 C38.57673893 61.77977376 37.11514784 61.78515127 35.65355682 61.79054642 C29.57315551 61.81217705 23.49275687 61.83091322 17.41232681 61.84216881 C8.69905089 61.8584041 -0.01377881 61.89156893 -8.72688651 61.94856966 C-14.85350925 61.98728239 -20.98001271 62.00680311 -27.10675454 62.01208937 C-30.7657669 62.01574145 -34.42430339 62.02774596 -38.08318329 62.06019211 C-42.16762269 62.09589221 -46.25110467 62.0918986 -50.33569336 62.08447266 C-51.5452771 62.10087799 -52.75486084 62.11728333 -54.00109863 62.13418579 C-63.14128093 62.06605795 -63.14128093 62.06605795 -66.83770752 59.15200806 C-70.84445242 54.46152585 -70.43366913 49.85976769 -70.38745117 43.93066406 C-69.77553382 36.57089096 -66.53506022 30.32689667 -62.10229492 24.50097656 C-61.66788086 23.89898438 -61.2334668 23.29699219 -60.78588867 22.67675781 C-46.27544753 4.16594442 -22.09407572 -0.05852182 0 0 Z " fill="#164F98" transform="translate(1151.102294921875,608.4990234375)"/>
<path d="M0 0 C1.3744121 -0.00551503 1.3744121 -0.00551503 2.77659011 -0.01114148 C5.86577512 -0.02220864 8.95492652 -0.02602728 12.04412842 -0.02983093 C14.25140999 -0.03609328 16.4586905 -0.04273987 18.66596985 -0.04974365 C24.6763895 -0.06717434 30.68680119 -0.07771098 36.69723988 -0.08594918 C40.4498515 -0.09109478 44.20246063 -0.0971707 47.9550705 -0.10346031 C58.34352923 -0.12033283 68.73198637 -0.13496781 79.1204567 -0.14220905 C81.8168564 -0.14411897 84.51325609 -0.1460393 87.20965576 -0.147995 C88.21493095 -0.14872061 88.21493095 -0.14872061 89.24051473 -0.14946087 C100.09691814 -0.15776107 110.95321135 -0.18309726 121.80956665 -0.21557567 C132.95383689 -0.24864377 144.09806724 -0.2663248 155.24239039 -0.26985329 C161.50022148 -0.27220735 167.75787845 -0.28121409 174.01566315 -0.30631447 C179.90239775 -0.3295445 185.78884299 -0.33384873 191.6756115 -0.32355309 C193.83715462 -0.32305639 195.99871175 -0.3294161 198.16021156 -0.34310913 C201.10984233 -0.36075048 204.0584259 -0.35375982 207.00805664 -0.34057617 C207.86467872 -0.35154542 208.7213008 -0.36251466 209.60388112 -0.37381631 C214.95393106 -0.31603212 218.0302311 0.5665708 222.25799561 4.14717102 C225.23745383 8.61635835 224.74197589 12.90789234 224.25799561 18.14717102 C222.92801638 21.69378228 221.89678833 22.74545717 218.71250153 24.74794102 C214.34955017 26.51513221 210.76885322 26.56793714 206.11090088 26.53485107 C205.19937555 26.54023661 204.28785022 26.54562215 203.34870291 26.55117089 C200.29944894 26.56545931 197.25062853 26.55834451 194.20135498 26.55122375 C192.01318513 26.5569268 189.82501826 26.5638908 187.63685608 26.57202148 C181.69687245 26.58997387 175.75703638 26.58878071 169.81703377 26.5830791 C164.85905755 26.57999067 159.90110981 26.58607576 154.94313765 26.59211785 C142.57979736 26.60697121 130.21652937 26.60334374 117.85319036 26.59125454 C107.11989172 26.58131978 96.38676541 26.59426783 85.65349334 26.61818873 C74.62659403 26.64257852 63.59977892 26.65178829 52.57285357 26.64553601 C46.38440666 26.64216213 40.1961022 26.64461037 34.00767517 26.66178703 C28.1898036 26.67723036 22.37226173 26.67332942 16.55440331 26.65448189 C14.41866813 26.65078899 12.28290866 26.65392479 10.14719582 26.66436768 C7.23277847 26.67753082 4.31946013 26.66607129 1.40509033 26.64837646 C0.55897863 26.65798147 -0.28713307 26.66758648 -1.15888453 26.67748255 C-6.49130105 26.61081885 -9.4952549 25.65968298 -13.74200439 22.14717102 C-16.8463265 18.5254619 -17.37013516 15.08082988 -17.23809814 10.43623352 C-16.36608965 6.41263529 -13.78402034 3.79514345 -10.74200439 1.14717102 C-7.40872129 -0.51947053 -3.66547095 -0.00078075 0 0 Z " fill="#BBD1E0" transform="translate(309.74200439453125,637.8528289794922)"/>
<path d="M0 0 C8.78430355 6.2469456 14.6686403 15.33456691 17.75 25.70703125 C19.79710892 40.03679366 16.96134079 52.88372438 8.3125 64.64453125 C1.98085485 72.78099114 -8.33870979 79.27985562 -18.6875 80.64453125 C-31.82095162 81.63359366 -42.41956483 79.0627281 -52.6875 70.64453125 C-61.14982375 62.95999461 -67.14777863 52.28544375 -67.9609375 40.7734375 C-68.40911114 26.56773855 -65.67273699 15.29977332 -55.6875 4.64453125 C-40.95794569 -10.90333163 -17.25150873 -11.07870326 0 0 Z " fill="#1A57A1" transform="translate(1179.6875,513.35546875)"/>
<path d="M0 0 C0.79532816 -0.00523668 1.59065631 -0.01047336 2.41008532 -0.01586872 C5.08395697 -0.03091034 7.75763796 -0.03157478 10.43154907 -0.03224182 C12.34504013 -0.03986049 14.25852811 -0.04828748 16.17201233 -0.0574646 C21.37655574 -0.07944482 26.58104039 -0.08821318 31.78562498 -0.09329104 C35.03554326 -0.09693033 38.28544604 -0.10316813 41.53535843 -0.11029243 C52.868438 -0.13479875 64.20147171 -0.14784147 75.53457642 -0.15138245 C86.10640671 -0.15501908 96.67794691 -0.18492068 107.24968851 -0.22678703 C116.31982592 -0.2614503 125.38986702 -0.2769302 134.46007025 -0.27762848 C139.8800909 -0.27842262 145.29981618 -0.28722419 150.71976852 -0.31562614 C155.81701026 -0.34173897 160.91371034 -0.34404995 166.01098824 -0.3279705 C167.88269414 -0.32615062 169.75443071 -0.33289514 171.62607002 -0.34878922 C174.17998875 -0.36915646 176.73199559 -0.35875447 179.28588867 -0.34057617 C180.02801302 -0.35377614 180.77013737 -0.36697611 181.53475034 -0.38057607 C185.4374139 -0.31705036 187.12105258 0.15496721 190.20643044 2.62507534 C193.13880832 6.3896069 193.62592529 9.46231681 193.54727173 14.20774841 C193.07685136 17.71271143 191.60541438 19.69282758 189.26992798 22.27415466 C184.69285805 24.24586242 180.45435797 24.55940252 175.54095459 24.52812195 C174.78193183 24.53124193 174.02290907 24.53436191 173.24088562 24.53757644 C170.70768048 24.54552818 168.17471677 24.53924382 165.64151001 24.53294373 C163.82111471 24.53565489 162.0007205 24.53921652 160.18032837 24.54356384 C155.24226008 24.55267649 150.30427543 24.54914786 145.36620569 24.54280567 C140.19428948 24.53773834 135.02238037 24.54243931 129.85046387 24.545578 C121.1632865 24.54921615 112.47614315 24.54442317 103.78897095 24.53489685 C93.75403143 24.52401945 83.71917323 24.52753331 73.68423569 24.53854966 C65.06239792 24.54763499 56.4405846 24.54890151 47.81874359 24.54367232 C42.67208835 24.5405586 37.52547128 24.54012672 32.37881851 24.5467453 C27.53773965 24.552536 22.69676525 24.54849031 17.85569763 24.53695679 C16.08201648 24.53431913 14.30832649 24.53505998 12.5346489 24.53948212 C10.10727136 24.54497459 7.68022527 24.53805881 5.25286865 24.52812195 C4.20838725 24.53481411 4.20838725 24.53481411 3.14280522 24.54164147 C-1.81848706 24.50244433 -6.02312515 23.75186862 -10.73007202 22.27415466 C-13.72157445 19.13307711 -14.96827241 16.54476085 -15.23007202 12.27415466 C-15.01302661 8.07794337 -13.42332969 5.50606386 -10.73007202 2.27415466 C-7.0449991 -0.18256062 -4.26268347 -0.01378909 0 0 Z " fill="#21599B" transform="translate(165.73007202148438,157.72584533691406)"/>
<path d="M0 0 C1.04620764 -0.00679667 1.04620764 -0.00679667 2.11355078 -0.01373065 C4.45033048 -0.02638947 6.78687755 -0.02475335 9.12368774 -0.02310181 C10.79925334 -0.02908613 12.47481617 -0.03589145 14.15037537 -0.04345703 C18.70206382 -0.06113384 23.2536771 -0.06581311 27.80539656 -0.0670886 C31.60510669 -0.06898755 35.40479931 -0.07634502 39.2045027 -0.08343279 C48.16927263 -0.09972067 57.13400238 -0.10460138 66.0987854 -0.10317993 C75.34649307 -0.10197831 84.59396742 -0.12308333 93.84161603 -0.15466726 C101.78143868 -0.1808182 109.72118506 -0.19154773 117.66105044 -0.19026911 C122.40308813 -0.18975914 127.1449185 -0.19546183 131.8869133 -0.21662521 C136.34721128 -0.23598777 140.80710373 -0.23614575 145.267416 -0.22159195 C146.90326339 -0.21950029 148.53913603 -0.22422602 150.17494011 -0.23631287 C152.41080419 -0.25176188 154.64526933 -0.24246128 156.88110352 -0.22705078 C158.13139029 -0.22814032 159.38167706 -0.22922985 160.6698513 -0.2303524 C165.4649216 0.4721497 168.40394489 2.77019408 171.9425354 5.95492554 C173.74036623 9.65046669 173.60064955 13.24025242 173.0675354 17.26742554 C171.43613795 21.01963967 169.56497667 23.17763016 166.0675354 25.26742554 C162.89029884 25.64774227 162.89029884 25.64774227 159.05914307 25.65510559 C158.00068477 25.6631839 158.00068477 25.6631839 156.92084348 25.6714254 C154.5563147 25.68573311 152.19234353 25.67859456 149.82778931 25.67147827 C148.132518 25.67718044 146.43725053 25.68414411 144.74198914 25.692276 C140.13654289 25.710241 135.53128684 25.70903258 130.92581606 25.70333362 C127.08136411 25.70024611 123.23694892 25.70632944 119.39250219 25.71237236 C110.32223485 25.7264274 101.25206167 25.7248486 92.18179321 25.71347046 C82.82501168 25.70199225 73.46851687 25.71605768 64.11177313 25.74286693 C56.07852364 25.76502216 48.04536415 25.77166159 40.01208627 25.76579052 C35.21417082 25.76241883 30.41643911 25.76484989 25.61854935 25.78204155 C21.10570498 25.79750544 16.59328524 25.7935614 12.08045769 25.7747364 C10.42526646 25.77104875 8.77004381 25.77416416 7.11488152 25.78462219 C4.85273007 25.79782275 2.59198622 25.78629469 0.32989502 25.76863098 C-0.93514044 25.7684217 -2.2001759 25.76821241 -3.50354576 25.76799679 C-8.50057168 25.03850518 -11.65410365 22.84407071 -14.8074646 18.95492554 C-16.3047688 15.37803217 -16.4640589 13.12148425 -15.9324646 9.26742554 C-12.19457316 1.92513878 -8.17330631 0.0219237 0 0 Z " fill="#BBD1DF" transform="translate(308.9324645996094,695.7325744628906)"/>
<path d="M0 0 C2.14939383 -0.00067535 4.29878758 -0.00164729 6.44818115 -0.00289917 C10.92607357 -0.00436402 15.40394588 -0.00226005 19.88183594 0.00244141 C25.59633093 0.00815182 31.31077907 0.00484365 37.02527237 -0.00113106 C41.45384062 -0.00475776 45.8823979 -0.00358864 50.31096649 -0.00100327 C52.41751867 -0.00034055 54.52407188 -0.00113928 56.63062286 -0.00348282 C84.72572004 -0.02789977 84.72572004 -0.02789977 89.609375 3.1953125 C91.97277748 6.89797638 92.78311279 9.75132492 92.484375 14.1328125 C91.42161737 18.2550239 90.11468884 20.71260327 86.484375 23.1328125 C73.79394128 24.86577769 60.64863622 24.27994064 47.87109375 24.265625 C45.72312916 24.26630049 43.57516465 24.26727254 41.42720032 24.26852417 C36.95528424 24.26998805 32.48338832 24.26788803 28.01147461 24.26318359 C22.30485537 24.25746973 16.59828301 24.26078413 10.89166546 24.26675606 C6.46738842 24.27038244 2.04312237 24.26921385 -2.38115501 24.26662827 C-4.48491611 24.26596564 -6.58867823 24.26676395 -8.69243813 24.26910782 C-36.94281057 24.29369934 -36.94281057 24.29369934 -41.140625 21.1953125 C-44.00705436 16.89566846 -44.01620633 13.20888284 -43.515625 8.1328125 C-41.89162316 4.49814171 -40.85449456 3.35872554 -37.515625 1.1328125 C-25.21886012 -0.67632857 -12.39220261 -0.01384795 0 0 Z " fill="#205799" transform="translate(194.515625,207.8671875)"/>
<path d="M0 0 C0.96035156 0.16371094 1.92070313 0.32742187 2.91015625 0.49609375 C7.42413725 1.14094818 11.88621642 1.11017662 16.4375 1.0625 C17.67790039 1.05573242 17.67790039 1.05573242 18.94335938 1.04882812 C20.96227146 1.03715811 22.98114574 1.01922718 25 1 C24.67 1.99 24.34 2.98 24 4 C24.391875 3.505 24.78375 3.01 25.1875 2.5 C27.55091715 0.54406857 29.01435003 0.75792027 32 1 C32.33 1.99 32.66 2.98 33 4 C34.32 4 35.64 4 37 4 C36.67 3.01 36.34 2.02 36 1 C36.78246094 1.08378906 37.56492187 1.16757813 38.37109375 1.25390625 C39.38300781 1.35574219 40.39492188 1.45757812 41.4375 1.5625 C42.44683594 1.66691406 43.45617187 1.77132812 44.49609375 1.87890625 C45.73552734 1.93884766 45.73552734 1.93884766 47 2 C47.33 1.67 47.66 1.34 48 1 C50.44904669 0.89955659 52.86374897 0.86125584 55.3125 0.875 C55.98990234 0.87113281 56.66730469 0.86726562 57.36523438 0.86328125 C60.7194055 0.86983877 63.79404876 0.96156849 67 2 C67 2.66 67 3.32 67 4 C69.64 4 72.28 4 75 4 C75 3.01 75 2.02 75 1 C76.98 1 78.96 1 81 1 C80.67 1.99 80.34 2.98 80 4 C82.10478604 3.88590318 84.20884577 3.75834639 86.3125 3.625 C88.07013672 3.52058594 88.07013672 3.52058594 89.86328125 3.4140625 C93.15699887 3.21386253 93.15699887 3.21386253 96 1 C99.13671875 0.8046875 99.13671875 0.8046875 102.6875 0.875 C103.86699219 0.89304688 105.04648437 0.91109375 106.26171875 0.9296875 C107.61716797 0.96449219 107.61716797 0.96449219 109 1 C109.33 1.66 109.66 2.32 110 3 C111.41623216 3.05447047 112.83308191 3.09300508 114.25 3.125 C115.43335938 3.15980469 115.43335938 3.15980469 116.640625 3.1953125 C119.20731941 2.9828378 120.7916067 2.28654105 123 1 C123.99 1.99 123.99 1.99 125 3 C127.36509361 3.30059943 129.74441881 3.49515012 132.125 3.625 C134.04699219 3.73714844 134.04699219 3.73714844 136.0078125 3.8515625 C137.48894531 3.92503906 137.48894531 3.92503906 139 4 C138.67 3.01 138.34 2.02 138 1 C138.99 1 139.98 1 141 1 C141 1.99 141 2.98 141 4 C144.96 4 148.92 4 153 4 C153 3.34 153 2.68 153 2 C161.21757076 0.93653556 169.34860655 0.88209675 177.625 0.9375 C179.56052734 0.94426758 179.56052734 0.94426758 181.53515625 0.95117188 C184.69015375 0.96285705 187.84505137 0.97923956 191 1 C191 1.99 191 2.98 191 4 C196.48110206 3.88165629 201.96202634 3.75740112 207.44287109 3.62768555 C209.30709192 3.58439567 211.17135088 3.54271639 213.03564453 3.50268555 C215.7165882 3.44483887 218.397341 3.38118595 221.078125 3.31640625 C221.91055725 3.29969376 222.7429895 3.28298126 223.60064697 3.26576233 C224.38115417 3.24581711 225.16166138 3.22587189 225.96582031 3.20532227 C226.64976868 3.18977798 227.33371704 3.1742337 228.03839111 3.15821838 C230.11428773 2.99078184 231.99674745 2.55834972 234 2 C234 2.33 234 2.66 234 3 C236.91652174 3.16681109 236.91652174 3.16681109 240 3 C240.66 2.34 241.32 1.68 242 1 C244.46691895 0.75276184 244.46691895 0.75276184 247.61132812 0.75708008 C248.78594604 0.75400345 249.96056396 0.75092682 251.17077637 0.74775696 C252.44473267 0.75494247 253.71868896 0.76212799 255.03125 0.76953125 C256.98424011 0.77021858 256.98424011 0.77021858 258.97668457 0.7709198 C261.73402225 0.77248485 264.49123013 0.78077591 267.24853516 0.79418945 C270.78620144 0.81117937 274.32372501 0.81500379 277.86142731 0.81424427 C281.23055406 0.8145813 284.59963381 0.82341848 287.96875 0.83203125 C289.87968445 0.83370049 289.87968445 0.83370049 291.82922363 0.83540344 C293.00384155 0.84178329 294.17845947 0.84816315 295.38867188 0.85473633 C296.94515442 0.86045403 296.94515442 0.86045403 298.53308105 0.86628723 C301 1 301 1 303 2 C303 2.66 303 3.32 303 4 C303.66 3.34 304.32 2.68 305 2 C307.94950047 0.99792612 310.65162606 0.89193568 313.75 0.9375 C314.54921875 0.94652344 315.3484375 0.95554688 316.171875 0.96484375 C316.77515625 0.97644531 317.3784375 0.98804688 318 1 C317.67 1.99 317.34 2.98 317 4 C322.94 4 328.88 4 335 4 C335 3.34 335 2.68 335 2 C333.35 2 331.7 2 330 2 C330 1.67 330 1.34 330 1 C331.64814697 1.00785522 331.64814697 1.00785522 333.32958984 1.01586914 C337.4483965 1.03411763 341.56719966 1.0455038 345.68603516 1.05493164 C347.46078088 1.05992684 349.23552255 1.06672528 351.01025391 1.07543945 C364.53460536 1.15096375 364.53460536 1.15096375 378 0 C378.33 0.66 378.66 1.32 379 2 C378.34 2 377.68 2 377 2 C377 2.66 377 3.32 377 4 C377.99 4.33 378.98 4.66 380 5 C380 5.33 380 5.66 380 6 C219.95 6 59.9 6 -105 6 C-105 5.67 -105 5.34 -105 5 C-78.27 5 -51.54 5 -24 5 C-23.67 4.01 -23.34 3.02 -23 2 C-7.11071808 -0.05022993 -7.11071808 -0.05022993 0 2 C0 1.34 0 0.68 0 0 Z " fill="#2165B5" transform="translate(631,223)"/>
<path d="M0 0 C0.96035156 0.16371094 1.92070313 0.32742187 2.91015625 0.49609375 C7.42413725 1.14094818 11.88621642 1.11017662 16.4375 1.0625 C17.67790039 1.05573242 17.67790039 1.05573242 18.94335938 1.04882812 C20.96227146 1.03715811 22.98114574 1.01922718 25 1 C24.67 1.99 24.34 2.98 24 4 C24.391875 3.505 24.78375 3.01 25.1875 2.5 C27.55091715 0.54406857 29.01435003 0.75792027 32 1 C32.33 1.99 32.66 2.98 33 4 C34.32 4 35.64 4 37 4 C36.67 3.01 36.34 2.02 36 1 C36.78246094 1.08378906 37.56492187 1.16757813 38.37109375 1.25390625 C39.38300781 1.35574219 40.39492188 1.45757812 41.4375 1.5625 C42.44683594 1.66691406 43.45617187 1.77132812 44.49609375 1.87890625 C45.73552734 1.93884766 45.73552734 1.93884766 47 2 C47.33 1.67 47.66 1.34 48 1 C50.44904669 0.89955659 52.86374897 0.86125584 55.3125 0.875 C55.98990234 0.87113281 56.66730469 0.86726562 57.36523438 0.86328125 C60.7194055 0.86983877 63.79404876 0.96156849 67 2 C67 2.66 67 3.32 67 4 C69.64 4 72.28 4 75 4 C75 3.01 75 2.02 75 1 C76.98 1 78.96 1 81 1 C80.67 1.99 80.34 2.98 80 4 C82.10478604 3.88590318 84.20884577 3.75834639 86.3125 3.625 C88.07013672 3.52058594 88.07013672 3.52058594 89.86328125 3.4140625 C93.15699887 3.21386253 93.15699887 3.21386253 96 1 C99.13671875 0.8046875 99.13671875 0.8046875 102.6875 0.875 C103.86699219 0.89304688 105.04648437 0.91109375 106.26171875 0.9296875 C107.61716797 0.96449219 107.61716797 0.96449219 109 1 C109.33 1.66 109.66 2.32 110 3 C111.41623216 3.05447047 112.83308191 3.09300508 114.25 3.125 C115.43335938 3.15980469 115.43335938 3.15980469 116.640625 3.1953125 C119.20731941 2.9828378 120.7916067 2.28654105 123 1 C123.99 1.99 123.99 1.99 125 3 C127.36509361 3.30059943 129.74441881 3.49515012 132.125 3.625 C134.04699219 3.73714844 134.04699219 3.73714844 136.0078125 3.8515625 C137.48894531 3.92503906 137.48894531 3.92503906 139 4 C138.67 3.01 138.34 2.02 138 1 C138.99 1 139.98 1 141 1 C141 1.99 141 2.98 141 4 C144.96 4 148.92 4 153 4 C153 3.34 153 2.68 153 2 C161.21757076 0.93653556 169.34860655 0.88209675 177.625 0.9375 C179.56052734 0.94426758 179.56052734 0.94426758 181.53515625 0.95117188 C184.69015375 0.96285705 187.84505137 0.97923956 191 1 C191 1.99 191 2.98 191 4 C131.39063262 6.15997976 71.8108899 6.25255246 12.16855609 6.14405322 C-0.6501914 6.12116318 -13.46894179 6.11056937 -26.28770483 6.10064721 C-52.52515925 6.08008141 -78.76257722 6.04521324 -105 6 C-105 5.67 -105 5.34 -105 5 C-78.27 5 -51.54 5 -24 5 C-23.67 4.01 -23.34 3.02 -23 2 C-7.11071808 -0.05022993 -7.11071808 -0.05022993 0 2 C0 1.34 0 0.68 0 0 Z " fill="#1C5FAF" transform="translate(631,223)"/>
<path d="M0 0 C1.65 0.33 3.3 0.66 5 1 C3.8505619 4.23932555 2.38185639 7.0646984 0.625 10 C-6.94626227 23.85503354 -6.56333522 37.17161966 -6.4609375 52.578125 C-6.45854886 54.95936991 -6.45764864 57.34061674 -6.4581604 59.72186279 C-6.45504639 64.69099882 -6.43858507 69.65984348 -6.41162109 74.62890625 C-6.37756949 80.9826905 -6.36999556 87.33615668 -6.37151146 93.69002151 C-6.37096656 98.59892789 -6.35998136 103.50776544 -6.34550858 108.41664886 C-6.33916845 110.75930003 -6.33520824 113.10195895 -6.33372116 115.44461823 C-6.32936267 118.72004883 -6.31180896 121.99514887 -6.29052734 125.27050781 C-6.29143372 126.22760651 -6.29234009 127.1847052 -6.29327393 128.17080688 C-6.23791397 134.02687059 -5.51404853 139.34424141 -4 145 C-3.75121094 145.94488281 -3.50242188 146.88976562 -3.24609375 147.86328125 C0.81336053 160.15930942 8.81466088 169.70706014 20.11132812 176.07324219 C25.7712455 178.85052326 31.91408745 180.44531887 38 182 C38 182.33 38 182.66 38 183 C36.01432292 183.48828125 34.02864583 183.9765625 32.04296875 184.46484375 C30.34316798 184.91010705 28.66698046 185.44433985 27 186 C25 184 25 184 23.9375 182.0625 C21.75421058 179.7383532 20.63184926 179.46771563 17.625 178.625 C12.71068631 177.17395468 10.80241839 175.24882788 8 171 C8 170.34 8 169.68 8 169 C7.34 169 6.68 169 6 169 C6 168.34 6 167.68 6 167 C5.34 166.67 4.68 166.34 4 166 C1 162.42307692 1 162.42307692 1 160 C0.01 159.67 -0.98 159.34 -2 159 C-2.33 157.35 -2.66 155.7 -3 154 C-3.66 154 -4.32 154 -5 154 C-10.41000376 139.24544429 -10.29779965 124.84701503 -10.265625 109.32421875 C-10.26697426 107.02643289 -10.26891697 104.72864731 -10.27142334 102.43086243 C-10.27435932 97.63576516 -10.27012426 92.84074281 -10.26074219 88.0456543 C-10.2493163 81.90801671 -10.25593668 75.77055346 -10.26788712 69.63292217 C-10.27511948 64.89653716 -10.27281199 60.16019341 -10.26763153 55.42380714 C-10.26630052 53.16043896 -10.26792347 50.89706699 -10.27259064 48.63370323 C-10.27768203 45.47274227 -10.26991019 42.31206307 -10.25878906 39.15112305 C-10.26486176 37.75843704 -10.26486176 37.75843704 -10.27105713 36.33761597 C-10.23745879 31.17034093 -9.68047297 26.89465511 -8 22 C-7.34 22 -6.68 22 -6 22 C-5.505 17.545 -5.505 17.545 -5 13 C-4.34 13 -3.68 13 -3 13 C-3 10.69 -3 8.38 -3 6 C-2.01 5.67 -1.02 5.34 0 5 C-0.33 4.01 -0.66 3.02 -1 2 C-0.67 1.34 -0.34 0.68 0 0 Z " fill="#082B6C" transform="translate(247,598)"/>
<path d="M0 0 C3.03591347 1.86528582 3.70788874 3.7850109 4.84375 7.1328125 C4.9054567 12.09248849 4.62335173 15.96340991 1.84375 20.1328125 C-1.7377271 22.75004577 -5.89647461 22.69797082 -10.15625 22.1328125 C-13.15625 20.7578125 -13.15625 20.7578125 -15.15625 19.1328125 C-15.15625 18.4728125 -15.15625 17.8128125 -15.15625 17.1328125 C-15.81625 17.1328125 -16.47625 17.1328125 -17.15625 17.1328125 C-18.20601964 13.98350357 -18.25756595 11.74466794 -18.21875 8.4453125 C-18.20972656 7.45144531 -18.20070313 6.45757812 -18.19140625 5.43359375 C-18.17980469 4.67433594 -18.16820312 3.91507813 -18.15625 3.1328125 C-12.39605819 -0.78902022 -6.79178131 -2.73147727 0 0 Z " fill="#387BBF" transform="translate(1223.15625,213.8671875)"/>
<path d="M0 0 C0.70125 0.515625 1.4025 1.03125 2.125 1.5625 C2.125 2.2225 2.125 2.8825 2.125 3.5625 C2.785 3.8925 3.445 4.2225 4.125 4.5625 C5.4603446 8.47315204 5.21954536 11.0089968 3.5625 14.6875 C1.36511929 18.56654962 -0.62316295 20.87780985 -4.875 22.5625 C-9.26592705 21.98977038 -12.77196172 20.33462679 -16.375 17.8125 C-18.46045588 14.68431619 -18.74600815 12.30326366 -18.875 8.5625 C-17.98905225 4.72339309 -17.08887343 1.94314698 -13.875 -0.4375 C-8.81383768 -3.17326341 -5.04835073 -2.52417537 0 0 Z " fill="#387CC0" transform="translate(1294.875,214.4375)"/>
<path d="M0 0 C53.13 0 106.26 0 161 0 C161.33 0.99 161.66 1.98 162 3 C160.21873911 4.78126089 157.60537435 4.42034316 155.1875 4.625 C154.12917969 4.72039063 153.07085938 4.81578125 151.98046875 4.9140625 C149 5 149 5 147.28491211 4.51367188 C144.02193766 3.78012147 140.78754304 3.85749737 137.4609375 3.8671875 C136.73887115 3.86623077 136.01680481 3.86527405 135.27285767 3.86428833 C133.75156568 3.8636096 132.23027075 3.86544247 130.70898438 3.86962891 C128.37623641 3.87499715 126.04367962 3.8696656 123.7109375 3.86328125 C122.23177041 3.86394178 120.75260343 3.86522242 119.2734375 3.8671875 C118.57447357 3.86516327 117.87550964 3.86313904 117.15536499 3.86105347 C113.45358737 3.82844173 113.45358737 3.82844173 110 5 C108.1081543 5.00585938 108.1081543 5.00585938 105.82421875 4.84375 C104.99599609 4.79089844 104.16777344 4.73804688 103.31445312 4.68359375 C101.57481264 4.56201293 99.83522815 4.43962807 98.09570312 4.31640625 C93.83697767 4.04590626 90.18014849 3.96506962 86 5 C84.66666667 4.66666667 83.33333333 4.33333333 82 4 C81.21625 4.165 80.4325 4.33 79.625 4.5 C76.47331963 5.10032007 74.15844397 4.53138769 71 4 C69.06076717 3.91810318 67.11917906 3.88208331 65.17822266 3.88647461 C63.49715927 3.88658791 63.49715927 3.88658791 61.78213501 3.88670349 C60.58817108 3.89186478 59.39420715 3.89702606 58.1640625 3.90234375 C56.31232925 3.90446617 56.31232925 3.90446617 54.42318726 3.90663147 C50.49043325 3.91221728 46.55773672 3.92476725 42.625 3.9375 C39.95442792 3.94308088 37.28385637 3.94707942 34.61328125 3.95117188 C28.07550131 3.96218208 21.53775476 3.97890615 15 4 C14.67 3.34 14.34 2.68 14 2 C10.72444392 1.52998967 10.72444392 1.52998967 6.9375 1.375 C5.00197266 1.26285156 5.00197266 1.26285156 3.02734375 1.1484375 C1.52880859 1.07496094 1.52880859 1.07496094 0 1 C0 0.67 0 0.34 0 0 Z " fill="#315991" transform="translate(385,780)"/>
<path d="M0 0 C0.96423986 -0.00128164 0.96423986 -0.00128164 1.9479593 -0.00258917 C4.11144215 -0.00424206 6.27484822 0.00127428 8.43832397 0.00672913 C9.98539732 0.00701106 11.5324708 0.00685313 13.07954407 0.00628662 C17.28798075 0.00599891 21.49638912 0.01189143 25.7048192 0.01886058 C30.09974049 0.02509845 34.49466237 0.02569826 38.8895874 0.02688599 C47.21582099 0.02999802 55.5420415 0.03820969 63.86826932 0.04823548 C73.34576358 0.05940057 82.82325845 0.06490807 92.30075765 0.06993091 C111.8002338 0.08039241 131.29969776 0.09798939 150.79916382 0.12025452 C150.79916382 0.45025452 150.79916382 0.78025452 150.79916382 1.12025452 C104.26916382 1.12025452 57.73916382 1.12025452 9.79916382 1.12025452 C9.79916382 1.78025452 9.79916382 2.44025452 9.79916382 3.12025452 C7.78093465 3.08770243 5.76270549 3.05515035 3.74447632 3.02259827 C1.71730977 2.9937621 1.71730977 2.9937621 -0.20083618 4.12025452 C-2.87319828 4.25440924 -5.52334107 4.16343992 -8.20083618 4.12025452 C-8.42771118 4.67712952 -8.65458618 5.23400452 -8.88833618 5.80775452 C-10.56514119 8.76212524 -12.7740797 10.75127795 -15.20083618 13.12025452 C-15.79896118 13.90400452 -16.39708618 14.68775452 -17.01333618 15.49525452 C-19.51411139 18.49618477 -22.28725636 20.89345437 -25.25161743 23.42494202 C-26.83412646 24.8013126 -28.34281042 26.26222876 -29.82583618 27.74525452 C-31.63857734 29.55799567 -33.39215203 31.10023744 -35.38833618 32.68275452 C-37.87917299 34.84147975 -39.08005172 36.09413648 -40.20083618 39.12025452 C-40.86083618 39.12025452 -41.52083618 39.12025452 -42.20083618 39.12025452 C-42.53083618 40.11025452 -42.86083618 41.10025452 -43.20083618 42.12025452 C-45.76333618 43.30775452 -45.76333618 43.30775452 -48.20083618 44.12025452 C-47.62636665 40.41483066 -46.1679614 38.71693408 -43.53897095 36.10194397 C-42.76469254 35.32466446 -41.99041412 34.54738495 -41.19267273 33.74655151 C-40.35103073 32.91725632 -39.50938873 32.08796112 -38.64224243 31.23353577 C-37.78275497 30.37592148 -36.92326752 29.51830719 -36.03773499 28.63470459 C-34.21953899 26.82323199 -32.39774831 25.01536135 -30.57266235 23.21083069 C-27.77099448 20.44032763 -24.98014695 17.65928696 -22.19107056 14.87611389 C-20.42541643 13.11962913 -18.65916065 11.36374891 -16.89224243 9.60853577 C-16.05262466 8.77316788 -15.2130069 7.93779999 -14.34794617 7.07711792 C-13.57051559 6.30929489 -12.79308502 5.54147186 -11.99209595 4.75038147 C-11.30672256 4.07183609 -10.62134918 3.39329071 -9.91520691 2.69418335 C-6.686595 -0.26993945 -4.28984321 -0.00342093 0 0 Z " fill="#031453" transform="translate(389.2008361816406,780.8797454833984)"/>
<path d="M0 0 C1.44052734 0.24556641 1.44052734 0.24556641 2.91015625 0.49609375 C7.42413725 1.14094818 11.88621642 1.11017662 16.4375 1.0625 C17.67790039 1.05573242 17.67790039 1.05573242 18.94335938 1.04882812 C20.96227146 1.03715811 22.98114574 1.01922718 25 1 C24.67 1.99 24.34 2.98 24 4 C24.391875 3.505 24.78375 3.01 25.1875 2.5 C27.55091715 0.54406857 29.01435003 0.75792027 32 1 C32.495 2.485 32.495 2.485 33 4 C34.32 4 35.64 4 37 4 C36.505 2.515 36.505 2.515 36 1 C36.78246094 1.08378906 37.56492187 1.16757813 38.37109375 1.25390625 C39.38300781 1.35574219 40.39492188 1.45757812 41.4375 1.5625 C42.44683594 1.66691406 43.45617187 1.77132812 44.49609375 1.87890625 C45.32238281 1.91886719 46.14867187 1.95882812 47 2 C47.33 1.67 47.66 1.34 48 1 C50.44904669 0.89955659 52.86374897 0.86125584 55.3125 0.875 C55.98990234 0.87113281 56.66730469 0.86726562 57.36523438 0.86328125 C60.7194055 0.86983877 63.79404876 0.96156849 67 2 C67 2.66 67 3.32 67 4 C69.64 4 72.28 4 75 4 C75 3.01 75 2.02 75 1 C76.98 1 78.96 1 81 1 C80.34 2.32 79.68 3.64 79 5 C45.01 5 11.02 5 -24 5 C-23.67 4.01 -23.34 3.02 -23 2 C-7.11071808 -0.05022993 -7.11071808 -0.05022993 0 2 C0 1.34 0 0.68 0 0 Z " fill="#1B59A2" transform="translate(631,223)"/>
<path d="M0 0 C0.99 0 1.98 0 3 0 C3 6.66666667 3 13.33333333 3 20 C3.45004728 22.50740625 3.97901922 24.92752095 4.6875 27.375 C5.10923676 30.91758876 3.98428607 33.58394834 3 37 C2.68687184 40.86428614 2.7621686 44.28650581 4 48 C3.34 48 2.68 48 2 48 C2.33 48.99 2.66 49.98 3 51 C3.35368457 54.46930992 3.47132698 57.95414919 3.625 61.4375 C3.67003662 62.43579834 3.71507324 63.43409668 3.76147461 64.46264648 C3.99689725 70.47351011 3.94444155 76.29006256 3.24609375 82.2734375 C2.96071947 85.43520333 3.0411263 88.51488609 3.125 91.6875 C3.19433365 97.44219317 2.16150594 101.6862979 0 107 C-0.82549886 104.12152184 -1.11511066 101.59897086 -1.08229065 98.60870361 C-1.07525116 97.73654709 -1.06821167 96.86439056 -1.06095886 95.96580505 C-1.04801285 95.01706009 -1.03506683 94.06831512 -1.02172852 93.09082031 C-1.0073172 91.5830175 -1.0073172 91.5830175 -0.99261475 90.04475403 C-0.95963591 86.72247285 -0.91929912 83.40032363 -0.87890625 80.078125 C-0.85460406 77.77456121 -0.83076055 75.47099254 -0.80735779 73.16741943 C-0.74452681 67.10437459 -0.67545725 61.04141617 -0.60510254 54.97845459 C-0.53441027 48.79166601 -0.46959863 42.60481616 -0.40429688 36.41796875 C-0.27529721 24.2785785 -0.13970894 12.13927139 0 0 Z " fill="#0B3E89" transform="translate(589,632)"/>
<path d="M0 0 C3.48722563 0.00640393 6.97445291 0.0068504 10.46168351 0.00802541 C17.01628819 0.01108992 23.57087547 0.01923488 30.12547261 0.0293749 C37.60842067 0.04069097 45.09136972 0.04608484 52.57432425 0.05107033 C67.92201576 0.06142373 83.26969008 0.07892478 98.61736894 0.10139394 C98.94736894 1.09139394 99.27736894 2.08139394 99.61736894 3.10139394 C22.89236894 2.60639394 22.89236894 2.60639394 -55.38263106 2.10139394 C-55.38263106 1.77139394 -55.38263106 1.44139394 -55.38263106 1.10139394 C-36.91408538 0.26627694 -18.48616685 -0.03991869 0 0 Z " fill="#E7E9E7" transform="translate(445.3826310634613,776.8986060619354)"/>
<path d="M0 0 C4.31248609 -0.02886537 8.62494762 -0.04675255 12.9375 -0.0625 C14.16919922 -0.07087891 15.40089844 -0.07925781 16.66992188 -0.08789062 C17.83974609 -0.09111328 19.00957031 -0.09433594 20.21484375 -0.09765625 C21.84087524 -0.10551147 21.84087524 -0.10551147 23.49975586 -0.11352539 C26 0 26 0 27 1 C27.1017088 2.50805599 27.13568157 4.02075723 27.1418457 5.53222656 C27.14888016 6.49702942 27.15591461 7.46183228 27.16316223 8.45587158 C27.16732651 9.50684021 27.17149078 10.55780884 27.17578125 11.640625 C27.19898375 13.84766574 27.22310126 16.05469702 27.24804688 18.26171875 C27.2831559 21.755435 27.3124954 25.24880467 27.32592773 28.74267578 C27.34139893 32.10492415 27.38161247 35.4661472 27.42578125 38.828125 C27.42387283 39.8709967 27.42196442 40.91386841 27.41999817 41.98834229 C27.49473335 46.41786773 27.55442141 49.22924989 29.80151367 53.11621094 C32.66305234 55.56814124 35.3506641 56.2280251 39 57 C39 57.33 39 57.66 39 58 C35.94928825 58.287803 33.03939738 58.4472872 30 58 C27.89638304 55.5776532 27 54.21754366 27 51 C26.34 51 25.68 51 25 51 C24.04604227 45.40498837 23.86834886 40.01664336 23.90234375 34.34765625 C23.9037587 33.44752304 23.90517365 32.54738983 23.90663147 31.61997986 C23.9121934 28.76745163 23.92473873 25.91500419 23.9375 23.0625 C23.94251992 21.11914176 23.94708197 19.17578229 23.95117188 17.23242188 C23.96215034 12.4882505 23.97938847 7.74413891 24 3 C23.34402832 2.98018066 22.68805664 2.96036133 22.01220703 2.93994141 C19.04938931 2.84487493 16.08729468 2.73512248 13.125 2.625 C12.09246094 2.5940625 11.05992187 2.563125 9.99609375 2.53125 C9.00996094 2.49257813 8.02382813 2.45390625 7.0078125 2.4140625 C6.09660645 2.3826416 5.18540039 2.3512207 4.24658203 2.31884766 C2 2 2 2 0 0 Z " fill="#072969" transform="translate(286,781)"/>
<path d="M0 0 C0.31710937 0.93457031 0.63421875 1.86914062 0.9609375 2.83203125 C4.1589059 11.93204624 8.07196858 20.34977039 12.74755859 28.7902832 C13.16859863 29.55687256 13.58963867 30.32346191 14.0234375 31.11328125 C14.40419434 31.79173096 14.78495117 32.47018066 15.17724609 33.16918945 C16 35 16 35 16 38 C15.01 37.67 14.02 37.34 13 37 C12.375 35.1875 12.375 35.1875 12 33 C11.814375 32.2575 11.62875 31.515 11.4375 30.75 C11.293125 30.1725 11.14875 29.595 11 29 C10.01 29.33 9.02 29.66 8 30 C8 29.34 8 28.68 8 28 C7.34 28 6.68 28 6 28 C6.103125 27.34 6.20625 26.68 6.3125 26 C5.97499897 22.75999012 5.32053782 21.78753571 3.5 19.1875 C0.61236596 14.91705529 0.54715356 12.07188007 1 7 C-4.69650024 4.64709773 -7.74174861 5.26407264 -13.48828125 7.26171875 C-17.11125689 8.32663694 -20.24801123 8.20844382 -24 8 C-24.33 8.66 -24.66 9.32 -25 10 C-25 9.34 -25 8.68 -25 8 C-25.99 7.67 -26.98 7.34 -28 7 C-25.00237582 5.00158388 -23.20884261 4.44781953 -19.74609375 3.7109375 C-18.21758789 3.38222656 -18.21758789 3.38222656 -16.65820312 3.046875 C-15.06395508 2.71429687 -15.06395508 2.71429687 -13.4375 2.375 C-12.37080078 2.14554688 -11.30410156 1.91609375 -10.20507812 1.6796875 C-2.31154669 0 -2.31154669 0 0 0 Z " fill="#0F3474" transform="translate(1027,624)"/>
<path d="M0 0 C1.88331622 5.44069131 0.06700077 10.83249808 -2 16 C-3.375 17.5625 -3.375 17.5625 -5 19 C-7.87154995 22.37334624 -7.87154995 22.37334624 -9.9375 26.25 C-10.4634375 27.11625 -10.4634375 27.11625 -11 28 C-11.825 28.144375 -12.65 28.28875 -13.5 28.4375 C-14.325 28.623125 -15.15 28.80875 -16 29 C-17.32481546 31.39529669 -17.32481546 31.39529669 -18 34 C-18.33 34.66 -18.66 35.32 -19 36 C-24.44927536 37.27536232 -24.44927536 37.27536232 -27 36 C-27.66 38.64 -28.32 41.28 -29 44 C-31 42 -31 42 -32 40 C-32.598125 40.20625 -33.19625 40.4125 -33.8125 40.625 C-36 41 -36 41 -39 39 C-38.09378906 38.64808594 -37.18757812 38.29617188 -36.25390625 37.93359375 C-19.77799821 31.25605642 -9.22864168 21.48314473 -2 5 C-1.32316426 3.33743704 -0.65296623 1.67208174 0 0 Z M-28 39 C-26 40 -26 40 -26 40 Z " fill="#0C3174" transform="translate(586,740)"/>
<path d="M0 0 C2.02408755 0.09002398 4.04544287 0.24641038 6.0625 0.4375 C7.71958984 0.59025391 7.71958984 0.59025391 9.41015625 0.74609375 C10.26480469 0.82988281 11.11945313 0.91367187 12 1 C12 1.33 12 1.66 12 2 C11.43490723 2.0501123 10.86981445 2.10022461 10.28759766 2.15185547 C7.73246147 2.38366272 5.17882238 2.6291579 2.625 2.875 C1.29082031 2.99294922 1.29082031 2.99294922 -0.0703125 3.11328125 C-0.92109375 3.19707031 -1.771875 3.28085937 -2.6484375 3.3671875 C-3.82672119 3.47716064 -3.82672119 3.47716064 -5.02880859 3.58935547 C-7.22420226 3.85884591 -7.22420226 3.85884591 -9 6 C-11.04663963 6.50653599 -13.11398519 6.9305984 -15.1875 7.3125 C-25.53111112 9.40889032 -35.33534227 12.75396902 -45 17 C-45.66 16.34 -46.32 15.68 -47 15 C-44.69958987 12.34454264 -42.79156697 11.40448801 -39.4375 10.4375 C-35.84760436 9.39821047 -35.84760436 9.39821047 -33 7 C-33 7.66 -33 8.32 -33 9 C-32.34 9 -31.68 9 -31 9 C-31 8.34 -31 7.68 -31 7 C-27.09536218 2.97334225 -23.41698141 2.188745 -18 2 C-15.46800368 1.98412541 -12.93812857 1.99999321 -10.40625 2.02734375 C-4.78962278 2.15417667 -4.78962278 2.15417667 0 0 Z " fill="#19549D" transform="translate(1140,446)"/>
<path d="M0 0 C0.99 0.33 1.98 0.66 3 1 C3.0462956 11.90040952 3.08185507 22.80079573 3.10362434 33.70128345 C3.11407133 38.76256083 3.12824723 43.82377105 3.15087891 48.88500977 C3.17257465 53.76737314 3.18456173 58.64967184 3.18975449 63.5320797 C3.19345612 65.3968476 3.20068429 67.26161187 3.21146011 69.12635231 C3.2259316 71.73380877 3.22797977 74.34099631 3.22705078 76.94848633 C3.23424133 77.72316254 3.24143188 78.49783875 3.24884033 79.29598999 C3.23421237 83.07844382 3.15207532 84.77188702 1 88 C-0.25048455 84.24854634 -0.13143947 80.76323916 -0.11352539 76.85668945 C-0.11367142 76.02719788 -0.11381744 75.1977063 -0.1139679 74.34307861 C-0.11327092 71.59978628 -0.10548853 68.85656173 -0.09765625 66.11328125 C-0.09579131 64.21184832 -0.09436776 62.31041491 -0.09336853 60.40898132 C-0.08954936 55.40305252 -0.07972416 50.3971527 -0.06866455 45.39123535 C-0.05843756 40.28361402 -0.05386815 35.175988 -0.04882812 30.06835938 C-0.03810138 20.04556018 -0.02103212 10.0227825 0 0 Z " fill="#C2CFE1" transform="translate(942,633)"/>
<path d="M0 0 C2.5625718 -0.02710123 5.12485365 -0.04688771 7.6875 -0.0625 C8.40873047 -0.07087891 9.12996094 -0.07925781 9.87304688 -0.08789062 C13.71555382 -0.10543632 17.26639526 0.06475779 21 1 C21.495 2.485 21.495 2.485 22 4 C-3.74 4.33 -29.48 4.66 -56 5 C-55.01 5.66 -54.02 6.32 -53 7 C-56.63 6.67 -60.26 6.34 -64 6 C-64 5.67 -64 5.34 -64 5 C-63.0925 4.71125 -62.185 4.4225 -61.25 4.125 C-58.67797092 3.23468224 -56.38653234 2.28505587 -54 1 C-53.67 1.33 -53.34 1.66 -53 2 C-51.34355634 2.12290718 -49.68201007 2.17783908 -48.02124023 2.20532227 C-46.42970375 2.2352401 -46.42970375 2.2352401 -44.80601501 2.26576233 C-43.651866 2.28247482 -42.49771698 2.29918732 -41.30859375 2.31640625 C-40.13361832 2.33718735 -38.95864288 2.35796844 -37.74806213 2.37937927 C-33.97793676 2.44500124 -30.20773918 2.5038183 -26.4375 2.5625 C-23.88866427 2.6056732 -21.33983597 2.64928708 -18.79101562 2.69335938 C-12.52742108 2.80069545 -6.26375399 2.9024379 0 3 C0 2.01 0 1.02 0 0 Z " fill="#1957A1" transform="translate(583,224)"/>
<path d="M0 0 C1.98 0 3.96 0 6 0 C5.67 0.99 5.34 1.98 5 3 C5.86223222 2.75642856 5.86223222 2.75642856 6.74188328 2.50793648 C8.95921798 2.00917343 10.8624955 1.8742287 13.12986755 1.87301636 C14.35153625 1.86878662 14.35153625 1.86878662 15.59788513 1.86447144 C16.48267044 1.86649567 17.36745575 1.8685199 18.27905273 1.87060547 C19.68702621 1.86797699 19.68702621 1.86797699 21.1234436 1.86529541 C24.22684578 1.86089358 27.33019099 1.86380928 30.43359375 1.8671875 C32.59066275 1.86651393 34.74773168 1.86554345 36.90480042 1.86428833 C41.42653119 1.86281357 45.94824222 1.86495861 50.4699707 1.86962891 C56.26496423 1.87532263 62.0599114 1.87204803 67.85490322 1.86605644 C72.30984343 1.86244195 76.76477267 1.86359357 81.21971321 1.86618423 C83.35634428 1.86685122 85.49297634 1.86603305 87.62960625 1.86370468 C90.61694857 1.86116402 93.60421599 1.86503894 96.59155273 1.87060547 C97.91569435 1.86756912 97.91569435 1.86756912 99.2665863 1.86447144 C103.31025021 1.87842335 107.05485057 1.98499056 111 3 C111 3.33 111 3.66 111 4 C96.84010689 4.17725008 82.68011858 4.34278792 68.51993084 4.49477577 C61.9452576 4.56568849 55.37067211 4.64038383 48.79614258 4.72363281 C42.45499434 4.80378898 36.11380717 4.87412795 29.77247047 4.93757248 C27.34945454 4.96355705 24.92647432 4.99311861 22.50354576 5.02626419 C19.11786624 5.07197765 15.73228456 5.1051336 12.34643555 5.13525391 C11.33799088 5.1517952 10.3295462 5.16833649 9.2905426 5.18537903 C7.90864243 5.19387627 7.90864243 5.19387627 6.49882507 5.20254517 C5.29726792 5.21637206 5.29726792 5.21637206 4.07143688 5.23047829 C2 5 2 5 -1 3 C-0.34 2.67 0.32 2.34 1 2 C0.67 1.34 0.34 0.68 0 0 Z " fill="#0F4890" transform="translate(282,576)"/>
<path d="M0 0 C0.33 0 0.66 0 1 0 C1.33 31.35 1.66 62.7 2 95 C1.34 95 0.68 95 0 95 C-1.21845706 91.34462883 -1.13964865 87.98837832 -1.12939453 84.18310547 C-1.13114685 83.38757767 -1.13289917 82.59204987 -1.13470459 81.77241516 C-1.13911209 79.13731719 -1.13618729 76.50228618 -1.1328125 73.8671875 C-1.13348626 72.03215522 -1.13445688 70.19712304 -1.13571167 68.36209106 C-1.13718748 64.51026563 -1.1350393 60.65846337 -1.13037109 56.80664062 C-1.12469794 51.88751295 -1.12793817 46.96844012 -1.13394356 42.0493145 C-1.1375729 38.25560093 -1.13639929 34.46190016 -1.13381577 30.66818619 C-1.1331518 28.85583617 -1.13395626 27.04348496 -1.13629532 25.23113632 C-1.13885819 22.6851473 -1.13492945 20.13924439 -1.12939453 17.59326172 C-1.13141876 16.85422104 -1.13344299 16.11518036 -1.13552856 15.35374451 C-1.11484567 10.17234593 -0.63834914 5.1426332 0 0 Z " fill="#0D4186" transform="translate(443,455)"/>
<path d="M0 0 C1.26910272 2.53820544 1.04114563 4.1482227 0.9140625 6.98046875 C0.87023438 7.98013672 0.82640625 8.97980469 0.78125 10.00976562 C0.70390625 11.58274414 0.70390625 11.58274414 0.625 13.1875 C0.58117188 14.21681641 0.53734375 15.24613281 0.4921875 16.30664062 C0.24805774 21.59950949 -0.12756249 26.77276846 -1 32 C-0.34 32.33 0.32 32.66 1 33 C0.34 33 -0.32 33 -1 33 C-0.67 33.99 -0.34 34.98 0 36 C1.779084 42.29033273 1.4509096 47.87272599 -1 54 C-1.33 54 -1.66 54 -2 54 C-2 36.51 -2 19.02 -2 1 C-1.34 0.67 -0.68 0.34 0 0 Z " fill="#1F61AC" transform="translate(1095,319)"/>
<path d="M0 0 C5.84147297 -0.1062086 11.61094445 0.12841822 17.4375 0.5 C23.63954289 0.89483581 29.78222156 1.0986949 36 1 C36.495 3.475 36.495 3.475 37 6 C31.66390113 7.28714206 27.39651107 6.61233483 22.125 5.5625 C20.949375 5.34110352 20.949375 5.34110352 19.75 5.11523438 C17.83158734 4.75260759 15.91552965 4.37755985 14 4 C14 3.67 14 3.34 14 3 C9.38 2.34 4.76 1.68 0 1 C0 0.67 0 0.34 0 0 Z " fill="#185299" transform="translate(1154,447)"/>
<path d="M0 0 C7.69733104 1.89410764 15.36174657 3.8799336 23 6 C22.01 7.485 22.01 7.485 21 9 C18.5 9.375 18.5 9.375 16 9 C15.34 8.01 14.68 7.02 14 6 C14 6.66 14 7.32 14 8 C10.2315258 8.65538682 6.81511428 9 3 9 C1.5393715 6.35261084 1 5.10551666 1 2 C0.67 1.34 0.34 0.68 0 0 Z " fill="#0F4389" transform="translate(1106,711)"/>
<path d="M0 0 C0 0.99 0 1.98 0 3 C-3.00366514 4.00122171 -4.97739593 4.12112011 -8.11401367 4.11352539 C-9.15486618 4.11344986 -10.19571869 4.11337433 -11.26811218 4.11329651 C-12.39006485 4.10813522 -13.51201752 4.10297394 -14.66796875 4.09765625 C-16.39289299 4.09553383 -16.39289299 4.09553383 -18.15266418 4.09336853 C-21.83096908 4.08776429 -25.50921345 4.07521104 -29.1875 4.0625 C-31.67903558 4.05748555 -34.17057211 4.05292255 -36.66210938 4.04882812 C-42.77476029 4.03779347 -48.88737582 4.02105118 -55 4 C-55 3.67 -55 3.34 -55 3 C-39.99751434 2.40136532 -25.0162103 1.80693444 -10 2 C-9.67 1.34 -9.34 0.68 -9 0 C-5.75266665 -1.2757381 -3.32967418 -0.83241855 0 0 Z " fill="#E5E8E9" transform="translate(1002,625)"/>
<path d="M0 0 C0.99 0.33 1.98 0.66 3 1 C3.33 2.98 3.66 4.96 4 7 C4.99 7.33 5.98 7.66 7 8 C8 10 8 10 9 12 C9.99 12.33 10.98 12.66 12 13 C11.01 13.495 11.01 13.495 10 14 C10.99 14.33 11.98 14.66 13 15 C13 16.32 13 17.64 13 19 C13.66 19.33 14.32 19.66 15 20 C14.67 21.32 14.34 22.64 14 24 C15.32 24.33 16.64 24.66 18 25 C17.67 25.99 17.34 26.98 17 28 C16.01 28 15.02 28 14 28 C13.34 26.02 12.68 24.04 12 22 C11.34 22 10.68 22 10 22 C8.50939242 19.46446145 7.03251938 16.92243874 5.5625 14.375 C5.14162109 13.66214844 4.72074219 12.94929687 4.28710938 12.21484375 C1.94499448 8.13019538 0.41502823 4.78414355 0 0 Z " fill="#1857A1" transform="translate(1266,506)"/>
<path d="M0 0 C0 3 0 3 -2.1875 5.375 C-3.115625 6.24125 -4.04375 7.1075 -5 8 C-7.45933864 10.39935477 -9.76116176 12.67880375 -11.8125 15.4375 C-14.31065325 18.3639081 -17.02931368 20.3161929 -20.1953125 22.47265625 C-22.18065305 24.15289036 -23.00687681 25.61957585 -24 28 C-24.66 28 -25.32 28 -26 28 C-26.33 28.99 -26.66 29.98 -27 31 C-29.5625 32.1875 -29.5625 32.1875 -32 33 C-31.49902832 28.77612115 -29.14131396 26.77259203 -26.1875 23.875 C-25.31480469 23.00617187 -24.44210937 22.13734375 -23.54296875 21.2421875 C-21 19 -21 19 -19.09790039 18.10449219 C-16.55803701 16.76731752 -14.90376958 15.12958427 -12.890625 13.0859375 C-12.13652344 12.32539062 -11.38242187 11.56484375 -10.60546875 10.78125 C-9.82816406 9.9871875 -9.05085938 9.193125 -8.25 8.375 C-7.45722656 7.57320312 -6.66445313 6.77140625 -5.84765625 5.9453125 C-3.89385507 3.96797154 -1.94487897 1.98611091 0 0 Z " fill="#0F3778" transform="translate(373,792)"/>
<path d="M0 0 C1.65 0.66 3.3 1.32 5 2 C5 3.32 5 4.64 5 6 C4.16597656 6.27972656 3.33195312 6.55945313 2.47265625 6.84765625 C-5.82644282 9.80415088 -12.52427092 13.26480837 -18.6171875 19.7109375 C-20 21 -20 21 -22 21 C-22 19.35 -22 17.7 -22 16 C-21.030625 15.731875 -20.06125 15.46375 -19.0625 15.1875 C-18.051875 14.795625 -17.04125 14.40375 -16 14 C-15.67 13.01 -15.34 12.02 -15 11 C-12.9375 10.3125 -12.9375 10.3125 -11 10 C-11 9.34 -11 8.68 -11 8 C-8.36 7.67 -5.72 7.34 -3 7 C-2.67 5.35 -2.34 3.7 -2 2 C-1.34 2 -0.68 2 0 2 C0 1.34 0 0.68 0 0 Z " fill="#0E367B" transform="translate(275,577)"/>
<path d="M0 0 C0.66 0 1.32 0 2 0 C1.979375 0.78375 1.95875 1.5675 1.9375 2.375 C1.81315937 4.98114961 1.81315937 4.98114961 3 7 C2.979375 8.051875 2.95875 9.10375 2.9375 10.1875 C2.81883644 14.01656446 2.81883644 14.01656446 4.125 17.5625 C5.14359136 21.56410891 4.53390332 23.25045856 3 27 C3 27.99 3 28.98 3 30 C2.01 30.99 1.02 31.98 0 33 C0 22.11 0 11.22 0 0 Z " fill="#1B5DAD" transform="translate(1289,568)"/>
<path d="M0 0 C0.66 0.33 1.32 0.66 2 1 C2 1.66 2 2.32 2 3 C2.99 3.33 3.98 3.66 5 4 C5.33 6.97 5.66 9.94 6 13 C6.99 13.33 7.98 13.66 9 14 C10.32885906 22.8590604 10.32885906 22.8590604 9 26 C8.34 26.66 7.68 27.32 7 28 C6.75765625 26.96101563 6.5153125 25.92203125 6.265625 24.8515625 C4.53161265 17.58597227 2.74931289 10.64719184 -0.36328125 3.8203125 C-0.57339844 3.21960938 -0.78351563 2.61890625 -1 2 C-0.67 1.34 -0.34 0.68 0 0 Z " fill="#2365B0" transform="translate(1083,279)"/>
<path d="M0 0 C2.02408755 0.09002398 4.04544287 0.24641038 6.0625 0.4375 C7.71958984 0.59025391 7.71958984 0.59025391 9.41015625 0.74609375 C10.26480469 0.82988281 11.11945313 0.91367187 12 1 C12 1.33 12 1.66 12 2 C11.43490723 2.0501123 10.86981445 2.10022461 10.28759766 2.15185547 C7.73246147 2.38366272 5.17882238 2.6291579 2.625 2.875 C1.73554687 2.95363281 0.84609375 3.03226562 -0.0703125 3.11328125 C-1.34648438 3.23896484 -1.34648438 3.23896484 -2.6484375 3.3671875 C-3.82672119 3.47716064 -3.82672119 3.47716064 -5.02880859 3.58935547 C-7.22420226 3.85884591 -7.22420226 3.85884591 -9 6 C-10.96847705 6.03280795 -12.93843255 6.05669682 -14.90625 5.99609375 C-17.20891087 5.9351291 -17.20891087 5.9351291 -20.25 6.625 C-23.29928038 7.04081096 -24.4658752 6.65692775 -27 5 C-26.67 4.34 -26.34 3.68 -26 3 C-20.7570361 2.04673384 -15.72117405 1.96992945 -10.40625 2.02734375 C-4.78962278 2.15417667 -4.78962278 2.15417667 0 0 Z " fill="#2063B1" transform="translate(1140,446)"/>
<path d="M0 0 C1.7792358 3.25278792 2.79613397 6.50305643 3.8125 10.0625 C5.46457491 15.60696353 7.56263717 20.68410905 10.14453125 25.85546875 C10.56798828 26.91701172 10.56798828 26.91701172 11 28 C10.67 28.66 10.34 29.32 10 30 C9.34 29.01 8.68 28.02 8 27 C7.01 26.67 6.02 26.34 5 26 C3.8125 22.9375 3.8125 22.9375 3 20 C2.67 20 2.34 20 2 20 C1.49095343 18.12743583 0.99317545 16.25180659 0.5 14.375 C0.08234375 12.80878906 0.08234375 12.80878906 -0.34375 11.2109375 C-1.13903737 7.31971002 -1.82186975 3.64373949 0 0 Z " fill="#113675" transform="translate(446,549)"/>
<path d="M0 0 C0.99 0.66 1.98 1.32 3 2 C1.80100302 5.0831351 0.52299523 8.06279492 -1 11 C-0.34 11.33 0.32 11.66 1 12 C-0.35021826 16.41889613 -2.26115668 18.34345343 -6 21 C-8.02878875 14.74456802 -5.39023396 9.76528535 -3 4 C-2.34 4 -1.68 4 -1 4 C-0.67 2.68 -0.34 1.36 0 0 Z " fill="#1B56A0" transform="translate(1285,619)"/>
<path d="M0 0 C2.31317961 0.30742903 4.62553352 0.62107702 6.9375 0.9375 C8.22527344 1.11152344 9.51304688 1.28554688 10.83984375 1.46484375 C14 2 14 2 15 3 C17.33293334 3.04320247 19.6670134 3.04022391 22 3 C25 3 25 3 26.6875 4.5 C27.120625 4.995 27.55375 5.49 28 6 C18.1386297 7.90865232 9.5502349 5.4239703 0 3 C0 2.01 0 1.02 0 0 Z " fill="#EAEFF1" transform="translate(1114,711)"/>
<path d="M0 0 C0.33 0.66 0.66 1.32 1 2 C1.66 2.33 2.32 2.66 3 3 C2.814375 3.515625 2.62875 4.03125 2.4375 4.5625 C1.84524403 7.86221184 2.47052122 10.70546538 3 14 C3 17.79557881 2.49821059 19.62902617 1 23 C1.66 23.33 2.32 23.66 3 24 C2.855625 24.556875 2.71125 25.11375 2.5625 25.6875 C1.97230872 28.11384195 1.476571 30.54906345 1 33 C1.66 33 2.32 33 3 33 C2.67 35.31 2.34 37.62 2 40 C1.34 40 0.68 40 0 40 C0 26.8 0 13.6 0 0 Z " fill="#1D5DAA" transform="translate(1093,390)"/>
<path d="M0 0 C0.33 0 0.66 0 1 0 C1.00364563 0.57771652 1.00729126 1.15543304 1.01104736 1.75065613 C1.05289276 7.76948112 1.12225243 13.787545 1.20751953 19.8059082 C1.23572642 22.05127344 1.25694232 24.29673791 1.27099609 26.54223633 C1.29242892 29.77216389 1.33908271 33.00089856 1.390625 36.23046875 C1.39185364 37.23272995 1.39308228 38.23499115 1.39434814 39.2676239 C1.48526907 43.60464036 1.58643612 46.29126526 3.80371094 50.09106445 C6.66013616 52.57376663 9.33607655 53.22493927 13 54 C13 54.33 13 54.66 13 55 C10.03 55 7.06 55 4 55 C-0.29765543 48.90669788 -0.54000481 44.15193872 -0.390625 36.81640625 C-0.38496521 35.76090073 -0.37930542 34.7053952 -0.37347412 33.61790466 C-0.35118595 30.26563061 -0.30100215 26.91444788 -0.25 23.5625 C-0.2299253 21.28191654 -0.21167623 19.00131623 -0.1953125 16.72070312 C-0.15134606 11.14676667 -0.08450954 5.57346133 0 0 Z " fill="#051544" transform="translate(312,784)"/>
<path d="M0 0 C2.77438124 1.31220734 5.20790172 2.77482369 7.671875 4.6015625 C8.33574219 5.09140625 8.99960938 5.58125 9.68359375 6.0859375 C10.36550781 6.59382812 11.04742188 7.10171875 11.75 7.625 C12.44738281 8.140625 13.14476562 8.65625 13.86328125 9.1875 C15.57755267 10.45559119 17.28905156 11.7274289 19 13 C18.01 13.495 18.01 13.495 17 14 C16.67 14.99 16.34 15.98 16 17 C15.67 16.01 15.34 15.02 15 14 C14.01 14 13.02 14 12 14 C11.7525 13.21625 11.505 12.4325 11.25 11.625 C10.22493013 8.92293799 10.22493013 8.92293799 8.0625 7.625 C5.83635784 6.73356802 5.83635784 6.73356802 3 8 C3 7.34 3 6.68 3 6 C2.01 6 1.02 6 0 6 C0 4 0 2 0 0 Z " fill="#103778" transform="translate(1066,687)"/>
<path d="M0 0 C6.94000171 0.2478572 10.95583931 2.22426471 16 7 C17.03062705 8.30980367 18.03967358 9.63781391 19 11 C15.56404834 9.47291037 12.88087546 7.40072955 10 5 C9.13375 5.495 9.13375 5.495 8.25 6 C6 7 6 7 2 7 C2 5.68 2 4.36 2 3 C1.34 2.67 0.68 2.34 0 2 C0 1.34 0 0.68 0 0 Z " fill="#0C3376" transform="translate(822,632)"/>
<path d="M0 0 C3.3 0 6.6 0 10 0 C9.67 1.65 9.34 3.3 9 5 C9.598125 5.28875 10.19625 5.5775 10.8125 5.875 C13 7 13 7 16 9 C15.67 9.66 15.34 10.32 15 11 C11.69084419 10.38554825 9.60583297 9.21831218 6.9375 7.1875 C6.26589844 6.68605469 5.59429688 6.18460938 4.90234375 5.66796875 C3 4 3 4 0 0 Z " fill="#1D5FA8" transform="translate(1045,240)"/>
<path d="M0 0 C1.10859375 0.00322266 2.2171875 0.00644531 3.359375 0.00976562 C4.50148438 0.01814453 5.64359375 0.02652344 6.8203125 0.03515625 C8.56828125 0.04192383 8.56828125 0.04192383 10.3515625 0.04882812 C13.21619895 0.06056844 16.08072883 0.07699055 18.9453125 0.09765625 C18.9453125 0.42765625 18.9453125 0.75765625 18.9453125 1.09765625 C11.6853125 1.42765625 4.4253125 1.75765625 -3.0546875 2.09765625 C-0.7446875 2.42765625 1.5653125 2.75765625 3.9453125 3.09765625 C0.43278442 5.43934164 -0.54946665 5.23471794 -4.6171875 4.78515625 C-5.58785156 4.68589844 -6.55851562 4.58664062 -7.55859375 4.484375 C-10.0546875 4.09765625 -10.0546875 4.09765625 -12.0546875 3.09765625 C-12.0546875 2.43765625 -12.0546875 1.77765625 -12.0546875 1.09765625 C-7.9794241 0.3298915 -4.14463303 -0.02136409 0 0 Z " fill="#31568B" transform="translate(291.0546875,779.90234375)"/>
<path d="M0 0 C-1 2 -1 2 -2.85546875 2.6328125 C-7.31497489 3.5740148 -11.41164496 4.23530026 -16 4 C-16.33 4.66 -16.66 5.32 -17 6 C-17 5.34 -17 4.68 -17 4 C-17.99 3.67 -18.98 3.34 -20 3 C-13.94869261 -1.03420492 -6.98194609 -1.51781437 0 0 Z " fill="#0F3777" transform="translate(1019,628)"/>
<path d="M0 0 C1.423125 0.495 1.423125 0.495 2.875 1 C5.77062452 2.10159191 5.77062452 2.10159191 8 2 C8 2.66 8 3.32 8 4 C10.475 4.99 10.475 4.99 13 6 C13.33 5.34 13.66 4.68 14 4 C14.99 5.65 15.98 7.3 17 9 C11.53135543 7.98408579 6.23609987 6.92908943 1 5 C0.67 3.35 0.34 1.7 0 0 Z " fill="#2160AA" transform="translate(1197,453)"/>
<path d="M0 0 C0.99 0.33 1.98 0.66 3 1 C3.33 1.99 3.66 2.98 4 4 C4.99 4.33 5.98 4.66 7 5 C8.6875 7.0625 8.6875 7.0625 10 9 C9.67 9.66 9.34 10.32 9 11 C9.99 11.33 10.98 11.66 12 12 C12.33 12.99 12.66 13.98 13 15 C12.01 15.495 12.01 15.495 11 16 C5.86400547 11.00667198 1.95649838 7.01078585 0 0 Z " fill="#1E60AB" transform="translate(1069,259)"/>
<path d="M0 0 C1.65 0.33 3.3 0.66 5 1 C5.33 1.99 5.66 2.98 6 4 C7.423125 4.1546875 7.423125 4.1546875 8.875 4.3125 C12 5 12 5 14 8 C12.24871182 7.71617054 10.49899997 7.42260471 8.75 7.125 C7.28820313 6.88136719 7.28820313 6.88136719 5.796875 6.6328125 C3.22735883 6.05144152 1.27928944 5.29159735 -1 4 C-0.67 2.68 -0.34 1.36 0 0 Z " fill="#2064B0" transform="translate(1025,229)"/>
<path d="M0 0 C4.85967024 2.50346649 8.27856704 6.08552441 12 10 C11.01 10.33 10.02 10.66 9 11 C9 11.66 9 12.32 9 13 C8.34 13 7.68 13 7 13 C6.4121875 11.2984375 6.4121875 11.2984375 5.8125 9.5625 C4.41389118 5.79660949 4.41389118 5.79660949 1.3125 5.0625 C0.1678125 5.0315625 0.1678125 5.0315625 -1 5 C-0.67 3.35 -0.34 1.7 0 0 Z " fill="#163F82" transform="translate(841,643)"/>
<path d="M0 0 C1 2 1 2 1 4 C1.66 4.33 2.32 4.66 3 5 C2.38722388 7.96175123 1.74627478 9.38058783 0 12 C-0.33 12 -0.66 12 -1 12 C-1 15.3 -1 18.6 -1 22 C-3.73946515 19.26053485 -3.29930796 17.63379385 -3.3125 13.8125 C-3.24647615 8.3985439 -2.6268006 4.70635108 0 0 Z " fill="#113C7E" transform="translate(1084,642)"/>
<path d="M0 0 C2.475 0.99 2.475 0.99 5 2 C5 3.32 5 4.64 5 6 C3.21189234 6.69670416 1.41937948 7.38211189 -0.375 8.0625 C-1.37273437 8.44535156 -2.37046875 8.82820312 -3.3984375 9.22265625 C-6 10 -6 10 -8 9 C-7.195625 8.773125 -6.39125 8.54625 -5.5625 8.3125 C-4.716875 7.879375 -3.87125 7.44625 -3 7 C-2.10613836 4.45224694 -2.10613836 4.45224694 -2 2 C-1.34 2 -0.68 2 0 2 C0 1.34 0 0.68 0 0 Z " fill="#0B3478" transform="translate(275,577)"/>
<path d="M0 0 C-0.66 0.66 -1.32 1.32 -2 2 C-2.99 3.485 -2.99 3.485 -4 5 C-4 4.34 -4 3.68 -4 3 C-4.53625 3.33 -5.0725 3.66 -5.625 4 C-8.5391061 5.22699204 -10.86867708 5.14233286 -14 5 C-10.69595986 0.91853865 -5.12984719 -2.25713276 0 0 Z M-7 5 C-6.01 5.33 -5.02 5.66 -4 6 C-4.99 6.33 -5.98 6.66 -7 7 C-7 6.34 -7 5.68 -7 5 Z " fill="#134790" transform="translate(1121,614)"/>
<path d="M0 0 C5.87519154 -0.20982827 11.54786133 0.18273172 17.375 0.875 C18.07689453 0.95347168 18.77878906 1.03194336 19.50195312 1.11279297 C23.02433732 1.55606885 24.9930672 1.99537814 28 4 C23.38 4 18.76 4 14 4 C14 3.67 14 3.34 14 3 C9.38 2.34 4.76 1.68 0 1 C0 0.67 0 0.34 0 0 Z " fill="#2065B3" transform="translate(1154,447)"/>
<path d="M0 0 C-3.3 0.66 -6.6 1.32 -10 2 C-10 2.66 -10 3.32 -10 4 C-12.31 4.33 -14.62 4.66 -17 5 C-17.33 4.01 -17.66 3.02 -18 2 C-12.29081186 -0.19584159 -5.93657478 -1.97885826 0 0 Z " fill="#DAE4EC" transform="translate(1022,624)"/>
<path d="M0 0 C0.33 0.66 0.66 1.32 1 2 C0.34 2.433125 -0.32 2.86625 -1 3.3125 C-1.66 3.869375 -2.32 4.42625 -3 5 C-3 5.99 -3 6.98 -3 8 C-3.66 8 -4.32 8 -5 8 C-5.66 9.32 -6.32 10.64 -7 12 C-7.66 12 -8.32 12 -9 12 C-9.99 12.495 -9.99 12.495 -11 13 C-9.56179563 7.72658399 -5.9961885 4.50608991 -2 1 C-1.34 0.67 -0.68 0.34 0 0 Z " fill="#154C91" transform="translate(1130,513)"/>
<path d="M0 0 C0.66 0.66 1.32 1.32 2 2 C1.38125 2.5775 0.7625 3.155 0.125 3.75 C-2.0691654 5.81426992 -2.0691654 5.81426992 -2.9375 8.1875 C-4 10 -4 10 -6.625 10.75 C-7.40875 10.8325 -8.1925 10.915 -9 11 C-8.60167969 10.54109375 -8.20335937 10.0821875 -7.79296875 9.609375 C-5.08857938 6.47728415 -2.42008229 3.36122541 0 0 Z M-10 11 C-10 11.99 -10 12.98 -10 14 C-10.99 14 -11.98 14 -13 14 C-12.01 13.01 -11.02 12.02 -10 11 Z " fill="#0B418C" transform="translate(579,758)"/>
<path d="M0 0 C0.66 0 1.32 0 2 0 C2 1.32 2 2.64 2 4 C2.66 4.33 3.32 4.66 4 5 C3.67 6.32 3.34 7.64 3 9 C4.32 9.33 5.64 9.66 7 10 C6.67 10.99 6.34 11.98 6 13 C5.01 13 4.02 13 3 13 C0.33409063 8.44573816 -0.31563182 5.26053037 0 0 Z " fill="#1F61AD" transform="translate(1277,521)"/>
<path d="M0 0 C4.67248931 2.82522609 7.65996398 5.67760044 11 10 C10.01 10 9.02 10 8 10 C6.66666667 8.66666667 5.33333333 7.33333333 4 6 C3.01 6 2.02 6 1 6 C0.67 4.02 0.34 2.04 0 0 Z " fill="#1C4281" transform="translate(889,690)"/>
<path d="M0 0 C0 0.99 0 1.98 0 3 C-3.57644848 4.2380014 -6.33694766 3.74926071 -10 3 C-9.67 2.01 -9.34 1.02 -9 0 C-5.8033 -1.37001429 -3.30096158 -0.8252404 0 0 Z " fill="#DCE7F0" transform="translate(1002,625)"/>
<path d="M0 0 C0.99 0 1.98 0 3 0 C4.17353189 3.52059568 4.20146402 6.306493 4 10 C3.34 10.66 2.68 11.32 2 12 C0.86235649 7.73383684 0 4.43513689 0 0 Z " fill="#DFE6EE" transform="translate(447,549)"/>
<path d="M0 0 C2.64 0 5.28 0 8 0 C8.33 0.99 8.66 1.98 9 3 C10.65 3.33 12.3 3.66 14 4 C14 4.66 14 5.32 14 6 C12.41375765 5.57316761 10.8310902 5.13303842 9.25 4.6875 C8.36828125 4.44386719 7.4865625 4.20023438 6.578125 3.94921875 C3.94227495 2.97874669 2.14592674 1.78994356 0 0 Z " fill="#E7EFF5" transform="translate(1099,707)"/>
<path d="M0 0 C2.1519437 3.22791555 2.20086443 4.28400809 2 8 C2.99 8.33 3.98 8.66 5 9 C5.8125 10.9375 5.8125 10.9375 6 13 C5.34 13.66 4.68 14.32 4 15 C-0.59225513 5.77448747 -0.59225513 5.77448747 0 0 Z M3 0 C3 3 3 3 3 3 Z " fill="#12458C" transform="translate(1113,556)"/>
<path d="M0 0 C1.43836751 0.11458693 2.87570966 0.24209116 4.3125 0.375 C5.51326172 0.47941406 5.51326172 0.47941406 6.73828125 0.5859375 C9 1 9 1 12 3 C10 5 10 5 7.5 5.25 C5 5 5 5 3 3 C2.67 2.34 2.34 1.68 2 1 C1.34 0.67 0.68 0.34 0 0 Z " fill="#0B3578" transform="translate(1117,715)"/>
<path d="M0 0 C0.99 0.66 1.98 1.32 3 2 C2.54917531 3.46067199 2.08906463 4.91848032 1.625 6.375 C1.36976562 7.18710937 1.11453125 7.99921875 0.8515625 8.8359375 C0 11 0 11 -2 13 C-3.18771723 9.57056481 -2.80226223 7.62215325 -1.5625 4.25 C-1.27503906 3.45078125 -0.98757813 2.6515625 -0.69140625 1.828125 C-0.46324219 1.22484375 -0.23507812 0.6215625 0 0 Z " fill="#E9EEF3" transform="translate(1196,559)"/>
<path d="M0 0 C3.63 0.33 7.26 0.66 11 1 C11 1.33 11 1.66 11 2 C9.35 2 7.7 2 6 2 C6 2.99 6 3.98 6 5 C3.625 5.1875 3.625 5.1875 1 5 C0.34 4.01 -0.32 3.02 -1 2 C-0.67 1.34 -0.34 0.68 0 0 Z " fill="#1C5FAC" transform="translate(1146,506)"/>
<path d="M0 0 C1.2065625 0.0309375 1.2065625 0.0309375 2.4375 0.0625 C2.7675 1.7125 3.0975 3.3625 3.4375 5.0625 C1.4575 5.3925 -0.5225 5.7225 -2.5625 6.0625 C-2.94468767 4.40635343 -3.27645102 2.73792976 -3.5625 1.0625 C-2.5625 0.0625 -2.5625 0.0625 0 0 Z " fill="#2265B1" transform="translate(1187.5625,447.9375)"/>
<path d="M0 0 C1.5 1.375 1.5 1.375 3 3 C3 3.66 3 4.32 3 5 C1.824375 5.3403125 1.824375 5.3403125 0.625 5.6875 C-2.21875 6.78125 -2.21875 6.78125 -3.3125 9.625 C-3.539375 10.40875 -3.76625 11.1925 -4 12 C-4.33 11.34 -4.66 10.68 -5 10 C-4.00390625 7.6171875 -4.00390625 7.6171875 -2.5625 4.875 C-1.85287109 3.50988281 -1.85287109 3.50988281 -1.12890625 2.1171875 C-0.75636719 1.41851563 -0.38382813 0.71984375 0 0 Z " fill="#15498F" transform="translate(1278,636)"/>
<path d="M0 0 C-0.33 0.66 -0.66 1.32 -1 2 C-3.3140622 2.73075648 -5.64828869 3.40138258 -8 4 C-8 3.34 -8 2.68 -8 2 C-9.32 1.34 -10.64 0.68 -12 0 C-7.74433453 -1.16063604 -4.3164922 -0.76173392 0 0 Z " fill="#194180" transform="translate(1019,628)"/>
<path d="M0 0 C1.57554035 2.88628401 2.46276373 5.53342384 3.125 8.75 C3.29257812 9.54921875 3.46015625 10.3484375 3.6328125 11.171875 C3.81457031 12.07679688 3.81457031 12.07679688 4 13 C3.34 13 2.68 13 2 13 C2 12.01 2 11.02 2 10 C1.34 10 0.68 10 0 10 C-1.36952673 7.26094655 -1.12621361 5.02912668 -1 2 C-0.67 1.34 -0.34 0.68 0 0 Z " fill="#0A2C6B" transform="translate(446,549)"/>
<path d="M0 0 C1.98 0 3.96 0 6 0 C6.66 1.32 7.32 2.64 8 4 C6.02 4.33 4.04 4.66 2 5 C2 4.34 2 3.68 2 3 C1.34 3 0.68 3 0 3 C0 2.01 0 1.02 0 0 Z " fill="#2467B3" transform="translate(1014,227)"/>
<path d="M0 0 C0.99 0.33 1.98 0.66 3 1 C3 1.66 3 2.32 3 3 C5.31 3.33 7.62 3.66 10 4 C9.01 4.66 8.02 5.32 7 6 C3.1444775 5.11644276 0.52771621 4.08943092 -2 1 C-1.34 0.67 -0.68 0.34 0 0 Z " fill="#E1E6EC" transform="translate(266,771)"/>
<path d="M0 0 C4.85963179 0.60745397 8.7405518 2.72758967 13 5 C9.06329512 6.31223496 6.87511856 5.24296256 3 4 C3 3.34 3 2.68 3 2 C2.01 1.67 1.02 1.34 0 1 C0 0.67 0 0.34 0 0 Z " fill="#133574" transform="translate(1092,705)"/>
<path d="M0 0 C0.33 0 0.66 0 1 0 C1.13277344 0.90363281 1.26554688 1.80726563 1.40234375 2.73828125 C1.66724609 4.50751953 1.66724609 4.50751953 1.9375 6.3125 C2.11152344 7.48425781 2.28554687 8.65601563 2.46484375 9.86328125 C2.92093031 13.01641403 2.92093031 13.01641403 4 16 C3.01 16.33 2.02 16.66 1 17 C0.00749455 11.29309366 -0.10477512 5.78591511 0 0 Z " fill="#0F3A7A" transform="translate(237,721)"/>
<path d="M0 0 C1 2 1 2 0.00390625 5.2578125 C-0.46889984 6.5497052 -0.94971969 7.83868638 -1.4375 9.125 C-1.68048828 9.78371094 -1.92347656 10.44242188 -2.17382812 11.12109375 C-2.77578321 12.74991338 -3.38702412 14.37529575 -4 16 C-5.07310858 12.72814447 -4.89263102 10.57052408 -4.0625 7.25 C-3.77052734 6.05117188 -3.77052734 6.05117188 -3.47265625 4.828125 C-3.31667969 4.22484375 -3.16070312 3.6215625 -3 3 C-2.34 3 -1.68 3 -1 3 C-0.67 2.01 -0.34 1.02 0 0 Z " fill="#0E2A66" transform="translate(245,608)"/>
<path d="M0 0 C0 0.99 0 1.98 0 3 C-3 5 -3 5 -6.1875 4.625 C-7.115625 4.41875 -8.04375 4.2125 -9 4 C-6.10130984 1.70103884 -3.84906588 0 0 0 Z " fill="#E6ECF1" transform="translate(276,584)"/>
<path d="M0 0 C0.33 0.66 0.66 1.32 1 2 C3.01669827 3.13350534 3.01669827 3.13350534 5 4 C2.36 4.33 -0.28 4.66 -3 5 C-3 4.34 -3 3.68 -3 3 C-4.65 2.67 -6.3 2.34 -8 2 C-8 1.67 -8 1.34 -8 1 C-5.36 0.67 -2.72 0.34 0 0 Z " fill="#1B5FAD" transform="translate(1166,507)"/>
<path d="M0 0 C4.13621084 3.3810038 7.81316569 6.66590534 11 11 C9.68 11 8.36 11 7 11 C5.5 8.75 5.5 8.75 4 6 C3.278125 5.278125 2.55625 4.55625 1.8125 3.8125 C1.214375 3.214375 0.61625 2.61625 0 2 C0 1.34 0 0.68 0 0 Z " fill="#032568" transform="translate(1055,676)"/>
<path d="M0 0 C3 3 3 3 3.375 6.5625 C3.25125 7.696875 3.1275 8.83125 3 10 C2.01 10.66 1.02 11.32 0 12 C0 8.04 0 4.08 0 0 Z " fill="#11448D" transform="translate(946,647)"/>
<path d="M0 0 C0.44730469 0.34933594 0.89460938 0.69867187 1.35546875 1.05859375 C4.85023956 3.68898628 7.51278557 5.59207142 12 6 C12 6.33 12 6.66 12 7 C8.94928825 7.287803 6.03939738 7.4472872 3 7 C0.89638304 4.5776532 0 3.21754366 0 0 Z " fill="#0B2460" transform="translate(313,832)"/>
<path d="M0 0 C0.99 0.66 1.98 1.32 3 2 C2.01 2.33 1.02 2.66 0 3 C-0.309375 3.639375 -0.61875 4.27875 -0.9375 4.9375 C-2.24625707 7.47802844 -3.45466064 7.85331176 -6 9 C-5.18914873 7.68648079 -4.37626942 6.37421332 -3.5625 5.0625 C-3.11003906 4.33160156 -2.65757812 3.60070312 -2.19140625 2.84765625 C-1 1 -1 1 0 0 Z " fill="#082D6F" transform="translate(381,782)"/>
<path d="M0 0 C1 3 1 3 0 5.6875 C-2 8 -2 8 -5.6875 8.3125 C-6.780625 8.209375 -7.87375 8.10625 -9 8 C-8.01 7.34 -7.02 6.68 -6 6 C-2.46321928 3.45954713 -2.46321928 3.45954713 0 0 Z " fill="#09347A" transform="translate(944,719)"/>
<path d="M0 0 C3.96 0.33 7.92 0.66 12 1 C12 1.33 12 1.66 12 2 C8.37 2.33 4.74 2.66 1 3 C0.67 2.01 0.34 1.02 0 0 Z " fill="#0F438A" transform="translate(514,229)"/>
<path d="M0 0 C2.64 0.33 5.28 0.66 8 1 C8.66 2.65 9.32 4.3 10 6 C5.56909529 4.79157144 3.01887244 3.48331435 0 0 Z " fill="#1E64B4" transform="translate(1217,463)"/>
<path d="M0 0 C0.33 0.66 0.66 1.32 1 2 C1.99 2.33 2.98 2.66 4 3 C4 6.3 4 9.6 4 13 C1.99706653 9.99559979 1.50728374 8.29006055 0.875 4.8125 C0.70742187 3.91144531 0.53984375 3.01039063 0.3671875 2.08203125 C0.24601562 1.39496094 0.12484375 0.70789063 0 0 Z " fill="#175399" transform="translate(1087,291)"/>
<path d="M0 0 C0.66 0 1.32 0 2 0 C2 1.65 2 3.3 2 5 C1.360625 5.28875 0.72125 5.5775 0.0625 5.875 C-2.15206079 6.82823451 -2.15206079 6.82823451 -3 9 C-3.66 8.67 -4.32 8.34 -5 8 C-4.21718695 6.66144944 -3.42348123 5.32926356 -2.625 4 C-2.18414062 3.2575 -1.74328125 2.515 -1.2890625 1.75 C-0.86367188 1.1725 -0.43828125 0.595 0 0 Z " fill="#E7EEF4" transform="translate(463,267)"/>
<path d="M0 0 C1.32 0 2.64 0 4 0 C4 0.66 4 1.32 4 2 C4.7425 1.649375 5.485 1.29875 6.25 0.9375 C9.1322726 -0.04509293 10.21176345 -0.0326802 13 1 C11 3 11 3 7.0625 3.3125 C4.23844574 3.25612142 3.30817716 3.23113287 1 1.5 C0.67 1.005 0.34 0.51 0 0 Z " fill="#E3E6E8" transform="translate(317,833)"/>
<path d="M0 0 C0.515625 0.37125 1.03125 0.7425 1.5625 1.125 C-2.26070557 2.54758812 -5.35031305 3.36542276 -9.4375 3.125 C-9.4375 2.465 -9.4375 1.805 -9.4375 1.125 C-3.0375 -1.09038462 -3.0375 -1.09038462 0 0 Z " fill="#E6EBEE" transform="translate(557.4375,773.875)"/>
<path d="M0 0 C0 3.55955169 -0.89341295 4.27899173 -3 7 C-3 7.66 -3 8.32 -3 9 C-4.65 9 -6.3 9 -8 9 C-7.04270084 7.87411986 -6.08412105 6.7493285 -5.125 5.625 C-4.59132813 4.99851562 -4.05765625 4.37203125 -3.5078125 3.7265625 C-2.38567993 2.44163349 -1.20628025 1.20628025 0 0 Z " fill="#1656A5" transform="translate(1251,679)"/>
<path d="M0 0 C0.598125 0.78375 1.19625 1.5675 1.8125 2.375 C3.91085249 5.14574323 3.91085249 5.14574323 7 7 C7 7.66 7 8.32 7 9 C4.625 8.75 4.625 8.75 2 8 C-0.09862498 5.10189884 0 3.71621139 0 0 Z " fill="#E8EFF4" transform="translate(1081,662)"/>
<path d="M0 0 C3.3 0 6.6 0 10 0 C9.01 1.485 9.01 1.485 8 3 C5.5625 3.375 5.5625 3.375 3 3 C2.01 2.01 1.02 1.02 0 0 Z " fill="#2269B7" transform="translate(1045,240)"/>
<path d="M0 0 C0.33 0.99 0.66 1.98 1 3 C0.67 3.66 0.34 4.32 0 5 C-0.66 5 -1.32 5 -2 5 C-2 5.66 -2 6.32 -2 7 C-3.32 6.67 -4.64 6.34 -6 6 C-4.02 4.02 -2.04 2.04 0 0 Z " fill="#052564" transform="translate(339,825)"/>
<path d="M0 0 C2.51083114 1.25541557 2.87125446 2.50063488 4 5 C2.02 5.33 0.04 5.66 -2 6 C-1.34 4.02 -0.68 2.04 0 0 Z " fill="#12458A" transform="translate(1116,714)"/>
<path d="M0 0 C2.30019361 3.45029042 2.43132515 4.94554358 2 9 C1.01 9.66 0.02 10.32 -1 11 C-0.67 7.37 -0.34 3.74 0 0 Z " fill="#0F468F" transform="translate(1287,601)"/>
<path d="M0 0 C-5.17578125 3.22265625 -5.17578125 3.22265625 -7 4 C-7.99 3.67 -8.98 3.34 -10 3 C-9.34 3 -8.68 3 -8 3 C-8 2.01 -8 1.02 -8 0 C-2.25 -1.125 -2.25 -1.125 0 0 Z " fill="#0E4187" transform="translate(1178,587)"/>
<path d="M0 0 C-1 1.5 -1 1.5 -3 3 C-5.71846235 3.27345479 -8.25677199 3.13491285 -11 3 C-10 1 -10 1 -6.625 -0.1875 C-3 -1 -3 -1 0 0 Z " fill="#10397A" transform="translate(1202,712)"/>
<path d="M0 0 C1.98 0.66 3.96 1.32 6 2 C5.01 2.495 5.01 2.495 4 3 C3.67 3.99 3.34 4.98 3 6 C2.67 5.01 2.34 4.02 2 3 C1.01 3 0.02 3 -1 3 C-0.67 2.01 -0.34 1.02 0 0 Z " fill="#0D3D80" transform="translate(1079,698)"/>
<path d="M0 0 C1.98 0 3.96 0 6 0 C4.71937515 1.7074998 3.38232443 3.37373596 2 5 C1.34 5 0.68 5 0 5 C0 3.35 0 1.7 0 0 Z " fill="#1C4281" transform="translate(253,593)"/>
<path d="M0 0 C0 2.83967231 -0.40267181 5.23735711 -1 8 C-1.66 7.34 -2.32 6.68 -3 6 C-2.75 3.4375 -2.75 3.4375 -2 1 C-1.34 0.67 -0.68 0.34 0 0 Z M0 3 C2 4 2 4 2 4 Z " fill="#0C4087" transform="translate(558,776)"/>
<path d="M0 0 C0 0.66 0 1.32 0 2 C-4.625 4.125 -4.625 4.125 -8 3 C-4.93882432 0.37613513 -4.26826873 0 0 0 Z " fill="#10438B" transform="translate(1231,697)"/>
<path d="M0 0 C1.98 0 3.96 0 6 0 C4.515 2.475 4.515 2.475 3 5 C1.68 4.34 0.36 3.68 -1 3 C-0.34 2.67 0.32 2.34 1 2 C0.67 1.34 0.34 0.68 0 0 Z " fill="#093F86" transform="translate(282,576)"/>
<path d="M0 0 C3.3 0.99 6.6 1.98 10 3 C6 4 6 4 3 4 C3 3.34 3 2.68 3 2 C2.01 1.67 1.02 1.34 0 1 C0 0.67 0 0.34 0 0 Z " fill="#0A2B6C" transform="translate(1106,711)"/>
<path d="M0 0 C0 0.99 0 1.98 0 3 C-2.97 2.67 -5.94 2.34 -9 2 C-5.5647952 -0.29013653 -4.014669 -0.17842973 0 0 Z " fill="#E5EBED" transform="translate(1186,713)"/>
<path d="M0 0 C1.65 0.99 3.3 1.98 5 3 C4.34 4.32 3.68 5.64 3 7 C0 3.375 0 3.375 0 0 Z " fill="#ECF1F4" transform="translate(1044,659)"/>
<path d="M0 0 C1.65 0 3.3 0 5 0 C5 0.66 5 1.32 5 2 C4.360625 2.12375 3.72125 2.2475 3.0625 2.375 C2.381875 2.58125 1.70125 2.7875 1 3 C0.67 3.66 0.34 4.32 0 5 C-0.66 5 -1.32 5 -2 5 C-1.34 3.35 -0.68 1.7 0 0 Z " fill="#0F428B" transform="translate(1087,636)"/>
<path d="M0 0 C0.66 0.33 1.32 0.66 2 1 C0.515 4.465 0.515 4.465 -1 8 C-1.33 8 -1.66 8 -2 8 C-2.125 5.125 -2.125 5.125 -2 2 C-1.34 1.34 -0.68 0.68 0 0 Z " fill="#0E438D" transform="translate(948,632)"/>
<path d="M0 0 C0.99 0.33 1.98 0.66 3 1 C3 1.66 3 2.32 3 3 C1.125 4.0625 1.125 4.0625 -1 5 C-1.66 4.67 -2.32 4.34 -3 4 C-3 3.34 -3 2.68 -3 2 C-2.01 1.34 -1.02 0.68 0 0 Z " fill="#ECEFF2" transform="translate(1105,615)"/>
<path d="M0 0 C0.66 0.33 1.32 0.66 2 1 C1.71872579 2.48117801 1.42466268 3.95993249 1.125 5.4375 C0.96257812 6.26121094 0.80015625 7.08492187 0.6328125 7.93359375 C0.42398437 8.61550781 0.21515625 9.29742188 0 10 C-0.99 10.495 -0.99 10.495 -2 11 C-1.85892253 9.54119891 -1.71197585 8.08296449 -1.5625 6.625 C-1.48128906 5.81289063 -1.40007812 5.00078125 -1.31640625 4.1640625 C-1 2 -1 2 0 0 Z " fill="#2263AE" transform="translate(1284,534)"/>
</svg>
