<?xml version="1.0" encoding="iso-8859-1"?>
<!-- Uploaded to: SVG Repo, www.svgrepo.com, Generator: SVG Repo Mixer Tools -->
<svg height="800px" width="800px" version="1.1" id="Layer_1" xmlns="http://www.w3.org/2000/svg" xmlns:xlink="http://www.w3.org/1999/xlink" 
	 viewBox="0 0 512 512" xml:space="preserve">
<path style="fill:#4CDBC4;" d="M436.734,321.557l-47.908-24.049c-14.287,1.493-28.782,1.293-43.168-0.601
	c-9.274-1.22-15.537-10.117-13.548-19.265c11.457-52.675-30.914-96.111-82.183-114.647c-9.562-3.458-13.506-14.851-8.157-23.478
	c25.826-41.65,78.525-62.324,128.049-62.324C446.825,77.193,512,125.088,512,187.845c0,32.738-17.839,62.929-49.264,83.911
	l-2.873,36.748C458.975,319.892,446.817,326.619,436.734,321.557z"/>
<path style="fill:#5AC2AD;" d="M375.682,77.294v221.089c4.395-0.14,8.78-0.418,13.143-0.875l47.908,24.049
	c10.082,5.062,22.24-1.665,23.13-13.053l2.873-36.748C494.161,250.774,512,220.583,512,187.845
	C512,126.688,450.102,79.653,375.682,77.294z"/>
<path style="fill:#FFD15C;" d="M58.653,417.254l4.759-49.376C22.973,341.076,0,302.524,0,260.802
	c0-79.953,83.837-141.216,182.955-141.216c111.311,0,199.579,76.795,180.425,164.859c-16.419,75.76-108.703,127.193-206.995,116.099
	l-75.405,32.911C69.854,438.31,57.477,429.44,58.653,417.254z"/>
<path style="fill:#F8B64C;" d="M183.002,119.587v282.454c87.833,0.033,165.452-48.727,180.378-117.596
	C382.53,196.394,294.29,119.609,183.002,119.587z"/>
</svg>