<?xml version="1.0" encoding="UTF-8"?>
<svg version="1.1" xmlns="http://www.w3.org/2000/svg" width="676" height="680">
<path d="M0 0 C7.52969652 -0.02526648 15.0593822 -0.04283141 22.58911133 -0.05493164 C25.15291757 -0.0599737 27.71672091 -0.06680714 30.28051758 -0.07543945 C33.95655021 -0.08751064 37.63254498 -0.09322942 41.30859375 -0.09765625 C43.03981728 -0.10539818 43.03981728 -0.10539818 44.80601501 -0.11329651 C45.86703934 -0.11337204 46.92806366 -0.11344757 48.02124023 -0.11352539 C48.96055893 -0.115746 49.89987762 -0.11796661 50.86766052 -0.12025452 C53 0 53 0 54 1 C55.65564871 1.22809727 57.31943246 1.39747865 58.984375 1.54296875 C82.42285344 3.76263571 105.34479841 7.91608477 127.74414062 15.26318359 C129.98470243 15.99500346 132.23293814 16.69697909 134.484375 17.39453125 C162.21546095 26.13126528 188.61172917 39.76451654 213.3203125 54.9765625 C215.0250441 56.04730808 215.0250441 56.04730808 217 57 C217.89138672 57.90298828 217.89138672 57.90298828 218.80078125 58.82421875 C221.11960662 61.11833195 223.52732084 62.92772659 226.1875 64.8125 C231.22234575 68.43254081 236.17467444 72.10439481 241 76 C241.93328125 76.74636719 242.8665625 77.49273437 243.828125 78.26171875 C252.11365754 85.0491054 259.72819157 92.51331956 267.3125 100.0625 C267.82410675 100.56893036 268.3357135 101.07536072 268.86282349 101.59713745 C275.71378364 108.39343167 282.00298013 115.42375744 288 123 C289.04808661 124.27825586 290.09855095 125.55456923 291.15234375 126.828125 C297.5624322 134.66939672 303.43699707 142.71715667 308.88574219 151.25488281 C309.90512392 152.85140793 310.94006766 154.43796911 311.9765625 156.0234375 C322.80595556 173.00285625 331.60320304 191.29418871 339 210 C339.3722168 210.93440918 339.74443359 211.86881836 340.12792969 212.83154297 C372.22770728 294.50399499 369.49614536 390.9753859 334.58666992 471.34692383 C329.99065727 481.54614571 324.55387517 491.2980743 319 501 C318.5978125 501.70882324 318.195625 502.41764648 317.78125 503.14794922 C305.88023449 524.0212147 290.97620647 545.62550574 273.6796875 562.32421875 C271.85622107 564.14344456 270.17981721 566.04767911 268.5 568 C263.44794674 573.83967849 258.00410991 579.09315501 252.15234375 584.125 C249.81007371 586.16545303 247.53422558 588.2698577 245.25 590.375 C239.7724822 595.30393483 233.96806215 599.68823516 228 604 C227.38801758 604.44714355 226.77603516 604.89428711 226.14550781 605.35498047 C173.64075129 643.64901045 108.8963805 669.90741447 43.1484375 670.203125 C42.13190094 670.20882507 41.11536438 670.21452515 40.06802368 670.22039795 C37.92166158 670.22979337 35.77528542 670.23636004 33.62890625 670.24023438 C30.43201543 670.24982889 27.23579997 670.28085892 24.0390625 670.3125 C4.23670377 670.41577711 -14.98509962 668.2385891 -34.3125 663.9375 C-36.68333272 663.42457325 -39.054423 662.91283537 -41.42578125 662.40234375 C-42.53002441 662.16241699 -43.63426758 661.92249023 -44.77197266 661.67529297 C-48.76132108 660.84073407 -52.76486433 660.1188506 -56.78198242 659.43188477 C-60.06996215 658.79166065 -63.04320952 657.58494659 -66.125 656.3125 C-69.8823143 654.79232406 -73.66475473 653.4254057 -77.5065918 652.13452148 C-103.34452599 643.37459961 -128.4764289 631.39782751 -151 616 C-152.17442936 615.20695749 -153.34890633 614.41398547 -154.5234375 613.62109375 C-166.97829768 605.11569636 -178.70414611 595.97470139 -190 586 C-190.96421875 585.14921875 -191.9284375 584.2984375 -192.921875 583.421875 C-205.80087618 571.82365847 -218.38351102 559.72518465 -229 546 C-229.92248149 544.87489057 -230.84850971 543.75268332 -231.77734375 542.6328125 C-239.13304342 533.70977929 -245.61837742 524.37178489 -251.86181641 514.64135742 C-253.03323153 512.84801353 -253.03323153 512.84801353 -255 511 C-256.7864601 508.0125076 -258.38257077 504.92079937 -260.01367188 501.84619141 C-261.0844599 499.84190946 -262.17487621 497.84895329 -263.265625 495.85546875 C-285.42723189 455.01605958 -298.49533711 410.33412626 -302 364 C-302.05784668 363.25427734 -302.11569336 362.50855469 -302.17529297 361.74023438 C-306.07629696 309.00143864 -300.81436185 249.99834793 -277 202 C-276.23156903 200.32870562 -275.46765732 198.65532965 -274.70703125 196.98046875 C-260.62409235 166.26645334 -241.90795619 137.84790923 -219 113 C-217.56204629 111.37540147 -216.1245546 109.7503939 -214.6875 108.125 C-211.07225605 104.11373992 -207.35490055 100.21795074 -203.5625 96.375 C-203.04196045 95.84148926 -202.5214209 95.30797852 -201.98510742 94.75830078 C-200.695581 93.46558614 -199.35183569 92.22740776 -198 91 C-197.34 91 -196.68 91 -196 91 C-195.938125 90.401875 -195.87625 89.80375 -195.8125 89.1875 C-194.6745186 86.12370393 -192.78082778 85.63125705 -190 84 C-188.72050326 82.90866454 -187.47149979 81.78088203 -186.25 80.625 C-154.8877428 52.24215723 -116.61045664 32.06707581 -77 18 C-76.11199707 17.68337402 -75.22399414 17.36674805 -74.30908203 17.04052734 C-71.87710048 16.18029462 -69.44055664 15.3355594 -67 14.5 C-66.30124756 14.25677002 -65.60249512 14.01354004 -64.88256836 13.76293945 C-60.25592785 12.22072595 -55.85546167 11.4768757 -51 11 C-51 10.01 -51 9.02 -51 8 C-50.16819214 8.27614136 -50.16819214 8.27614136 -49.31958008 8.55786133 C-46.5272134 9.09011857 -44.65481125 8.70309124 -41.88671875 8.07421875 C-40.89285156 7.85531982 -39.89898437 7.6364209 -38.875 7.41088867 C-37.823125 7.17217041 -36.77125 6.93345215 -35.6875 6.6875 C-11.91046247 1.51385867 -11.91046247 1.51385867 0 2 C0 1.34 0 0.68 0 0 Z M174.77920532 165.11978149 C170.50578955 167.01762485 166.22311529 168.89439799 161.94140625 170.7734375 C161.00989243 171.18271988 160.0783786 171.59200226 159.11863708 172.01368713 C146.55122346 177.52685247 133.92967448 182.91450058 121.3125 188.3125 C119.00764032 189.29905025 116.70278988 190.2856221 114.39794922 191.2722168 C109.884126 193.20412981 105.3699873 195.13530366 100.85571289 197.06616211 C94.94225283 199.5959792 89.03071573 202.13026224 83.11953735 204.66540527 C71.68748161 209.56802466 60.24896431 214.45474168 48.79736328 219.31152344 C35.35329337 225.01405671 21.91937667 230.73960624 8.5 236.5 C-4.83269673 242.22316354 -18.18143442 247.90778971 -31.53717041 253.57696533 C-43.49336066 258.65258401 -55.43907502 263.7519138 -67.375 268.875 C-78.14309795 273.49633659 -88.91996376 278.09535967 -99.71508789 282.65332031 C-106.39885827 285.47571332 -113.07961041 288.30508319 -119.7578125 291.140625 C-120.61819626 291.50585266 -121.47858002 291.87108032 -122.36503601 292.24737549 C-126.76145255 294.11431655 -131.15648754 295.98441135 -135.54907227 297.86035156 C-142.68592404 300.90645646 -149.81948721 303.94956203 -157.01953125 306.84375 C-158.48169067 307.44002197 -158.48169067 307.44002197 -159.97338867 308.04833984 C-161.65587947 308.73149834 -163.34433506 309.40028581 -165.0402832 310.04931641 C-170.30877486 312.20848608 -173.95539085 315.12045192 -177 320 C-178.0005836 323.58700042 -178.0005836 323.58700042 -177 327 C-172.77808859 331.15100908 -168.736603 333.22032227 -163.1875 335.125 C-162.52685547 335.36347656 -161.86621094 335.60195313 -161.18554688 335.84765625 C-157.07987827 337.31822487 -152.94162071 338.68923478 -148.80249023 340.06201172 C-142.82632868 342.0622219 -136.86749494 344.11399029 -130.90530396 346.15539551 C-128.3993454 347.01305839 -125.89294587 347.86942266 -123.38647461 348.72558594 C-115.12687752 351.54861871 -106.87315065 354.3868286 -98.6328125 357.265625 C-96.46497912 358.02037989 -94.29698534 358.77467211 -92.12893677 359.52880859 C-90.7635975 360.00531529 -89.39905627 360.48411549 -88.03536987 360.96533203 C-86.14145312 361.63359023 -84.24460828 362.2935322 -82.34765625 362.953125 C-81.28554932 363.32598633 -80.22344238 363.69884766 -79.12915039 364.08300781 C-72.05959826 366.15472801 -67.44969577 366.39821066 -61 363 C-57.85279177 360.99099317 -54.89737569 358.77358525 -51.9375 356.5 C-50.25535712 355.23417725 -48.57306371 353.96855452 -46.890625 352.703125 C-45.65022461 351.76243164 -45.65022461 351.76243164 -44.38476562 350.80273438 C-41.01003028 348.25164451 -37.6022333 345.74715966 -34.1875 343.25 C-33.58292969 342.80664307 -32.97835937 342.36328613 -32.35546875 341.90649414 C-26.51189788 337.62715127 -20.61868424 333.41839152 -14.71630859 329.22070312 C-6.45496309 323.34492396 1.78449155 317.43971321 10 311.5 C12.99951305 309.33265842 15.99946694 307.16592925 19 305 C19.88824463 304.35877197 19.88824463 304.35877197 20.79443359 303.70458984 C29.56662855 297.38105125 38.4368045 291.20217863 47.32104492 285.03735352 C53.23640237 280.93077231 59.12892388 276.79457283 65 272.625 C70.78061512 268.5231576 76.63265194 264.55022111 82.54882812 260.64697266 C86.76640505 257.85355627 90.89860309 254.96093541 95 252 C105.63145456 244.34008858 116.56287516 237.17697998 127.72216797 230.31054688 C130.31756988 228.70869208 132.83313785 227.13496637 135.20703125 225.21484375 C137 224 137 224 141 224 C140.50017051 228.53071245 138.97762864 230.592798 135.875 233.875 C135.19026611 234.6031189 135.19026611 234.6031189 134.49169922 235.34594727 C126.02166961 244.24935786 117.22524505 252.85461695 108.50439453 261.51147461 C105.9976054 264.00237943 103.49839542 266.50067732 101 269 C49 321 49 321 46.55935669 323.43965149 C43.63351405 326.36662797 40.71085971 329.29676782 37.78857422 332.22729492 C31.69234219 338.33983031 25.59359324 344.44984798 19.49339104 350.55842113 C15.80791126 354.24913848 12.12338025 357.94079319 8.44091797 361.63452148 C4.87120337 365.21508357 1.29906695 368.79321283 -2.27477646 372.3696537 C-3.63523283 373.73195835 -4.99480845 375.09514315 -6.35348892 376.45921898 C-8.24913458 378.36210146 -10.14786407 380.26185398 -12.04736328 382.16088867 C-12.60846802 382.72558868 -13.16957275 383.2902887 -13.74768066 383.87210083 C-16.07477628 386.19302767 -18.25497491 388.16998328 -21 390 C-21 390.66 -21 391.32 -21 392 C-21.9590625 392.4021875 -21.9590625 392.4021875 -22.9375 392.8125 C-25.33131686 393.88667752 -25.33131686 393.88667752 -26 397 C-26.66 397 -27.32 397 -28 397 C-30.49151832 402.18616571 -31.58761584 406.62176713 -32.09765625 412.328125 C-32.17745224 413.11660828 -32.25724823 413.90509155 -32.33946228 414.71746826 C-32.59110734 417.22739627 -32.82719765 419.7384927 -33.0625 422.25 C-33.22355524 423.88812481 -33.38565725 425.52614707 -33.54882812 427.1640625 C-33.87476997 430.44601389 -34.19420085 433.72851042 -34.50976562 437.01147461 C-35.07868799 442.87754692 -35.70753203 448.73720713 -36.35450745 454.59515381 C-38.23038324 465.96329566 -38.23038324 465.96329566 -35.3515625 476.34765625 C-33.07391578 478.16165626 -33.07391578 478.16165626 -30.2109375 478.6796875 C-25.35544498 477.65188251 -22.94364348 474.66534826 -19.625 471.125 C-18.98433594 470.47402344 -18.34367188 469.82304687 -17.68359375 469.15234375 C-14.24183291 466.08065947 -14.24183291 466.08065947 -13 462 C-12.46375 461.79375 -11.9275 461.5875 -11.375 461.375 C-8.08021991 459.46749574 -5.40636372 456.95180616 -3 454 C-3 453.34 -3 452.68 -3 452 C-2.01 451.67 -1.02 451.34 0 451 C1.51031015 449.510147 1.51031015 449.510147 3 447.625 C6.09078022 444.0092465 9.26427131 440.48974104 12.5625 437.0625 C13.89474609 435.65677734 13.89474609 435.65677734 15.25390625 434.22265625 C18.33237112 431.7309827 20.07503257 431.13404943 24 431 C29.61681301 433.42293895 33.92128004 437.3460289 38.5859375 441.24609375 C42.7257139 444.64131511 47.05390425 447.77872969 51.375 450.9375 C56.79656715 454.90200781 62.19420867 458.88156606 67.5 463 C80.41311354 472.99988894 93.68440984 482.53387582 106.94140625 492.0703125 C109.46036909 493.88377745 111.96961772 495.70870333 114.46484375 497.5546875 C115.44582031 498.27914063 116.42679687 499.00359375 117.4375 499.75 C118.26121094 500.36359375 119.08492188 500.9771875 119.93359375 501.609375 C123.94217964 504.30702448 128.29962533 504.88832769 133 504 C138.06715697 501.28079299 140.37641334 497.87593174 142.26489258 492.4609375 C143.80746445 487.29683106 144.85189651 482.02545336 145.9375 476.75 C146.23175172 475.34328801 146.5262788 473.93663359 146.82104492 472.5300293 C149.38483277 460.22835635 151.81892864 447.90041743 154.26879883 435.57568359 C164.30634283 385.08384401 175.59643295 334.91156384 187.13812256 284.74633789 C187.90453103 281.41497668 188.67042002 278.08349673 189.43603516 274.75195312 C191.5911333 265.37624605 193.75456419 256.00250677 195.92724609 246.63085938 C196.91758536 242.35818996 197.90423061 238.08467192 198.89071655 233.81111145 C199.7700438 230.00374926 200.65114302 226.1967989 201.53283691 222.38998413 C201.96535346 220.52194895 202.39740961 218.6538071 202.82897949 216.78555298 C204.794552 208.28242697 206.76523822 199.78591847 208.96484375 191.33984375 C209.25012939 190.242771 209.53541504 189.14569824 209.8293457 188.01538086 C210.33199753 186.11042453 210.84598907 184.20839199 211.37573242 182.31079102 C213.20531983 175.42004094 214.49848078 167.78563565 211.8125 161 C208.95582662 157.84780868 206.56799117 156.21878947 202.3125 155.625 C192.5597187 156.72908845 183.65584537 161.17573702 174.77920532 165.11978149 Z " fill="#14B276" transform="translate(308,3)"/>
<path d="M0 0 C6.04797776 -0.32824845 11.13706718 0.84935184 16.9375 2.5 C17.89261475 2.76772217 18.84772949 3.03544434 19.83178711 3.3112793 C54.78391918 13.27853094 87.37429388 27.92438733 118.3203125 46.9765625 C120.0250441 48.04730808 120.0250441 48.04730808 122 49 C122.59425781 49.60199219 123.18851563 50.20398437 123.80078125 50.82421875 C126.11960662 53.11833195 128.52732084 54.92772659 131.1875 56.8125 C136.22234575 60.43254081 141.17467444 64.10439481 146 68 C147.39992188 69.11955078 147.39992188 69.11955078 148.828125 70.26171875 C157.11365754 77.0491054 164.72819157 84.51331956 172.3125 92.0625 C172.82410675 92.56893036 173.3357135 93.07536072 173.86282349 93.59713745 C180.71378364 100.39343167 187.00298013 107.42375744 193 115 C194.04808661 116.27825586 195.09855095 117.55456923 196.15234375 118.828125 C202.5624322 126.66939672 208.43699707 134.71715667 213.88574219 143.25488281 C214.90512392 144.85140793 215.94006766 146.43796911 216.9765625 148.0234375 C227.80595556 165.00285625 236.60320304 183.29418871 244 202 C244.5583252 203.40161377 244.5583252 203.40161377 245.12792969 204.83154297 C264.67102871 254.55565126 271.05760318 308.9959722 265 362 C264.67 362 264.34 362 264 362 C264.00523682 360.73744385 264.01047363 359.4748877 264.01586914 358.17407227 C264.06871658 344.11581151 264.06619296 330.05821633 264 316 C263.99718018 315.27816528 263.99436035 314.55633057 263.99145508 313.81262207 C263.64051673 239.48482753 233.90788119 161.73082953 183.16015625 107.3359375 C181.30538553 105.33023607 179.51566095 103.28978709 177.73046875 101.22265625 C168.39811146 90.52868254 158.16484598 80.75082523 147 72 C145.76279594 70.9773714 144.52863666 69.95105251 143.296875 68.921875 C134.56140929 61.64855045 125.61245128 55.06417757 116 49 C114.89914062 48.30261719 113.79828125 47.60523438 112.6640625 46.88671875 C109.46216776 44.89038002 106.23655233 42.93955158 103 41 C102.030625 40.40058594 101.06125 39.80117188 100.0625 39.18359375 C69.34586229 20.79200692 34.69023928 9.18775834 0 1 C0 0.67 0 0.34 0 0 Z " fill="#14864D" transform="translate(403,11)"/>
<path d="M0 0 C2.04111472 3.06167208 2.93016037 5.55117268 4.03125 9.046875 C4.4245752 10.27325684 4.81790039 11.49963867 5.22314453 12.76318359 C5.43086487 13.41341492 5.63858521 14.06364624 5.8526001 14.73358154 C10.39801246 28.89091049 15.66746003 42.53197755 22 56 C22.34772461 56.74378906 22.69544922 57.48757813 23.05371094 58.25390625 C32.48037132 78.22922952 44.34386806 96.6730998 58 114 C59.03833984 115.33224609 59.03833984 115.33224609 60.09765625 116.69140625 C64.82203827 122.69315598 69.83937073 128.3717409 75 134 C75.87914063 134.97195313 76.75828125 135.94390625 77.6640625 136.9453125 C85.97641123 146.1189301 94.47980936 155.06138942 104 163 C104.53302734 163.44682129 105.06605469 163.89364258 105.61523438 164.35400391 C123.67815821 179.44386812 142.59919169 192.25082463 163 204 C163.73879395 204.42684082 164.47758789 204.85368164 165.23876953 205.29345703 C176.06046509 211.48230868 187.48836564 216.25991526 199 221 C199.74443359 221.30744141 200.48886719 221.61488281 201.25585938 221.93164062 C208.4228592 224.87962662 215.60697256 227.66535976 223 230 C218.95147284 231.67243943 215.69132323 230.18751915 211.8125 228.75 C211.08200439 228.48477539 210.35150879 228.21955078 209.59887695 227.94628906 C185.21358331 218.86171944 161.49493903 207.694622 140 193 C138.82557064 192.20695749 137.65109367 191.41398547 136.4765625 190.62109375 C124.02170232 182.11569636 112.29585389 172.97470139 101 163 C100.03578125 162.14921875 99.0715625 161.2984375 98.078125 160.421875 C85.19912382 148.82365847 72.61648898 136.72518465 62 123 C61.07751851 121.87489057 60.15149029 120.75268332 59.22265625 119.6328125 C51.86695658 110.70977929 45.38162258 101.37178489 39.13818359 91.64135742 C37.96676847 89.84801353 37.96676847 89.84801353 36 88 C34.2135399 85.0125076 32.61742923 81.92079937 30.98632812 78.84619141 C29.9155401 76.84190946 28.82512379 74.84895329 27.734375 72.85546875 C18.30331699 55.47591505 10.66451469 37.60695073 4.375 18.875 C4.04145508 17.88927505 4.04145508 17.88927505 3.70117188 16.88363647 C3.06979068 15.00636701 2.45259039 13.12434639 1.8359375 11.2421875 C1.48063965 10.1579248 1.1253418 9.07366211 0.75927734 7.95654297 C0.04009249 5.15611578 -0.15626461 2.87327396 0 0 Z " fill="#148046" transform="translate(17,426)"/>
<path d="M0 0 C2.45036915 1.65777344 4.54205267 3.2577577 6.75 5.1875 C8.06218411 6.28604945 9.37743836 7.38093935 10.6953125 8.47265625 C11.38915039 9.04902832 12.08298828 9.62540039 12.79785156 10.21923828 C16.63851229 13.32497879 20.63280615 16.21836783 24.625 19.125 C29.96426807 23.02583753 35.27604689 26.94578703 40.5 31 C53.41311354 40.99988894 66.68440984 50.53387582 79.94140625 60.0703125 C82.46036909 61.88377745 84.96961772 63.70870333 87.46484375 65.5546875 C88.44582031 66.27914062 89.42679688 67.00359375 90.4375 67.75 C91.26121094 68.36359375 92.08492187 68.9771875 92.93359375 69.609375 C97.07343887 72.39535773 101.18343569 72.25197318 106 72 C108.35529281 71.58268982 108.35529281 71.58268982 110 71 C108 74 108 74 104.375 74.875 C98.1966926 75.85848567 92.59161621 72.59005319 87.73046875 69.13671875 C86.20906012 67.99637197 84.69503343 66.84612762 83.1875 65.6875 C81.51323392 64.42680029 79.83874828 63.16639214 78.1640625 61.90625 C77.31231445 61.26042969 76.46056641 60.61460937 75.58300781 59.94921875 C71.43891026 56.8219527 67.24863359 53.7581153 63.0625 50.6875 C54.41520044 44.31859325 45.80211309 37.9086824 37.26953125 31.38671875 C26.21380906 22.9376721 15.09737428 14.58482799 3.86499023 6.37182617 C2 5 2 5 0.07446289 3.32543945 C-2.56589113 1.6384344 -3.90413133 1.64433997 -7 2 C-9.15399209 3.4260235 -9.15399209 3.4260235 -11.08422852 5.50073242 C-12.23550987 6.64773872 -12.23550987 6.64773872 -13.41004944 7.81791687 C-14.22477219 8.65530899 -15.03949493 9.49270111 -15.87890625 10.35546875 C-16.72799057 11.20925613 -17.57707489 12.06304352 -18.45188904 12.94270325 C-21.16730648 15.67949664 -23.86462464 18.43342391 -26.5625 21.1875 C-28.38367018 23.02517479 -30.20592352 24.86177684 -32.02929688 26.69726562 C-41.43585913 35.97107912 -41.43585913 35.97107912 -50 46 C-51.8125 47.875 -51.8125 47.875 -54 49 C-58.02853967 48.92806179 -60.22690903 48.63067947 -63.375 46.0625 C-67.05385342 41.39318605 -66.31872901 36.33566394 -65.7734375 30.62890625 C-65.53893652 28.74954836 -65.27261222 26.874209 -65 25 C-64.67 25 -64.34 25 -64 25 C-63.96261719 26.26457031 -63.92523438 27.52914063 -63.88671875 28.83203125 C-63.82106167 30.4922173 -63.75461424 32.15237222 -63.6875 33.8125 C-63.66494141 34.64587891 -63.64238281 35.47925781 -63.61914062 36.33789062 C-63.58369141 37.14033203 -63.54824219 37.94277344 -63.51171875 38.76953125 C-63.47244263 39.87711792 -63.47244263 39.87711792 -63.43237305 41.00708008 C-62.88581564 43.52630544 -62.02003309 44.43540566 -60 46 C-57.1537377 46.76759664 -57.1537377 46.76759664 -54 46 C-51.49847987 44.22611265 -49.50315045 42.06792753 -47.4375 39.8125 C-46.88642578 39.23435547 -46.33535156 38.65621094 -45.76757812 38.06054688 C-44.67992887 36.91870869 -43.59824104 35.7711587 -42.52294922 34.61767578 C-41.13946699 33.14814175 -39.71436804 31.7180677 -38.28515625 30.29296875 C-36.41743151 28.41885863 -34.68781345 26.53304802 -33 24.5 C-30.49696341 21.48497866 -27.78458364 18.75762363 -25 16 C-23.69309898 14.68319563 -22.38719031 13.36540595 -21.08203125 12.046875 C-19.65890475 10.61453307 -18.23572657 9.18224249 -16.8125 7.75 C-16.08869141 7.0178125 -15.36488281 6.285625 -14.61914062 5.53125 C-13.92626953 4.83515625 -13.23339844 4.1390625 -12.51953125 3.421875 C-11.57750854 2.47199707 -11.57750854 2.47199707 -10.61645508 1.50292969 C-7.09934855 -1.76716664 -4.53951035 -1.06015314 0 0 Z " fill="#13874B" transform="translate(335,434)"/>
<path d="M0 0 C0 3 0 3 -1.6875 5.015625 C-2.8321875 6.12164063 -2.8321875 6.12164063 -4 7.25 C-4.82628906 8.04921875 -5.65257812 8.8484375 -6.50390625 9.671875 C-9.25922816 12.24178401 -12.05583411 14.74528009 -14.91796875 17.1953125 C-17.24048767 19.20845273 -19.4901895 21.29179351 -21.75 23.375 C-27.2275178 28.30393483 -33.03193785 32.68823516 -39 37 C-39.61198242 37.44714355 -40.22396484 37.89428711 -40.85449219 38.35498047 C-78.22502906 65.61095791 -119.41903116 85.12016822 -164.5 95.6875 C-166.05521362 96.05343262 -166.05521362 96.05343262 -167.6418457 96.42675781 C-173.55863833 97.72452756 -178.94458222 98.23145708 -185 98 C-182.02748189 96.3527975 -179.39690384 95.56705121 -176.0546875 94.9921875 C-175.07395264 94.81478027 -174.09321777 94.63737305 -173.08276367 94.45458984 C-172.02420166 94.2633252 -170.96563965 94.07206055 -169.875 93.875 C-142.53642562 88.62208679 -114.49378419 79.59315441 -90.2109375 65.8125 C-86.9491953 63.97132192 -83.63129309 62.35940266 -80.25 60.75 C-56.23685202 48.78394313 -34.39804935 31.77097734 -14.80078125 13.58203125 C-12.39888867 11.36773419 -9.96875076 9.20147329 -7.5 7.0625 C-4.8927774 4.80290708 -2.39149106 2.49113652 0 0 Z " fill="#15854A" transform="translate(575,570)"/>
<path d="M0 0 C0.7425 0.226875 1.485 0.45375 2.25 0.6875 C1.80491959 5.73174468 -0.35980925 8.13193409 -3.75 11.6875 C-4.41 11.6875 -5.07 11.6875 -5.75 11.6875 C-5.42 10.6975 -5.09 9.7075 -4.75 8.6875 C-4.09 8.6875 -3.43 8.6875 -2.75 8.6875 C-2.440625 8.06875 -2.13125 7.45 -1.8125 6.8125 C-1.125 5.4375 -0.4375 4.0625 0.25 2.6875 C-2.79171063 3.30775715 -5.01265176 4.29424114 -7.62890625 5.953125 C-8.74845703 6.65973267 -8.74845703 6.65973267 -9.890625 7.38061523 C-10.68984375 7.89438721 -11.4890625 8.40815918 -12.3125 8.9375 C-13.57126953 9.74006226 -13.57126953 9.74006226 -14.85546875 10.55883789 C-23.13532721 15.87200453 -31.24741683 21.42086879 -39.33544922 27.02001953 C-42.65951191 29.3156058 -45.99619814 31.59251411 -49.33276367 33.86987305 C-55.6469196 38.17981132 -61.94991107 42.50259277 -68.19921875 46.90625 C-70.21517431 48.31402295 -72.23853095 49.70792883 -74.26953125 51.09375 C-82.25222349 56.54312666 -90.14212533 62.1004861 -97.96459961 67.77758789 C-103.05590901 71.47068369 -108.17074065 75.12747784 -113.3125 78.75 C-114.00327637 79.23670166 -114.69405273 79.72340332 -115.40576172 80.22485352 C-118.27469771 82.24461389 -121.14505706 84.26234506 -124.015625 86.27978516 C-126.28193908 87.87304635 -128.5472295 89.46775556 -130.8125 91.0625 C-131.49062744 91.53824463 -132.16875488 92.01398926 -132.86743164 92.50415039 C-137.56302497 95.81034364 -142.17313703 99.21895953 -146.75 102.6875 C-147.41 102.3575 -148.07 102.0275 -148.75 101.6875 C-141.5522905 95.42791893 -133.97365325 90.02191229 -126.07495117 84.69848633 C-120.85287811 81.16511028 -115.76129187 77.513141 -110.75 73.6875 C-104.27465505 68.7544852 -97.63358872 64.11580144 -90.89550781 59.54956055 C-85.55178566 55.92764421 -80.26025025 52.24198912 -75 48.5 C-69.13700042 44.33404172 -63.20548304 40.29567267 -57.20214844 36.33520508 C-52.98432377 33.54142822 -48.85172778 30.64867428 -44.75 27.6875 C-34.11854544 20.02758858 -23.18712484 12.86447998 -12.02783203 5.99804688 C-9.41463894 4.38521156 -6.87684401 2.78767424 -4.46484375 0.8828125 C-2.75 -0.3125 -2.75 -0.3125 0 0 Z " fill="#148C50" transform="translate(447.75,226.3125)"/>
<path d="M0 0 C0 3.80185812 -0.92506342 4.3062202 -3.5 7 C-21.84142012 27.06691957 -36.52680094 52.41759888 -48 77 C-48.38655762 77.82677246 -48.77311523 78.65354492 -49.17138672 79.50537109 C-56.32000081 94.96804171 -61.87368959 110.7679337 -67 127 C-67.33 127 -67.66 127 -68 127 C-67.40867278 120.44932312 -65.8403443 114.5585412 -63.8125 108.3125 C-63.49571289 107.3320874 -63.17892578 106.3516748 -62.85253906 105.34155273 C-60.4069342 97.92930952 -57.46889395 90.99162883 -54 84 C-53.23156903 82.32870562 -52.46765732 80.65532965 -51.70703125 78.98046875 C-38.96381294 51.18830077 -22.24399812 21.48794094 0 0 Z " fill="#15844A" transform="translate(85,121)"/>
<path d="M0 0 C-0.81452637 0.29132812 -1.62905273 0.58265625 -2.46826172 0.8828125 C-44.35914591 15.9160202 -84.00074432 34.7312058 -117.8125 64.26953125 C-120 66 -120 66 -122 66 C-122 65.34 -122 64.68 -122 64 C-118.88748311 61.08201541 -115.39119117 58.58610236 -112 56 C-111.38930664 55.53174805 -110.77861328 55.06349609 -110.14941406 54.58105469 C-80.39999133 31.81925248 -48.33808061 14.44578336 -13 2 C-12.15791992 1.68675781 -11.31583984 1.37351562 -10.44824219 1.05078125 C-9.26343262 0.62345703 -9.26343262 0.62345703 -8.0546875 0.1875 C-7.36616699 -0.06644531 -6.67764648 -0.32039063 -5.96826172 -0.58203125 C-3.66328104 -1.0715037 -2.21678127 -0.7288048 0 0 Z " fill="#15874D" transform="translate(244,19)"/>
<path d="M0 0 C17.49 0 34.98 0 53 0 C53 1.33333333 53 2.66666667 53 4 C51.03716064 4.03758423 51.03716064 4.03758423 49.03466797 4.07592773 C44.06569601 4.1718444 39.09680598 4.27157374 34.12792969 4.37231445 C31.99871773 4.41498179 29.86948621 4.45668621 27.74023438 4.49731445 C13.14635539 4.77663964 -1.42189138 5.26341237 -16 6 C-16 5.67 -16 5.34 -16 5 C-14.865625 4.87625 -13.73125 4.7525 -12.5625 4.625 C-10.7990625 4.315625 -10.7990625 4.315625 -9 4 C-8.67 3.34 -8.34 2.68 -8 2 C-5.36 2 -2.72 2 0 2 C0 1.34 0 0.68 0 0 Z " fill="#18BB7E" transform="translate(308,3)"/>
<path d="M0 0 C2.33651784 1.60078226 3.66741369 2.68862053 5.25 5.0625 C6.27450713 10.69728919 6.65403566 15.7304376 3.75 20.8125 C3.71261719 19.93207031 3.67523437 19.05164063 3.63671875 18.14453125 C3.57097656 16.98308594 3.50523437 15.82164062 3.4375 14.625 C3.37949219 13.47644531 3.32148437 12.32789063 3.26171875 11.14453125 C2.7150598 7.58498862 1.94806289 5.6443293 -0.25 2.8125 C-3.95660432 0.25805081 -7.00360672 0.67704231 -11.3125 1.18359375 C-15.92324504 2.17073464 -20.14586065 3.988068 -24.46484375 5.8515625 C-27.25 6.8125 -27.25 6.8125 -30.25 5.8125 C-9.46405223 -5.37653146 -9.46405223 -5.37653146 0 0 Z " fill="#158F54" transform="translate(517.25,159.1875)"/>
<path d="M0 0 C4.71940925 1.73016455 8.43029185 5.50137481 12.15234375 8.7890625 C11.16234375 9.1190625 10.17234375 9.4490625 9.15234375 9.7890625 C6.7643276 8.14786039 4.68021987 6.26628706 2.50390625 4.35546875 C-0.32769638 2.46930155 -1.50326297 2.36676067 -4.84765625 2.7890625 C-7.07344925 4.32815984 -7.07344925 4.32815984 -9.0546875 6.5078125 C-9.80556641 7.27480469 -10.55644531 8.04179687 -11.33007812 8.83203125 C-12.09900391 9.64285156 -12.86792969 10.45367187 -13.66015625 11.2890625 C-14.44841797 12.09988281 -15.23667969 12.91070312 -16.04882812 13.74609375 C-17.99346798 15.74966209 -19.9255069 17.76394652 -21.84765625 19.7890625 C-22.83765625 19.4590625 -23.82765625 19.1290625 -24.84765625 18.7890625 C-21.89337565 15.80585327 -18.93356262 12.82819447 -15.97265625 9.8515625 C-15.13089844 9.00142578 -14.28914063 8.15128906 -13.421875 7.27539062 C-12.61621094 6.46650391 -11.81054688 5.65761719 -10.98046875 4.82421875 C-10.23684082 4.075354 -9.49321289 3.32648926 -8.72705078 2.55493164 C-5.84145488 -0.15635897 -3.9439244 -0.58366746 0 0 Z " fill="#169559" transform="translate(332.84765625,433.2109375)"/>
<path d="M0 0 C0.33 0 0.66 0 1 0 C1.25107609 7.83626765 0.56694432 15.16637706 -0.8125 22.875 C-0.99409668 23.91986572 -1.17569336 24.96473145 -1.36279297 26.04125977 C-4.41736677 43.33036238 -4.41736677 43.33036238 -6 48 C-6.99 48.495 -6.99 48.495 -8 49 C-6.9458639 41.06297521 -5.70405864 33.21275674 -4.18310547 25.3515625 C-2.57375856 16.93657029 -1.29775115 8.46759615 0 0 Z " fill="#14884C" transform="translate(666,375)"/>
<path d="M0 0 C0.66 0.33 1.32 0.66 2 1 C0.50341097 2.52419005 -0.99748805 4.04414831 -2.5 5.5625 C-3.75296875 6.83287109 -3.75296875 6.83287109 -5.03125 8.12890625 C-7.21958057 10.29628309 -9.5033776 12.31076025 -11.84375 14.3125 C-16.19792469 18.08635836 -20.10110299 22.20142204 -24 26.4375 C-24.67933594 27.16904297 -25.35867187 27.90058594 -26.05859375 28.65429688 C-27.70933758 30.43291523 -29.35637533 32.21480532 -31 34 C-31 29.90260692 -28.87141353 28.30833931 -26.1875 25.5 C-25.69773682 24.97825195 -25.20797363 24.45650391 -24.70336914 23.91894531 C-23.14577051 22.26922663 -21.57506389 20.6330417 -20 19 C-19.48244141 18.46052734 -18.96488281 17.92105469 -18.43164062 17.36523438 C-11.99145555 10.68017534 -11.99145555 10.68017534 -9 8 C-8.34 8 -7.68 8 -7 8 C-6.9071875 7.1028125 -6.9071875 7.1028125 -6.8125 6.1875 C-5.67402342 3.12237075 -3.82352481 2.48235053 -1 1 C-0.67 0.67 -0.34 0.34 0 0 Z " fill="#178B50" transform="translate(119,86)"/>
<path d="M0 0 C0.66 0.33 1.32 0.66 2 1 C-6.84070058 7.90220809 -15.81828843 14.55843821 -25 21 C-25.91652344 21.65871094 -26.83304688 22.31742187 -27.77734375 22.99609375 C-28.57269531 23.55425781 -29.36804688 24.11242187 -30.1875 24.6875 C-30.86167969 25.16574219 -31.53585938 25.64398438 -32.23046875 26.13671875 C-34 27 -34 27 -37 26 C-35.59814453 25.05253906 -35.59814453 25.05253906 -34.16796875 24.0859375 C-25.33962279 18.08430092 -16.68131803 11.8890332 -8.12182617 5.50927734 C-7.35201416 4.9364502 -6.58220215 4.36362305 -5.7890625 3.7734375 C-4.76353271 3.00652588 -4.76353271 3.00652588 -3.71728516 2.22412109 C-2 1 -2 1 0 0 Z " fill="#138D51" transform="translate(279,342)"/>
<path d="M0 0 C4.15852493 -0.02515393 8.31700684 -0.04306897 12.47558594 -0.05493164 C13.88347141 -0.05988898 15.29135194 -0.06665686 16.69921875 -0.07543945 C26.18916799 -0.133057 35.53817205 0.17606112 45 1 C45 1.33 45 1.66 45 2 C39.10799549 2.85481391 33.41741829 3.1344851 27.46875 3.09765625 C26.15396667 3.09553383 26.15396667 3.09553383 24.81262207 3.09336853 C22.04171179 3.08781768 19.27088543 3.07527461 16.5 3.0625 C14.60937618 3.05747864 12.71875107 3.05291685 10.828125 3.04882812 C6.21871817 3.0378644 1.60937327 3.02063425 -3 3 C-2.01 2.67 -1.02 2.34 0 2 C0 1.34 0 0.68 0 0 Z " fill="#138049" transform="translate(308,3)"/>
<path d="M0 0 C0.33 0 0.66 0 1 0 C1.19224376 3.9504953 1.37096681 7.90134584 1.53710938 11.85302734 C1.59555475 13.19759566 1.65771076 14.54200798 1.72363281 15.88623047 C1.81767443 17.81693337 1.89732692 19.7483203 1.9765625 21.6796875 C2.02893066 22.84226074 2.08129883 24.00483398 2.13525391 25.20263672 C2 28 2 28 0 30 C-0.55228066 32.02429322 -0.55228066 32.02429322 -0.8515625 34.3515625 C-0.98046875 35.20234375 -1.109375 36.053125 -1.2421875 36.9296875 C-1.36851562 37.81914062 -1.49484375 38.70859375 -1.625 39.625 C-1.82609375 40.97078125 -1.82609375 40.97078125 -2.03125 42.34375 C-2.3615559 44.56151817 -2.6841425 46.78013575 -3 49 C-3.33 49 -3.66 49 -4 49 C-3.55091417 40.9873633 -2.93626235 33.03282192 -2 25.0625 C-1.02180611 16.72078018 -0.43415765 8.38609773 0 0 Z " fill="#19BB7D" transform="translate(666,350)"/>
<path d="M0 0 C0.33 0 0.66 0 1 0 C1.32501573 7.06481571 0.10508069 13.48181522 -1.375 20.375 C-1.59671875 21.46683594 -1.8184375 22.55867188 -2.046875 23.68359375 C-3.74508193 31.74508193 -3.74508193 31.74508193 -6 34 C-6.38465895 27.18463243 -4.94593706 20.83790678 -3.5625 14.1875 C-3.33240234 13.04345703 -3.10230469 11.89941406 -2.86523438 10.72070312 C-1.14532343 2.29064685 -1.14532343 2.29064685 0 0 Z " fill="#14874A" transform="translate(467,413)"/>
<path d="M0 0 C0 0.33 0 0.66 0 1 C-1.15786011 1.17390259 -1.15786011 1.17390259 -2.33911133 1.35131836 C-5.83066121 1.87729828 -9.32158098 2.40734992 -12.8125 2.9375 C-14.02744141 3.11990234 -15.24238281 3.30230469 -16.49414062 3.49023438 C-17.65751953 3.66748047 -18.82089844 3.84472656 -20.01953125 4.02734375 C-21.09307861 4.18968506 -22.16662598 4.35202637 -23.27270508 4.51928711 C-26.08117472 4.94553006 -26.08117472 4.94553006 -29 6 C-31.33299825 6.03954234 -33.66708189 6.04401732 -36 6 C-35.67 5.34 -35.34 4.68 -35 4 C-32.85791016 3.40576172 -32.85791016 3.40576172 -30.0390625 2.9296875 C-29.00910156 2.75566406 -27.97914063 2.58164063 -26.91796875 2.40234375 C-25.83128906 2.22832031 -24.74460937 2.05429688 -23.625 1.875 C-22.57699219 1.69324219 -21.52898437 1.51148438 -20.44921875 1.32421875 C-13.57324148 0.19380469 -6.9636882 -0.23391339 0 0 Z " fill="#13834A" transform="translate(304,6)"/>
<path d="M0 0 C0.33 0 0.66 0 1 0 C1.22102569 10.2531361 0.9679704 19.89658054 -1 30 C-1.33 30 -1.66 30 -2 30 C-2 21.75 -2 13.5 -2 5 C-1.34 5 -0.68 5 0 5 C0 3.35 0 1.7 0 0 Z " fill="#108247" transform="translate(273,428)"/>
<path d="M0 0 C0.33 0 0.66 0 1 0 C0.45161463 8.08868414 -0.56702819 18.16536421 -6.13671875 24.38671875 C-6.75160156 24.91910156 -7.36648438 25.45148438 -8 26 C-7.38890549 23.36537557 -6.64002192 21.10005479 -5.625 18.5625 C-3.75485279 13.72211898 -2.73003476 8.72505524 -1.6484375 3.66015625 C-1 1 -1 1 0 0 Z " fill="#158E53" transform="translate(454,479)"/>
<path d="M0 0 C0.33 0.66 0.66 1.32 1 2 C0.34644531 2.8353125 0.34644531 2.8353125 -0.3203125 3.6875 C-0.91585937 4.450625 -1.51140625 5.21375 -2.125 6 C-3.07826172 7.22009766 -3.07826172 7.22009766 -4.05078125 8.46484375 C-6.3470694 11.45139888 -8.55435824 14.49694733 -10.73828125 17.56640625 C-11.15464844 18.03949219 -11.57101562 18.51257813 -12 19 C-12.66 19 -13.32 19 -14 19 C-12.66895994 16.13909231 -11.16444643 13.77740198 -9.1796875 11.328125 C-8.37724609 10.33232422 -8.37724609 10.33232422 -7.55859375 9.31640625 C-7.00300781 8.63449219 -6.44742188 7.95257812 -5.875 7.25 C-5.03001953 6.20392578 -5.03001953 6.20392578 -4.16796875 5.13671875 C-2.78192264 3.42178035 -1.39252792 1.709676 0 0 Z " fill="#148549" transform="translate(601,539)"/>
<path d="M0 0 C0 0.99 0 1.98 0 3 C-2.08503535 4.58236634 -4.07627728 5.91919795 -6.3125 7.25 C-7.20485352 7.81460938 -7.20485352 7.81460938 -8.11523438 8.390625 C-9.69270568 9.34944555 -11.34436749 10.18352369 -13 11 C-13.99 10.67 -14.98 10.34 -16 10 C-13.70912072 8.51960151 -11.41734017 7.04063324 -9.125 5.5625 C-8.47402344 5.14162109 -7.82304687 4.72074219 -7.15234375 4.28710938 C-2.2265625 1.11328125 -2.2265625 1.11328125 0 0 Z " fill="#169055" transform="translate(167,51)"/>
<path d="M0 0 C0.33 0 0.66 0 1 0 C1.38838614 2.79040505 1.76120046 5.58137886 2.125 8.375 C2.23714844 9.1690625 2.34929688 9.963125 2.46484375 10.78125 C2.72721267 12.84521885 2.87150738 14.92339351 3 17 C2.34 17.66 1.68 18.32 1 19 C0.63752129 16.39674384 0.28472345 13.79279598 -0.0625 11.1875 C-0.2181543 10.08051758 -0.2181543 10.08051758 -0.37695312 8.95117188 C-0.82086566 5.56825221 -1.09314992 3.27944975 0 0 Z " fill="#178F56" transform="translate(664,276)"/>
<path d="M0 0 C0.33 0 0.66 0 1 0 C1.20674944 5.78898419 0.59162079 10.42932723 -1 16 C-1.66 15.67 -2.32 15.34 -3 15 C-2.69163768 12.87439563 -2.37818386 10.74952935 -2.0625 8.625 C-1.88847656 7.44164062 -1.71445312 6.25828125 -1.53515625 5.0390625 C-1 2 -1 2 0 0 Z " fill="#149053" transform="translate(467,413)"/>
<path d="M0 0 C0.33 0 0.66 0 1 0 C1 5.61 1 11.22 1 17 C0.67 17 0.34 17 0 17 C-0.66 13.04 -1.32 9.08 -2 5 C-1.34 5 -0.68 5 0 5 C0 3.35 0 1.7 0 0 Z " fill="#149758" transform="translate(273,428)"/>
<path d="M0 0 C1.65 0.33 3.3 0.66 5 1 C4.55491959 6.04424468 2.39019075 8.44443409 -1 12 C-1.66 12 -2.32 12 -3 12 C-2.67 11.01 -2.34 10.02 -2 9 C-1.34 9 -0.68 9 0 9 C1.4606285 6.35261084 2 5.10551666 2 2 C1.34 1.34 0.68 0.68 0 0 Z " fill="#17965A" transform="translate(445,226)"/>
<path d="M0 0 C4.85963179 0.60745397 8.7405518 2.72758967 13 5 C12.34 5.66 11.68 6.32 11 7 C7.37 5.02 3.74 3.04 0 1 C0 0.67 0 0.34 0 0 Z " fill="#168C50" transform="translate(171,627)"/>
<path d="M0 0 C0.33 0 0.66 0 1 0 C0.88541307 1.43836751 0.75790884 2.87570966 0.625 4.3125 C0.55539062 5.11300781 0.48578125 5.91351563 0.4140625 6.73828125 C0 9 0 9 -2 12 C-2.17835515 7.45194365 -1.99785435 4.1205746 0 0 Z " fill="#138649" transform="translate(454,479)"/>
<path d="M0 0 C0.66 0.66 1.32 1.32 2 2 C-0.97 4.475 -0.97 4.475 -4 7 C-5.32 6.34 -6.64 5.68 -8 5 C-7.236875 4.731875 -6.47375 4.46375 -5.6875 4.1875 C-3.12619116 3.05575888 -1.80307062 2.08776599 0 0 Z " fill="#159558" transform="translate(285,476)"/>
<path d="M0 0 C0.66 0.99 1.32 1.98 2 3 C1.5390625 5.04296875 1.5390625 5.04296875 0.625 7.1875 C0.32851563 7.90292969 0.03203125 8.61835938 -0.2734375 9.35546875 C-0.51320313 9.89816406 -0.75296875 10.44085938 -1 11 C-1.66 10.67 -2.32 10.34 -3 10 C-2.05066101 6.64566891 -1.10251165 3.30753495 0 0 Z " fill="#168F57" transform="translate(27,214)"/>
<path d="M0 0 C3.99455527 0.61454696 6.74466336 2.70646737 10 5 C9.34 5.66 8.68 6.32 8 7 C6.66382648 6.02471263 5.3311249 5.04466681 4 4.0625 C3.2575 3.51722656 2.515 2.97195313 1.75 2.41015625 C1.1725 1.94480469 0.595 1.47945312 0 1 C0 0.67 0 0.34 0 0 Z " fill="#15884B" transform="translate(129,598)"/>
<path d="M0 0 C0.66 0 1.32 0 2 0 C0.71480435 2.86697492 -0.57129254 4.97607712 -3 7 C-3.66 7 -4.32 7 -5 7 C-4.67 6.01 -4.34 5.02 -4 4 C-3.34 4 -2.68 4 -2 4 C-1.34 2.68 -0.68 1.36 0 0 Z " fill="#169558" transform="translate(438,240)"/>
<path d="M0 0 C0.66 0.66 1.32 1.32 2 2 C1.01 1.67 0.02 1.34 -1 1 C-0.67 0.67 -0.34 0.34 0 0 Z " fill="#1DAC75" transform="translate(488,35)"/>
<path d="M0 0 C0.99 0.33 1.98 0.66 3 1 C2.01 1.33 1.02 1.66 0 2 C0 1.34 0 0.68 0 0 Z " fill="#1DAF77" transform="translate(191,35)"/>
<path d="M0 0 C2 1 2 1 2 1 Z " fill="#1CAA70" transform="translate(308,673)"/>
<path d="M0 0 C2 1 2 1 2 1 Z " fill="#1DAD71" transform="translate(290,671)"/>
<path d="" fill="#1FA96F" transform="translate(0,0)"/>
<path d="" fill="#1EA76D" transform="translate(0,0)"/>
<path d="" fill="#1FA870" transform="translate(0,0)"/>
<path d="" fill="#1FAB71" transform="translate(0,0)"/>
<path d="M0 0 C2 1 2 1 2 1 Z " fill="#1BB379" transform="translate(348,443)"/>
<path d="" fill="#1CB377" transform="translate(0,0)"/>
<path d="" fill="#20AD75" transform="translate(0,0)"/>
<path d="" fill="#1EAD75" transform="translate(0,0)"/>
<path d="" fill="#1EB579" transform="translate(0,0)"/>
<path d="" fill="#21AA72" transform="translate(0,0)"/>
<path d="M0 0 C2 1 2 1 2 1 Z " fill="#1BAC73" transform="translate(463,27)"/>
<path d="M0 0 C2 1 2 1 2 1 Z " fill="#1EAF77" transform="translate(210,27)"/>
<path d="M0 0 C2 1 2 1 2 1 Z " fill="#1FAD75" transform="translate(228,20)"/>
<path d="M0 0 C2 1 2 1 2 1 Z " fill="#1EAF77" transform="translate(231,19)"/>
<path d="" fill="#1FAC74" transform="translate(0,0)"/>
<path d="" fill="#1EAA73" transform="translate(0,0)"/>
<path d="" fill="#1DAA73" transform="translate(0,0)"/>
<path d="" fill="#1BA771" transform="translate(0,0)"/>
<path d="" fill="#1DAC74" transform="translate(0,0)"/>
<path d="" fill="#1EAB71" transform="translate(0,0)"/>
<path d="" fill="#1DAD6F" transform="translate(0,0)"/>
<path d="" fill="#1FAF72" transform="translate(0,0)"/>
<path d="" fill="#1BAB72" transform="translate(0,0)"/>
<path d="" fill="#1CAB71" transform="translate(0,0)"/>
<path d="" fill="#235136" transform="translate(0,0)"/>
<path d="" fill="#215F3E" transform="translate(0,0)"/>
<path d="" fill="#216745" transform="translate(0,0)"/>
<path d="" fill="#239862" transform="translate(0,0)"/>
<path d="" fill="#229A64" transform="translate(0,0)"/>
<path d="" fill="#229B66" transform="translate(0,0)"/>
<path d="" fill="#21AB70" transform="translate(0,0)"/>
<path d="" fill="#219260" transform="translate(0,0)"/>
<path d="" fill="#228255" transform="translate(0,0)"/>
<path d="" fill="#227E53" transform="translate(0,0)"/>
<path d="" fill="#235E3E" transform="translate(0,0)"/>
<path d="" fill="#25553A" transform="translate(0,0)"/>
<path d="" fill="#1EA96F" transform="translate(0,0)"/>
<path d="" fill="#1EAC74" transform="translate(0,0)"/>
<path d="" fill="#1DA96E" transform="translate(0,0)"/>
<path d="" fill="#1CAC73" transform="translate(0,0)"/>
<path d="" fill="#1FA86E" transform="translate(0,0)"/>
<path d="" fill="#1EA86F" transform="translate(0,0)"/>
<path d="" fill="#1EA971" transform="translate(0,0)"/>
<path d="" fill="#1CA46D" transform="translate(0,0)"/>
<path d="" fill="#1DAC73" transform="translate(0,0)"/>
<path d="" fill="#20AA70" transform="translate(0,0)"/>
<path d="" fill="#1EAB73" transform="translate(0,0)"/>
<path d="" fill="#1DAB70" transform="translate(0,0)"/>
<path d="" fill="#1BB179" transform="translate(0,0)"/>
<path d="" fill="#23A86E" transform="translate(0,0)"/>
<path d="" fill="#1CA86F" transform="translate(0,0)"/>
<path d="" fill="#1FAA6F" transform="translate(0,0)"/>
<path d="" fill="#1EAC6F" transform="translate(0,0)"/>
<path d="" fill="#21A870" transform="translate(0,0)"/>
<path d="" fill="#20A86E" transform="translate(0,0)"/>
<path d="" fill="#20A871" transform="translate(0,0)"/>
<path d="" fill="#1FA76E" transform="translate(0,0)"/>
<path d="" fill="#20AA70" transform="translate(0,0)"/>
<path d="" fill="#249161" transform="translate(0,0)"/>
<path d="" fill="#1EAB70" transform="translate(0,0)"/>
<path d="" fill="#1FAA72" transform="translate(0,0)"/>
<path d="" fill="#1EA86E" transform="translate(0,0)"/>
<path d="" fill="#1EAA6F" transform="translate(0,0)"/>
<path d="" fill="#1DA86F" transform="translate(0,0)"/>
<path d="" fill="#1DAD72" transform="translate(0,0)"/>
<path d="" fill="#24AB71" transform="translate(0,0)"/>
<path d="" fill="#24AC72" transform="translate(0,0)"/>
<path d="" fill="#1DAE74" transform="translate(0,0)"/>
<path d="" fill="#21AE75" transform="translate(0,0)"/>
<path d="" fill="#1CB679" transform="translate(0,0)"/>
<path d="" fill="#1FAC73" transform="translate(0,0)"/>
<path d="" fill="#1CB276" transform="translate(0,0)"/>
<path d="" fill="#21AA74" transform="translate(0,0)"/>
<path d="" fill="#1DB576" transform="translate(0,0)"/>
<path d="" fill="#22AD73" transform="translate(0,0)"/>
<path d="" fill="#1AB177" transform="translate(0,0)"/>
<path d="" fill="#1FAD74" transform="translate(0,0)"/>
<path d="" fill="#1EA970" transform="translate(0,0)"/>
<path d="" fill="#1EB073" transform="translate(0,0)"/>
<path d="" fill="#1FA972" transform="translate(0,0)"/>
<path d="" fill="#23AD73" transform="translate(0,0)"/>
<path d="" fill="#1CB577" transform="translate(0,0)"/>
<path d="" fill="#1FAB72" transform="translate(0,0)"/>
<path d="" fill="#1FAB70" transform="translate(0,0)"/>
<path d="" fill="#1FAA72" transform="translate(0,0)"/>
<path d="" fill="#1EB076" transform="translate(0,0)"/>
<path d="" fill="#1EB778" transform="translate(0,0)"/>
<path d="" fill="#1EAE72" transform="translate(0,0)"/>
<path d="" fill="#22B076" transform="translate(0,0)"/>
<path d="" fill="#20AF75" transform="translate(0,0)"/>
<path d="" fill="#1FB778" transform="translate(0,0)"/>
<path d="" fill="#1BB97B" transform="translate(0,0)"/>
<path d="" fill="#19B77A" transform="translate(0,0)"/>
<path d="" fill="#1DB379" transform="translate(0,0)"/>
<path d="" fill="#1EB378" transform="translate(0,0)"/>
<path d="" fill="#1AB377" transform="translate(0,0)"/>
<path d="" fill="#1FAE74" transform="translate(0,0)"/>
<path d="" fill="#1DB77C" transform="translate(0,0)"/>
<path d="" fill="#1FB47B" transform="translate(0,0)"/>
<path d="" fill="#22AF74" transform="translate(0,0)"/>
<path d="" fill="#1CB57A" transform="translate(0,0)"/>
<path d="" fill="#1EB47C" transform="translate(0,0)"/>
<path d="" fill="#21AF74" transform="translate(0,0)"/>
<path d="" fill="#1EB67E" transform="translate(0,0)"/>
<path d="" fill="#1FB57B" transform="translate(0,0)"/>
<path d="" fill="#25AB75" transform="translate(0,0)"/>
<path d="" fill="#1EB677" transform="translate(0,0)"/>
<path d="" fill="#1DB97C" transform="translate(0,0)"/>
<path d="" fill="#1DB87A" transform="translate(0,0)"/>
<path d="" fill="#26A974" transform="translate(0,0)"/>
<path d="" fill="#1DB679" transform="translate(0,0)"/>
<path d="" fill="#25AF77" transform="translate(0,0)"/>
<path d="" fill="#1CB477" transform="translate(0,0)"/>
<path d="" fill="#1CB779" transform="translate(0,0)"/>
<path d="" fill="#1BB479" transform="translate(0,0)"/>
<path d="" fill="#1DB87C" transform="translate(0,0)"/>
<path d="" fill="#21B67A" transform="translate(0,0)"/>
<path d="" fill="#20B579" transform="translate(0,0)"/>
<path d="" fill="#1DBC85" transform="translate(0,0)"/>
<path d="" fill="#1BB57B" transform="translate(0,0)"/>
<path d="" fill="#24AB73" transform="translate(0,0)"/>
<path d="" fill="#1BB17A" transform="translate(0,0)"/>
<path d="" fill="#1DB678" transform="translate(0,0)"/>
<path d="" fill="#22AC74" transform="translate(0,0)"/>
<path d="" fill="#1FB77B" transform="translate(0,0)"/>
<path d="" fill="#1EB77B" transform="translate(0,0)"/>
<path d="" fill="#1CB779" transform="translate(0,0)"/>
<path d="" fill="#1FB87A" transform="translate(0,0)"/>
<path d="" fill="#1FB779" transform="translate(0,0)"/>
<path d="" fill="#21AB70" transform="translate(0,0)"/>
<path d="" fill="#1DB679" transform="translate(0,0)"/>
<path d="" fill="#1FB77B" transform="translate(0,0)"/>
<path d="" fill="#23B075" transform="translate(0,0)"/>
<path d="" fill="#1FB57B" transform="translate(0,0)"/>
<path d="" fill="#1FAF77" transform="translate(0,0)"/>
<path d="" fill="#1FB87E" transform="translate(0,0)"/>
<path d="" fill="#21B278" transform="translate(0,0)"/>
<path d="" fill="#22AB72" transform="translate(0,0)"/>
<path d="" fill="#1FAD74" transform="translate(0,0)"/>
<path d="" fill="#22AE75" transform="translate(0,0)"/>
<path d="" fill="#1EB97C" transform="translate(0,0)"/>
<path d="" fill="#1EB67C" transform="translate(0,0)"/>
<path d="" fill="#1EA870" transform="translate(0,0)"/>
<path d="" fill="#20AB74" transform="translate(0,0)"/>
<path d="" fill="#1FB67C" transform="translate(0,0)"/>
<path d="" fill="#21AB73" transform="translate(0,0)"/>
<path d="" fill="#22AD72" transform="translate(0,0)"/>
<path d="" fill="#21AC75" transform="translate(0,0)"/>
<path d="" fill="#22A772" transform="translate(0,0)"/>
<path d="" fill="#1EAF76" transform="translate(0,0)"/>
<path d="" fill="#1AAA73" transform="translate(0,0)"/>
<path d="" fill="#1DAA70" transform="translate(0,0)"/>
<path d="" fill="#259F6D" transform="translate(0,0)"/>
<path d="" fill="#20AF75" transform="translate(0,0)"/>
<path d="" fill="#1FAD73" transform="translate(0,0)"/>
<path d="" fill="#1FAD78" transform="translate(0,0)"/>
<path d="" fill="#1EAD75" transform="translate(0,0)"/>
<path d="" fill="#1FAD77" transform="translate(0,0)"/>
<path d="" fill="#20AC75" transform="translate(0,0)"/>
<path d="" fill="#1BAC74" transform="translate(0,0)"/>
<path d="" fill="#1EAC75" transform="translate(0,0)"/>
<path d="" fill="#1CAE76" transform="translate(0,0)"/>
<path d="" fill="#22AE76" transform="translate(0,0)"/>
<path d="" fill="#1CB076" transform="translate(0,0)"/>
<path d="" fill="#21AF78" transform="translate(0,0)"/>
<path d="" fill="#20AF77" transform="translate(0,0)"/>
<path d="" fill="#295F44" transform="translate(0,0)"/>
<path d="" fill="#286548" transform="translate(0,0)"/>
<path d="" fill="#258E62" transform="translate(0,0)"/>
<path d="" fill="#257552" transform="translate(0,0)"/>
<path d="" fill="#275D42" transform="translate(0,0)"/>
<path d="" fill="#1DAF76" transform="translate(0,0)"/>
<path d="" fill="#1EAD75" transform="translate(0,0)"/>
<path d="" fill="#1EB278" transform="translate(0,0)"/>
<path d="" fill="#1DB076" transform="translate(0,0)"/>
<path d="" fill="#1EAC73" transform="translate(0,0)"/>
<path d="" fill="#22B177" transform="translate(0,0)"/>
<path d="" fill="#23AC74" transform="translate(0,0)"/>
<path d="" fill="#22AE76" transform="translate(0,0)"/>
<path d="" fill="#20B077" transform="translate(0,0)"/>
<path d="" fill="#21AC73" transform="translate(0,0)"/>
<path d="" fill="#21AE75" transform="translate(0,0)"/>
<path d="" fill="#22AF76" transform="translate(0,0)"/>
<path d="" fill="#21AB73" transform="translate(0,0)"/>
<path d="" fill="#1EAE76" transform="translate(0,0)"/>
<path d="" fill="#1CAD76" transform="translate(0,0)"/>
<path d="" fill="#1FB177" transform="translate(0,0)"/>
<path d="" fill="#1EAD77" transform="translate(0,0)"/>
</svg>
