<?xml version="1.0" encoding="UTF-8"?>
<svg version="1.1" xmlns="http://www.w3.org/2000/svg" width="1536" height="1024">
<path d="M0 0 C506.88 0 1013.76 0 1536 0 C1536 337.92 1536 675.84 1536 1024 C1029.12 1024 522.24 1024 0 1024 C0 686.08 0 348.16 0 0 Z " fill="#002816" transform="translate(0,0)"/>
<path d="M0 0 C2.4375 0.75 2.4375 0.75 4.4375 2.75 C4.58257695 5.49485593 4.62402423 8.13480543 4.5625 10.875 C4.55347656 11.62910156 4.54445313 12.38320312 4.53515625 13.16015625 C4.5115687 15.02357254 4.47569719 16.88682593 4.4375 18.75 C5.77554687 18.71519531 5.77554687 18.71519531 7.140625 18.6796875 C8.31109375 18.66164063 9.4815625 18.64359375 10.6875 18.625 C11.84765625 18.60179688 13.0078125 18.57859375 14.203125 18.5546875 C17.26536046 18.7396051 18.87952751 19.14176977 21.4375 20.75 C20.5625 27.625 20.5625 27.625 19.4375 28.75 C16.9047235 28.82320163 14.40646082 28.84227569 11.875 28.8125 C9.420625 28.791875 6.96625 28.77125 4.4375 28.75 C4.4375 34.36 4.4375 39.97 4.4375 45.75 C0.4375 47.75 0.4375 47.75 -2.5625 47.75 C-2.5625 47.09 -2.5625 46.43 -2.5625 45.75 C-3.5525 45.75 -4.5425 45.75 -5.5625 45.75 C-5.5625 40.14 -5.5625 34.53 -5.5625 28.75 C-10.36532864 28.94730401 -10.36532864 28.94730401 -15.1652832 29.20043945 C-16.98828125 29.23828125 -16.98828125 29.23828125 -20.5625 28.75 C-22.58984375 26.37109375 -22.58984375 26.37109375 -23.5625 23.75 C-22.84791109 21.60623326 -22.15025583 20.33775583 -20.5625 18.75 C-18.03200598 18.67686433 -15.52945163 18.65752473 -13 18.6875 C-12.28908203 18.69201172 -11.57816406 18.69652344 -10.84570312 18.70117188 C-9.08459987 18.71299136 -7.32353964 18.73092737 -5.5625 18.75 C-5.61470703 16.94402344 -5.61470703 16.94402344 -5.66796875 15.1015625 C-5.6961028 13.52605558 -5.72340337 11.95053362 -5.75 10.375 C-5.77513672 9.5809375 -5.80027344 8.786875 -5.82617188 7.96875 C-5.85254405 5.89413852 -5.71736462 3.81899135 -5.5625 1.75 C-2.5625 -0.25 -2.5625 -0.25 0 0 Z " fill="#156A32" transform="translate(283.5625,86.25)"/>
<path d="M0 0 C0 0.99 0 1.98 0 3 C0.66 3 1.32 3 2 3 C2 7.62 2 12.24 2 17 C5.58072917 16.90234375 9.16145833 16.8046875 12.7421875 16.70703125 C13.81726563 16.80371094 14.89234375 16.90039062 16 17 C18 20 18 20 18 24 C15.71393754 26.4691694 14.34615665 26.96637079 10.984375 27.29296875 C9.91703125 27.25816406 8.8496875 27.22335937 7.75 27.1875 C6.67234375 27.16042969 5.5946875 27.13335937 4.484375 27.10546875 C3.66453125 27.07066406 2.8446875 27.03585937 2 27 C2.05800781 28.04800781 2.11601562 29.09601563 2.17578125 30.17578125 C2.22268131 31.554643 2.26818122 32.93355287 2.3125 34.3125 C2.35439453 35.00279297 2.39628906 35.69308594 2.43945312 36.40429688 C2.48828125 38.42578125 2.48828125 38.42578125 2 42 C-0.20703125 44.10546875 -0.20703125 44.10546875 -3 45 C-4.65 44.34 -6.3 43.68 -8 43 C-8 37.72 -8 32.44 -8 27 C-11.58072917 27.09765625 -15.16145833 27.1953125 -18.7421875 27.29296875 C-19.81726563 27.19628906 -20.89234375 27.09960938 -22 27 C-24 24 -24 24 -23.75 21.4375 C-23 19 -23 19 -21 17 C-17.9609375 16.8046875 -17.9609375 16.8046875 -14.375 16.875 C-12.59222656 16.90207031 -12.59222656 16.90207031 -10.7734375 16.9296875 C-9.85820312 16.95289063 -8.94296875 16.97609375 -8 17 C-8.05800781 16.02417969 -8.11601562 15.04835938 -8.17578125 14.04296875 C-8.22089844 12.77066406 -8.26601562 11.49835938 -8.3125 10.1875 C-8.39951172 8.29064453 -8.39951172 8.29064453 -8.48828125 6.35546875 C-8 3 -8 3 -5.66796875 1.05078125 C-3 0 -3 0 0 0 Z " fill="#0B5729" transform="translate(234,360)"/>
<path d="M0 0 C2.05078125 0.03255208 4.1015625 0.06510417 6.15234375 0.09765625 C7.65391249 3.10079373 7.24515579 5.88833147 7.21484375 9.22265625 C7.20582031 10.50398437 7.19679688 11.7853125 7.1875 13.10546875 C7.17589844 14.09289062 7.16429687 15.0803125 7.15234375 16.09765625 C11.11234375 16.09765625 15.07234375 16.09765625 19.15234375 16.09765625 C21.15234375 20.09765625 21.15234375 20.09765625 20.15234375 26.09765625 C15.86234375 26.09765625 11.57234375 26.09765625 7.15234375 26.09765625 C7.20455078 27.66966797 7.20455078 27.66966797 7.2578125 29.2734375 C7.28595312 30.65232772 7.31325299 32.03123527 7.33984375 33.41015625 C7.36498047 34.10044922 7.39011719 34.79074219 7.41601562 35.50195312 C7.49008089 40.61245641 7.49008089 40.61245641 5.765625 43.08984375 C4.15234375 44.09765625 4.15234375 44.09765625 2.15234375 43.91015625 C0.15234375 43.09765625 0.15234375 43.09765625 -2.84765625 41.09765625 C-3.06903018 38.47068561 -3.1292765 36.08871661 -3.03515625 33.47265625 C-3.02162109 32.76625 -3.00808594 32.05984375 -2.99414062 31.33203125 C-2.95876665 29.58691497 -2.90495846 27.84219017 -2.84765625 26.09765625 C-3.60691406 26.15566406 -4.36617187 26.21367188 -5.1484375 26.2734375 C-8.11250708 26.40799319 -10.89958832 26.44499857 -13.84765625 26.09765625 C-16.09765625 23.91015625 -16.09765625 23.91015625 -16.84765625 21.09765625 C-16.51765625 19.44765625 -16.18765625 17.79765625 -15.84765625 16.09765625 C-11.55765625 16.09765625 -7.26765625 16.09765625 -2.84765625 16.09765625 C-2.85925781 15.02644531 -2.87085938 13.95523438 -2.8828125 12.8515625 C-2.89218924 11.45442882 -2.90128956 10.05729326 -2.91015625 8.66015625 C-2.92272461 7.59958008 -2.92272461 7.59958008 -2.93554688 6.51757812 C-2.94419213 4.71072066 -2.89985636 2.90378022 -2.84765625 1.09765625 C-1.84765625 0.09765625 -1.84765625 0.09765625 0 0 Z " fill="#033C1D" transform="translate(1375.84765625,780.90234375)"/>
<path d="M0 0 C2.31 0.66 4.62 1.32 7 2 C7 6.95 7 11.9 7 17 C11.95 17 16.9 17 22 17 C22.1953125 23.0546875 22.1953125 23.0546875 22 25 C20 27 20 27 16.9609375 27.1953125 C11.98046875 27.09765625 11.98046875 27.09765625 7 27 C7 31.95 7 36.9 7 42 C3 43 3 43 -2 42 C-2 37.05 -2 32.1 -2 27 C-4.99479167 27.09765625 -7.98958333 27.1953125 -10.984375 27.29296875 C-14.30027855 26.97082786 -15.59016673 26.22851086 -18 24 C-17.25 19.25 -17.25 19.25 -15 17 C-11.9609375 16.8046875 -11.9609375 16.8046875 -8.375 16.875 C-6.59222656 16.90207031 -6.59222656 16.90207031 -4.7734375 16.9296875 C-3.85820313 16.95289063 -2.94296875 16.97609375 -2 17 C-2.02320313 15.94039063 -2.04640625 14.88078125 -2.0703125 13.7890625 C-2.08906944 12.4010487 -2.10726972 11.0130273 -2.125 9.625 C-2.14175781 8.92632812 -2.15851563 8.22765625 -2.17578125 7.5078125 C-2.19344267 5.67102514 -2.10303261 3.83398037 -2 2 C-1.34 1.34 -0.68 0.68 0 0 Z " fill="#064A23" transform="translate(1193,336)"/>
<path d="M0 0 C6.3782235 -0.36103152 6.3782235 -0.36103152 8.9375 1.125 C10.52990283 3.93512264 10.45319325 5.82764724 10 9 C8.4375 11.4375 8.4375 11.4375 6 13 C2.25 12.75 2.25 12.75 -1 12 C-2.25664978 9.09399739 -3 7.20395416 -3 4 C-2.34 4 -1.68 4 -1 4 C-0.67 2.68 -0.34 1.36 0 0 Z " fill="#18702F" transform="translate(1268,103)"/>
<path d="M0 0 C0.99 0.66 1.98 1.32 3 2 C3.36328125 3.875 3.36328125 3.875 3.3125 6 C3.30863281 6.70125 3.30476563 7.4025 3.30078125 8.125 C3 10 3 10 1 12 C-5.05240175 12.55021834 -5.05240175 12.55021834 -7.9375 10.875 C-9.50422245 8.11019567 -9.38976435 6.11811483 -9 3 C-6.78229215 -0.69617975 -4.0271794 -0.41949785 0 0 Z " fill="#0E5829" transform="translate(275,847)"/>
<path d="M0 0 C2 2 2 2 2.265625 3.875 C2.26046875 4.57625 2.2553125 5.2775 2.25 6 C2.25515625 6.70125 2.2603125 7.4025 2.265625 8.125 C2 10 2 10 0 12 C-6.46153846 11.53846154 -6.46153846 11.53846154 -9 9 C-9.33015665 5.89652746 -9.50531294 3.84218824 -7.875 1.125 C-5.15781176 -0.50531294 -3.10347254 -0.33015665 0 0 Z " fill="#084C23" transform="translate(1371,485)"/>
<path d="M0 0 C6.0546875 -0.1953125 6.0546875 -0.1953125 8 0 C8.66 0.66 9.32 1.32 10 2 C9.42307692 8.57692308 9.42307692 8.57692308 8 10 C4.94239943 10.26587831 2.79159195 10.43409881 0.0625 8.9375 C-1.61676907 5.87530347 -0.68621125 3.30629059 0 0 Z " fill="#125C27" transform="translate(1196,920)"/>
<path d="M0 0 C3 0.125 3 0.125 4 1.125 C4.13568319 4.78844611 4.16461426 7.63115721 3 11.125 C0.66705225 11.16741723 -1.66702567 11.16592937 -4 11.125 C-4.33 10.795 -4.66 10.465 -5 10.125 C-4.9140625 8.09375 -4.9140625 8.09375 -4.625 5.625 C-4.53476563 4.8103125 -4.44453125 3.995625 -4.3515625 3.15625 C-3.78776917 -0.10122259 -3.42470437 0.14269602 0 0 Z " fill="#156A2F" transform="translate(135,186.875)"/>
<path d="M0 0 C0.1875 3.375 0.1875 3.375 0 7 C-3 9 -3 9 -5.6875 8.625 C-6.450625 8.41875 -7.21375 8.2125 -8 8 C-9.125 1.25 -9.125 1.25 -8 -1 C-4.37673261 -2.2077558 -3.35853631 -1.54311128 0 0 Z " fill="#084F25" transform="translate(1219,668)"/>
<path d="M0 0 C2.00720923 0.28674418 4.0085944 0.61866701 6 1 C6.6875 2.6875 6.6875 2.6875 7 5 C5.71904243 7.89900925 4.87050914 9.56474543 2 11 C0 11 0 11 -1.75 9.5625 C-2.1625 9.046875 -2.575 8.53125 -3 8 C-1.125 1.125 -1.125 1.125 0 0 Z " fill="#06451F" transform="translate(472,281)"/>
<path d="M0 0 C0.94875 0.04125 1.8975 0.0825 2.875 0.125 C2.90189216 1.60406892 2.92134621 3.08327483 2.9375 4.5625 C2.94910156 5.38621094 2.96070313 6.20992188 2.97265625 7.05859375 C2.875 9.125 2.875 9.125 1.875 10.125 C-1.125 10.25 -1.125 10.25 -4.125 10.125 C-5.125 9.125 -5.125 9.125 -5.3125 5.6875 C-5.07295419 1.13612956 -4.61081874 0.18443275 0 0 Z " fill="#166E2F" transform="translate(486.125,455.875)"/>
<path d="M0 0 C1.99954746 -0.04254356 4.00041636 -0.04080783 6 0 C6.33 0.33 6.66 0.66 7 1 C6.28 7.72 6.28 7.72 5 9 C2.5625 9.1875 2.5625 9.1875 0 9 C-0.66 8.34 -1.32 7.68 -2 7 C-1.6730244 4.38419521 -1.17960932 2.35921863 0 0 Z " fill="#17672D" transform="translate(977,835)"/>
<path d="M0 0 C0.6875 1.75 0.6875 1.75 1 4 C-0.125 6.25 -0.125 6.25 -2 8 C-4.6875 8.25 -4.6875 8.25 -7 8 C-8.35439668 5.29120665 -8.06501451 2.99066732 -8 0 C-5.13822943 -1.43088528 -3.06624227 -0.59991697 0 0 Z " fill="#115D28" transform="translate(663,139)"/>
<path d="M0 0 C0.86625 0.37125 0.86625 0.37125 1.75 0.75 C1.875 4.125 1.875 4.125 1.75 7.75 C-0.25 9.75 -0.25 9.75 -2.875 9.875 C-3.65875 9.83375 -4.4425 9.7925 -5.25 9.75 C-6 7 -6 7 -6.25 3.75 C-3.39285714 -0.37698413 -3.39285714 -0.37698413 0 0 Z " fill="#03401C" transform="translate(991.25,501.25)"/>
<path d="M0 0 C1.99954746 -0.04254356 4.00041636 -0.04080783 6 0 C7 1 7 1 7.1875 3.9375 C7 7 7 7 5 9 C2.375 9.125 2.375 9.125 0 9 C-1.125 2.25 -1.125 2.25 0 0 Z " fill="#074921" transform="translate(910,230)"/>
<path d="M0 0 C1.4540625 0.0309375 1.4540625 0.0309375 2.9375 0.0625 C3.31813221 2.3885857 3.65019945 4.72305264 3.9375 7.0625 C2.9375 8.0625 2.9375 8.0625 -0.0625 8.1875 C-3.0625 8.0625 -3.0625 8.0625 -4.0625 7.0625 C-4.1875 4.0625 -4.1875 4.0625 -4.0625 1.0625 C-3.0625 0.0625 -3.0625 0.0625 0 0 Z " fill="#03401E" transform="translate(851.0625,686.9375)"/>
<path d="M0 0 C1.98 0 3.96 0 6 0 C7.32841008 5.43440487 7.32841008 5.43440487 5.875 7.9375 C4 9 4 9 1.3125 8.6875 C0.549375 8.460625 -0.21375 8.23375 -1 8 C-1.125 2.25 -1.125 2.25 0 0 Z " fill="#043F1D" transform="translate(772,396)"/>
<path d="M0 0 C1.98 0 3.96 0 6 0 C6 2.64 6 5.28 6 8 C3.625 8.625 3.625 8.625 1 9 C0.34 8.34 -0.32 7.68 -1 7 C-0.625 3.375 -0.625 3.375 0 0 Z " fill="#0B5325" transform="translate(549,936)"/>
<path d="M0 0 C2.00720923 0.28674418 4.0085944 0.61866701 6 1 C6.6875 2.8125 6.6875 2.8125 7 5 C5.875 6.75 5.875 6.75 4 8 C1.3125 8.1875 1.3125 8.1875 -1 8 C-1.04241723 5.66705225 -1.04092937 3.33297433 -1 1 C-0.67 0.67 -0.34 0.34 0 0 Z " fill="#05431F" transform="translate(304,555)"/>
<path d="M0 0 C1.99954746 -0.04254356 4.00041636 -0.04080783 6 0 C7 1 7 1 7.0625 4.0625 C7.041875 5.031875 7.02125 6.00125 7 7 C4.69 7 2.38 7 0 7 C0 4.69 0 2.38 0 0 Z " fill="#228339" transform="translate(814,63)"/>
<path d="M0 0 C1.65 0.33 3.3 0.66 5 1 C5.04254356 2.99954746 5.04080783 5.00041636 5 7 C4 8 4 8 1.4375 8.0625 C0.633125 8.041875 -0.17125 8.02125 -1 8 C-1.625 5.6875 -1.625 5.6875 -2 3 C-1.34 2.01 -0.68 1.02 0 0 Z " fill="#023E1D" transform="translate(1371,258)"/>
<path d="M0 0 C2.125 0.375 2.125 0.375 4 1 C4.38133299 2.9914056 4.71325582 4.99279077 5 7 C4 8 4 8 1.4375 8.0625 C0.633125 8.041875 -0.17125 8.02125 -1 8 C-1.625 5.125 -1.625 5.125 -2 2 C-1.34 1.34 -0.68 0.68 0 0 Z " fill="#02391B" transform="translate(716,885)"/>
<path d="M0 0 C1.67542976 0.28604898 3.34385343 0.61781233 5 1 C5 2.98 5 4.96 5 7 C3.35 7.33 1.7 7.66 0 8 C-0.38063221 5.6739143 -0.71269945 3.33944736 -1 1 C-0.67 0.67 -0.34 0.34 0 0 Z " fill="#01351B" transform="translate(140,694)"/>
<path d="M0 0 C0.33 2.64 0.66 5.28 1 8 C-0.875 8.625 -0.875 8.625 -3 9 C-5 7 -5 7 -5.125 4.375 C-5.08375 3.59125 -5.0425 2.8075 -5 2 C-1.125 0 -1.125 0 0 0 Z " fill="#16682B" transform="translate(1201,921)"/>
<path d="M0 0 C0.33 0 0.66 0 1 0 C1 4.95 1 9.9 1 15 C-0.65 15.66 -2.3 16.32 -4 17 C-3.67 15.35 -3.34 13.7 -3 12 C-2.34 12 -1.68 12 -1 12 C-0.67 8.04 -0.34 4.08 0 0 Z " fill="#074A24" transform="translate(235,387)"/>
<path d="M0 0 C0.99 0.33 1.98 0.66 3 1 C2.67 3.31 2.34 5.62 2 8 C0.68 8.33 -0.64 8.66 -2 9 C-1.34 6.03 -0.68 3.06 0 0 Z " fill="#0C4E25" transform="translate(302,106)"/>
<path d="M0 0 C0.66 0 1.32 0 2 0 C2.33 1.65 2.66 3.3 3 5 C1.68 5 0.36 5 -1 5 C-0.67 3.35 -0.34 1.7 0 0 Z " fill="#1D7833" transform="translate(977,836)"/>
</svg>
