<?xml version="1.0" encoding="UTF-8"?>
<svg version="1.1" xmlns="http://www.w3.org/2000/svg" width="819" height="505">
<path d="M0 0 C2.47897349 -0.00067492 4.95794691 -0.00164652 7.43692017 -0.00289917 C12.61615635 -0.00436781 17.79537521 -0.00224885 22.97460938 0.00244141 C29.57659984 0.00813216 36.17854959 0.00485847 42.78053856 -0.00113106 C47.89554139 -0.00476435 53.01053474 -0.00358532 58.12553787 -0.00100327 C60.55813222 -0.00034133 62.99072746 -0.00113646 65.42332077 -0.00348282 C98.7527189 -0.02857816 98.7527189 -0.02857816 110.4140625 2.5703125 C111.56648437 2.81652344 112.71890625 3.06273437 113.90625 3.31640625 C115.20949219 3.72052734 115.20949219 3.72052734 116.5390625 4.1328125 C116.8690625 4.7928125 117.1990625 5.4528125 117.5390625 6.1328125 C119.2030585 6.4792316 120.87037162 6.8097651 122.5390625 7.1328125 C129.72861458 10.13988673 135.98666246 13.66307847 141.5390625 19.1328125 C142.11011719 19.65488281 142.68117188 20.17695312 143.26953125 20.71484375 C158.10315331 34.69708794 166.11720182 54.67344803 166.83030701 74.87680054 C166.85021194 75.56714386 166.87011688 76.25748718 166.890625 76.96875 C166.91427628 77.71315338 166.93792755 78.45755676 166.96229553 79.22451782 C167.03594428 81.65215001 167.10131103 84.07987516 167.1640625 86.5078125 C167.18618805 87.34151367 167.2083136 88.17521484 167.23110962 89.03417969 C167.53709038 101.07698517 167.57619774 113.09103611 167.2265625 125.1328125 C167.19191895 126.44040527 167.15727539 127.74799805 167.12158203 129.09521484 C166.29724915 152.5177429 161.15631717 171.51917334 144.9765625 188.8828125 C144.1721875 189.6253125 143.3678125 190.3678125 142.5390625 191.1328125 C142.04148437 191.60074219 141.54390625 192.06867188 141.03125 192.55078125 C122.40398561 209.40195764 99.29325423 210.58313334 75.48925781 210.56860352 C61.78218482 210.58662017 48.85703013 210.81484487 38.5390625 221.1328125 C35.85702373 224.31680301 33.38465161 227.64884931 30.93359375 231.01171875 C28.6473379 233.99168355 26.25468604 236.54524276 23.5390625 239.1328125 C22.97703125 239.68066406 22.415 240.22851562 21.8359375 240.79296875 C15.12937446 246.87290848 8.35669251 249.95481288 -0.80859375 249.58203125 C-5.05930586 248.8621021 -8.42846022 247.20820219 -11.4609375 244.1328125 C-15.39381175 238.25129693 -14.61447664 232.77754907 -14.16796875 226.03320312 C-14.00740618 221.62471349 -13.96084075 219.78951395 -16.71875 216.16796875 C-20.72554915 213.19426169 -23.63155278 211.92059486 -28.609375 211.45703125 C-29.60791504 211.35438965 -30.60645508 211.25174805 -31.63525391 211.14599609 C-32.69147949 211.03852051 -33.74770508 210.93104492 -34.8359375 210.8203125 C-53.01698331 208.71365852 -70.39294765 202.70656635 -82.4609375 188.1328125 C-83.17636719 187.29492188 -83.89179688 186.45703125 -84.62890625 185.59375 C-92.88105913 175.33730538 -98.16267569 164.33356551 -100.109375 151.27734375 C-100.2344342 150.45663391 -100.35949341 149.63592407 -100.48834229 148.79034424 C-101.74486032 140.00142946 -102.06982009 131.24937283 -102.2109375 122.3828125 C-102.22806793 121.55251526 -102.24519836 120.72221802 -102.2628479 119.86676025 C-102.50260714 108.24058421 -102.48854431 96.63146298 -102.1484375 85.0078125 C-102.11395508 83.7899707 -102.07947266 82.57212891 -102.04394531 81.31738281 C-101.18170318 58.72915631 -95.75094258 37.67958548 -78.97851562 21.51367188 C-55.62971376 0.26836567 -30.00074014 -0.02888151 0 0 Z M-34.4609375 96.1328125 C-38.28425414 101.40922768 -39.45888451 106.70924554 -38.4609375 113.1328125 C-37.65386849 115.64164417 -36.66583604 117.77321953 -35.4609375 120.1328125 C-34.8009375 120.1328125 -34.1409375 120.1328125 -33.4609375 120.1328125 C-33.4609375 120.7928125 -33.4609375 121.4528125 -33.4609375 122.1328125 C-27.86791994 124.62969534 -23.4419992 126.17181081 -17.4609375 124.1328125 C-13.72155612 121.9073842 -11.04773208 119.21210632 -9.4609375 115.1328125 C-8.77467607 108.73364743 -8.55882877 102.51503144 -12.4609375 97.1328125 C-17.11020566 92.93713148 -19.99465611 91.75469597 -26.14453125 91.86328125 C-29.8621301 92.29585177 -31.74228798 93.6038362 -34.4609375 96.1328125 Z M19.7265625 98.1953125 C16.62436334 103.25679535 16.73588478 109.52531933 18 115.203125 C19.70898773 119.84755049 22.17600616 121.99244524 26.5390625 124.1328125 C30.90982062 125.42094243 33.8979755 125.3251386 38.2890625 124.0078125 C41.63806936 122.07569316 43.39053953 120.31262649 45.5390625 117.1328125 C44.69717638 115.18551713 44.69717638 115.18551713 43.5390625 114.1328125 C44.5290625 114.1328125 45.5190625 114.1328125 46.5390625 114.1328125 C47.00871744 107.03580445 47.10144941 100.93173417 42.5390625 95.1328125 C38.48163115 92.1133287 34.65496842 91.60283098 29.71875 91.77734375 C25.33704847 92.49192231 22.57446479 94.9545961 19.7265625 98.1953125 Z M75.7265625 98.1953125 C72.87224758 102.85235263 72.93922752 107.84335857 73.5390625 113.1328125 C74.61520425 116.06048197 75.93847683 118.43182418 77.5390625 121.1328125 C78.5290625 121.1328125 79.5190625 121.1328125 80.5390625 121.1328125 C80.5390625 121.7928125 80.5390625 122.4528125 80.5390625 123.1328125 C86.15945008 124.94122424 90.31677121 125.6546313 95.8125 123.19140625 C99.49048839 120.93635002 101.20430404 118.13708787 102.5390625 114.1328125 C103.19665769 106.75912223 103.2989697 101.02006614 98.5390625 95.1328125 C94.43013029 92.17055905 90.66720663 91.60239831 85.71875 91.77734375 C81.33704847 92.49192231 78.57446479 94.9545961 75.7265625 98.1953125 Z " fill="#1CBB82" transform="translate(377.4609375,12.8671875)"/>
<path d="M0 0 C1.32 0.66 2.64 1.32 4 2 C3.54113403 3.315448 3.54113403 3.315448 3.07299805 4.6574707 C1.60576348 8.87396029 0.14524091 13.0927208 -1.3125 17.3125 C-1.57988983 18.08511169 -1.84727966 18.85772339 -2.12277222 19.65374756 C-5.2667803 28.75550853 -8.3151852 37.87591054 -11.140625 47.08203125 C-11.38890549 47.88842545 -11.63718597 48.69481964 -11.89299011 49.52565002 C-13.09069698 53.42519357 -14.27207304 57.32881392 -15.43286133 61.23950195 C-15.86244008 62.65196284 -16.29235339 64.06432204 -16.72265625 65.4765625 C-17.09140869 66.71486816 -17.46016113 67.95317383 -17.84008789 69.22900391 C-18.22285889 70.14343262 -18.60562988 71.05786133 -19 72 C-21.70716242 72.90238747 -23.23776768 73.11851302 -26.01171875 73.09765625 C-27.14770508 73.09282227 -27.14770508 73.09282227 -28.30664062 73.08789062 C-29.48516602 73.07532227 -29.48516602 73.07532227 -30.6875 73.0625 C-31.48478516 73.05798828 -32.28207031 73.05347656 -33.10351562 73.04882812 C-35.06904257 73.0370585 -37.03453085 73.01912348 -39 73 C-39.23460937 71.83597656 -39.46921875 70.67195313 -39.7109375 69.47265625 C-41.29280631 62.35424658 -43.50303661 55.40884167 -45.625 48.4375 C-46.04977999 47.03329409 -46.47426152 45.62899786 -46.8984375 44.22460938 C-47.92885397 40.8153584 -48.96330015 37.4073463 -50 34 C-50 34.66 -50 35.32 -50 36 C-50.66 36 -51.32 36 -52 36 C-53.08702837 39.37382077 -54.16917086 42.74918843 -55.25 46.125 C-55.73098145 47.62196411 -55.73098145 47.62196411 -56.22167969 49.14916992 C-58.38431083 55.92625238 -60.34673646 62.71222787 -62.078125 69.61328125 C-62.38234375 70.40089844 -62.6865625 71.18851562 -63 72 C-66.83031413 73.27677138 -70.23497484 72.8624174 -74.1875 72.5625 C-75.58110662 72.46174998 -76.9747448 72.36143606 -78.3684082 72.26147461 C-79.5668335 72.17518799 -80.76525879 72.08890137 -82 72 C-82.29132812 70.91162842 -82.58265625 69.82325684 -82.8828125 68.7019043 C-85.8888591 57.6035709 -89.30887803 46.69990634 -93 35.8125 C-93.51345798 34.28725647 -94.02647922 32.76186584 -94.5390625 31.23632812 C-95.5381911 28.26439858 -96.53961365 25.29325905 -97.54296875 22.32275391 C-99.71456153 15.88826333 -101.8572819 9.44415357 -104 3 C-101.7602852 0.7602852 -96.57102512 1.81468167 -93.5625 1.8125 C-92.67755859 1.80025391 -91.79261719 1.78800781 -90.88085938 1.77539062 C-90.03458984 1.77345703 -89.18832031 1.77152344 -88.31640625 1.76953125 C-87.53724854 1.76542236 -86.75809082 1.76131348 -85.95532227 1.75708008 C-84 2 -84 2 -82 4 C-81.22493351 6.43467945 -80.54076516 8.83729897 -79.90625 11.30859375 C-79.61796326 12.3923806 -79.61796326 12.3923806 -79.32385254 13.49806213 C-78.70942207 15.80955268 -78.10384938 18.12322441 -77.5 20.4375 C-76.89573452 22.74808238 -76.28943174 25.05802028 -75.67614746 27.3662262 C-75.29453992 28.80274342 -74.91812244 30.24065171 -74.54748535 31.68003845 C-73.69103512 34.90690698 -72.87274136 37.19088795 -71 40 C-70.84442627 39.44763672 -70.68885254 38.89527344 -70.52856445 38.32617188 C-67.8332477 28.77535406 -65.12709983 19.22902457 -62.1875 9.75 C-61.9810083 9.07775391 -61.7745166 8.40550781 -61.56176758 7.71289062 C-60.12196256 3.12196256 -60.12196256 3.12196256 -59 2 C-56.13732433 1.92674832 -53.299281 1.90761795 -50.4375 1.9375 C-49.63119141 1.94201172 -48.82488281 1.94652344 -47.99414062 1.95117188 C-45.99606244 1.96299482 -43.99802217 1.98093086 -42 2 C-39.76790419 6.96620047 -38.02162064 11.89193228 -36.51953125 17.12109375 C-36.19295784 18.23823509 -36.19295784 18.23823509 -35.85978699 19.37794495 C-35.1732393 21.72995356 -34.49277396 24.0836701 -33.8125 26.4375 C-33.34480392 28.04373715 -32.87670873 29.64985815 -32.40820312 31.25585938 C-31.2675195 35.16924595 -30.13228294 39.08417494 -29 43 C-27.914715 39.21404135 -26.8303706 35.4278146 -25.74682617 31.64135742 C-25.20083324 29.73407615 -24.65413636 27.82699644 -24.10742188 25.91992188 C-23.75615234 24.69208984 -23.40488281 23.46425781 -23.04296875 22.19921875 C-22.69540527 20.98669434 -22.3478418 19.77416992 -21.98974609 18.52490234 C-20.82998077 14.39448998 -19.75003637 10.24588386 -18.7043457 6.08520508 C-18 4 -18 4 -16 2 C-13.26565038 1.6936141 -10.61720179 1.4886664 -7.875 1.375 C-7.12089844 1.33632813 -6.36679687 1.29765625 -5.58984375 1.2578125 C-3.72696816 1.16348969 -1.86351745 1.08065338 0 1 C0 0.67 0 0.34 0 0 Z " fill="#1CBC82" transform="translate(750,400)"/>
<path d="M0 0 C0.70640625 0.598125 1.4128125 1.19625 2.140625 1.8125 C7.09000765 6.35859962 10.98118093 11.51330266 13 18 C13.046875 20.125 13.046875 20.125 12 22 C8.98046875 23.484375 8.98046875 23.484375 5.1875 24.75 C3.94355469 25.17796875 2.69960937 25.6059375 1.41796875 26.046875 C-2 27 -2 27 -6 27 C-6.34611328 26.22076172 -6.34611328 26.22076172 -6.69921875 25.42578125 C-9.90509104 18.57053655 -13.66414451 13.66758381 -21 11 C-30.10675526 9.28671753 -37.59803068 10.05347128 -45.75 14.5 C-53.41834784 23.02038649 -56.45941238 32.90110286 -56.1796875 44.13671875 C-55.55347317 54.115308 -53.60920917 61.9633755 -45.93359375 68.85546875 C-38.41912484 74.68160395 -31.22777099 74.66463069 -22 74 C-15.14959465 72.35548373 -11.63296212 67.75486921 -8 62 C-6.99307294 60.33750919 -5.99143556 58.6717755 -5 57 C7.66970387 60.07517084 7.66970387 60.07517084 13 62 C11.73356288 70.99495085 4.96881081 79.41910749 -2 85 C-12.92000669 92.73060435 -26.10847424 94.47818567 -39.13671875 92.53125 C-51.3112951 89.91239107 -60.78712407 83.39014139 -67.9453125 73.2421875 C-76.31522278 59.82931872 -77.76577833 45.21330013 -75.53125 29.7578125 C-72.25982165 16.32158891 -65.07886128 4.82938136 -53.5625 -2.875 C-37.08668506 -12.62507131 -15.00710603 -12.96613961 0 0 Z " fill="#1BB87E" transform="translate(147,383)"/>
<path d="M0 0 C0.33 0.66 0.66 1.32 1 2 C8.61730174 1.88239798 16.23446029 1.75756641 23.8515625 1.62768555 C26.44333199 1.58434872 29.03512979 1.54267275 31.62695312 1.50268555 C35.35034728 1.44495298 39.07359904 1.3812667 42.796875 1.31640625 C43.95741394 1.29969376 45.11795288 1.28298126 46.31365967 1.26576233 C47.93488739 1.2358445 47.93488739 1.2358445 49.58886719 1.20532227 C50.53928894 1.18977798 51.48971069 1.1742337 52.46893311 1.15821838 C54.96872129 1.08257732 54.96872129 1.08257732 57.19854736 0.42930603 C59 0 59 0 61.234375 0.92578125 C63.9046564 4.06277113 63.42751999 7.27864638 63.25 11.1875 C63.23195313 11.93708984 63.21390625 12.68667969 63.1953125 13.45898438 C63.14824109 15.3065371 63.07649766 17.15343159 63 19 C58.35908635 19.90931025 53.86576079 20.14650014 49.15234375 20.1328125 C48.05086754 20.13424759 48.05086754 20.13424759 46.92713928 20.13571167 C45.38331008 20.13638875 43.83947795 20.13456758 42.2956543 20.13037109 C39.9411782 20.12500838 37.58689217 20.13033608 35.23242188 20.13671875 C33.72656208 20.13605803 32.22070241 20.13477701 30.71484375 20.1328125 C30.01576401 20.13483673 29.31668427 20.13686096 28.59642029 20.13894653 C24.84526546 20.12105708 21.72629728 19.74525946 18 19 C18 26.26 18 33.52 18 41 C22.95 40.7525 22.95 40.7525 28 40.5 C37.34377142 40.05449411 46.64649262 39.87939604 56 40 C56.75712312 44.018118 57.11233839 47.78825175 57.0625 51.875 C57.05347656 52.84179688 57.04445313 53.80859375 57.03515625 54.8046875 C57.02355469 55.52914062 57.01195312 56.25359375 57 57 C53.59151113 58.04260867 50.50290123 58.10118831 46.94921875 58.0625 C45.77552734 58.05476563 44.60183594 58.04703125 43.39257812 58.0390625 C40.93424349 58.01314437 38.47591013 57.98710389 36.01757812 57.9609375 C34.84001953 57.95320313 33.66246094 57.94546875 32.44921875 57.9375 C31.38018311 57.92589844 30.31114746 57.91429687 29.2097168 57.90234375 C25.78844918 58.00643647 22.38844938 58.5159358 19 59 C18.67 71.87 18.34 84.74 18 98 C14.6717269 99.66413655 11.00266027 98.81867406 7.375 98.5625 C6.57320313 98.51029297 5.77140625 98.45808594 4.9453125 98.40429688 C2.96320897 98.27451629 0.98155501 98.13790265 -1 98 C-1.02319135 86.25597267 -1.04094973 74.51195082 -1.05181217 62.76790524 C-1.05702613 57.31441882 -1.06409678 51.86094809 -1.07543945 46.4074707 C-1.08632117 41.14254668 -1.09228805 35.87763773 -1.09487724 30.61270332 C-1.09672196 28.60611293 -1.10032422 26.59952334 -1.10573006 24.59293938 C-1.11301061 21.77800603 -1.11398798 18.96313464 -1.11352539 16.14819336 C-1.11712067 15.32244308 -1.12071594 14.49669281 -1.12442017 13.6459198 C-1.11616838 8.99191051 -0.77281436 4.5911197 0 0 Z " fill="#1CBD82" transform="translate(473,374)"/>
<path d="M0 0 C8.3095273 6.2093171 12.66719253 13.6109663 14.4375 23.75 C14.55809865 25.10280228 14.66205958 26.45718286 14.75 27.8125 C14.81445312 28.48796875 14.87890625 29.1634375 14.9453125 29.859375 C15.45836912 39.23120921 12.43324519 48.92461605 6.37109375 56.10546875 C5.83613281 56.66878906 5.30117188 57.23210937 4.75 57.8125 C4.22535156 58.36550781 3.70070313 58.91851562 3.16015625 59.48828125 C-4.72288043 66.96325486 -14.61697243 69.08966423 -25.25 68.8125 C-34.43793983 67.81983313 -41.58416048 64.19835272 -48.25 57.8125 C-55.94631413 47.80266459 -58.1191695 36.59765408 -56.88671875 24.140625 C-55.1114819 14.16444737 -51.23950381 6.72006225 -43.25 0.375 C-30.0265658 -8.67934373 -13.37248222 -8.74201076 0 0 Z M-34.125 16.5625 C-37.84152393 22.24659543 -39.06002214 28.07062345 -38.25 34.8125 C-36.87940921 40.78507445 -34.92671427 46.50538218 -29.48828125 49.91796875 C-24.95198883 51.73090237 -20.03701032 51.31943541 -15.25 50.8125 C-9.77056082 48.36632179 -7.73472584 45.05803233 -5.25 39.8125 C-3.38382565 32.79662933 -3.83743011 24.794592 -6.9375 18.25 C-11.13567276 13.82489899 -14.9223777 11.19642427 -21.16796875 10.71875 C-26.60093474 10.96338637 -30.23205321 12.83881177 -34.125 16.5625 Z " fill="#1AAE76" transform="translate(444.25,407.1875)"/>
<path d="M0 0 C7.28055952 5.47615572 12.68202362 12.87140983 14.625 21.90625 C16.08899389 33.98419958 15.391062 46.15515116 8.25 56.4375 C1.3242999 64.6856956 -6.66897637 68.67691032 -17.25 69.875 C-27.92525363 70.42971872 -36.16936009 67.94281797 -44.5859375 61.296875 C-51.86553257 54.37065833 -55.37225027 45.11449695 -56.24609375 35.2109375 C-56.52557034 23.53867987 -54.14735033 13.76855626 -46.14453125 4.95703125 C-33.42561139 -6.94950251 -15.02547308 -8.62489392 0 0 Z M-31.55859375 16.32421875 C-36.16341525 21.53026323 -37.43229901 26.87244905 -37.25 33.62890625 C-36.66134949 39.21188846 -35.15581607 43.60709345 -31.5625 47.9375 C-26.8588878 51.72333421 -23.43951225 52.44811424 -17.46875 52.31640625 C-12.72758939 51.7087575 -10.05700238 49.14442363 -6.921875 45.75 C-3.30755817 40.57829462 -2.75406353 33.84039254 -3.15234375 27.62109375 C-4.15006882 22.76549841 -6.40739845 18.40351726 -10 15 C-17.08356445 11.02869747 -25.15567018 10.88414083 -31.55859375 16.32421875 Z " fill="#1BB27A" transform="translate(630,406)"/>
<path d="M0 0 C6.75596954 5.49614735 11.82103027 13.85782671 12.98901367 22.55859375 C13.12450932 24.92288017 13.15520715 27.25709544 13.125 29.625 C13.11742676 30.45878174 13.10985352 31.29256348 13.10205078 32.15161133 C12.83218364 42.28738774 9.88565772 50.97472284 2.6875 58.3125 C-5.75979965 65.80947844 -14.74816918 68.76144686 -26 68.25 C-35.74629894 67.15673974 -44.12060692 62.92244161 -50.81640625 55.6875 C-58.11786111 46.27189254 -59.46495991 33.61449786 -58.0390625 22.10546875 C-56.11569814 13.19629987 -51.62401957 4.84896858 -44.3125 -0.6875 C-30.2564917 -9.15629999 -13.77339119 -9.34715962 0 0 Z M-35.0625 16.125 C-39.51976005 22.43945173 -40.30768105 28.73065677 -39.3125 36.3125 C-37.66626811 41.36424164 -35.44337007 45.18162993 -31.6875 48.9375 C-26.28207368 51.13971072 -20.80178454 51.39648729 -15.1875 49.65234375 C-10.34705588 47.24255368 -8.46830324 44.03868403 -6.3125 39.3125 C-4.10945998 31.96903328 -5.32338706 25.19651768 -8.3125 18.3125 C-10.88118449 13.93622272 -13.60581153 12.3366583 -18.296875 10.81640625 C-25.34477353 9.05443162 -30.06080146 11.0096265 -35.0625 16.125 Z " fill="#1AAD76" transform="translate(226.3125,407.6875)"/>
<path d="M0 0 C0.33 0 0.66 0 1 0 C1.33 2.64 1.66 5.28 2 8 C3.299375 6.824375 3.299375 6.824375 4.625 5.625 C11.04085634 0.38241368 17.98886479 0.31573747 26 1 C31.67959134 2.2776749 36.78220684 4.79319097 40.15625 9.671875 C43.17392227 14.71569865 44.12731764 18.52659172 44.11352539 24.31933594 C44.11344986 25.38013367 44.11337433 26.4409314 44.11329651 27.53387451 C44.10813522 28.67253967 44.10297394 29.81120483 44.09765625 30.984375 C44.0962413 32.15510559 44.09482635 33.32583618 44.09336853 34.53204346 C44.0877709 38.27138829 44.0752188 42.01067326 44.0625 45.75 C44.0574847 48.28515539 44.05292184 50.82031171 44.04882812 53.35546875 C44.03780224 59.57033293 44.02106644 65.78516219 44 72 C40.6717269 73.66413655 37.00266027 72.81867406 33.375 72.5625 C32.57320313 72.51029297 31.77140625 72.45808594 30.9453125 72.40429688 C28.96320897 72.27451629 26.98155501 72.13790265 25 72 C25.01047363 70.72882324 25.02094727 69.45764648 25.03173828 68.14794922 C25.06802194 63.41799756 25.09093096 58.68805813 25.10986328 53.95800781 C25.11990179 51.91339039 25.13353542 49.86878726 25.15087891 47.82421875 C25.1752217 44.88017239 25.18650478 41.93631637 25.1953125 38.9921875 C25.20563507 38.0825827 25.21595764 37.17297791 25.22659302 36.23580933 C25.22756157 30.71897993 24.9845832 25.83855537 21.7109375 21.15625 C18.01991911 18.66186314 13.22677737 19.3264346 9 20 C5.58688333 22.52570633 4.33362232 23.99913304 3 28 C2.88650152 29.45706917 2.82398525 30.91844959 2.79467773 32.37963867 C2.77473251 33.26032516 2.75478729 34.14101166 2.73423767 35.04838562 C2.70916893 36.46882927 2.70916893 36.46882927 2.68359375 37.91796875 C2.66281265 38.89034988 2.64203156 39.86273102 2.62062073 40.86457825 C2.55521252 43.97214665 2.49628071 47.07979985 2.4375 50.1875 C2.39430649 52.29362858 2.35069193 54.39974856 2.30664062 56.50585938 C2.19954001 61.67048591 2.09824781 66.83519778 2 72 C-2 73 -2 73 -17 72 C-17 49.23 -17 26.46 -17 3 C-9.125 0.75 -9.125 0.75 -4.5625 1.375 C-3.69753906 1.48585938 -2.83257812 1.59671875 -1.94140625 1.7109375 C-1.30074219 1.80632812 -0.66007812 1.90171875 0 2 C0 1.34 0 0.68 0 0 Z " fill="#1CBD82" transform="translate(267,400)"/>
<path d="M0 0 C0.66 0 1.32 0 2 0 C1.58758416 8.09366087 -0.93595404 14.67149902 -4 22.125 C-4.74869394 23.98808899 -5.49737898 25.85118175 -6.24510193 27.71466064 C-7.00247671 29.59800768 -7.76456564 31.4793854 -8.52783203 33.36035156 C-10.69849774 38.72689954 -12.82440913 44.11056241 -14.9375 49.5 C-15.30673584 50.43996826 -15.67597168 51.37993652 -16.05639648 52.34838867 C-18.58772147 58.83428996 -20.95268418 65.34264435 -23 72 C-25.22843488 72.19600577 -27.45779893 72.38146569 -29.6875 72.5625 C-31.54955078 72.71912109 -31.54955078 72.71912109 -33.44921875 72.87890625 C-39.48559054 73.08476711 -39.48559054 73.08476711 -42 72 C-43.7075482 69.10774164 -44.66521234 65.97823336 -45.70703125 62.796875 C-46.03611984 61.84927307 -46.36520844 60.90167114 -46.70426941 59.925354 C-47.75991164 56.87322024 -48.78697063 53.81236807 -49.8125 50.75 C-50.82900556 47.77352417 -51.85139674 44.79912529 -52.87496948 41.82507324 C-53.55486036 39.84740868 -54.23155717 37.86864316 -54.90505981 35.88879395 C-57.58697945 28.0468935 -60.4986798 20.3071309 -63.57197571 12.61029053 C-63.89071152 11.79820129 -64.20944733 10.98611206 -64.5378418 10.14941406 C-64.82088669 9.44173889 -65.10393158 8.73406372 -65.39555359 8.00494385 C-66 6 -66 6 -66 2 C-62.09519751 0.64137027 -58.2898224 1.10530288 -54.25 1.4375 C-53.55261719 1.48970703 -52.85523438 1.54191406 -52.13671875 1.59570312 C-50.42403797 1.72474072 -48.71194934 1.86159614 -47 2 C-43.70829073 8.95777847 -41.1582271 16.07004446 -38.75 23.375 C-38.38648438 24.45394531 -38.02296875 25.53289062 -37.6484375 26.64453125 C-37.30554688 27.67707031 -36.96265625 28.70960938 -36.609375 29.7734375 C-36.29967773 30.70591309 -35.98998047 31.63838867 -35.67089844 32.59912109 C-35 35 -35 35 -35 38 C-32.03 37.505 -32.03 37.505 -29 37 C-28.74259033 36.01882202 -28.74259033 36.01882202 -28.47998047 35.01782227 C-26.5831518 27.91193299 -24.4628236 20.91035226 -22.125 13.9375 C-21.79886719 12.90689453 -21.47273438 11.87628906 -21.13671875 10.81445312 C-20.80542969 9.83283203 -20.47414063 8.85121094 -20.1328125 7.83984375 C-19.84293457 6.95675537 -19.55305664 6.07366699 -19.25439453 5.16381836 C-17.59582289 2.30279842 -16.13788897 1.86487563 -13 1 C-9.66796875 0.8046875 -9.66796875 0.8046875 -6.1875 0.875 C-4.44533203 0.90207031 -4.44533203 0.90207031 -2.66796875 0.9296875 C-1.34732422 0.96449219 -1.34732422 0.96449219 0 1 C0 0.67 0 0.34 0 0 Z M-31 38 C-31.99 38.66 -32.98 39.32 -34 40 C-33.34 41.65 -32.68 43.3 -32 45 C-30.87483915 43.16715557 -30.87483915 43.16715557 -30 41 C-30.33 40.01 -30.66 39.02 -31 38 Z " fill="#1CBB81" transform="translate(383,400)"/>
<path d="M0 0 C6.6 0.33 13.2 0.66 20 1 C19.67 1.66 19.34 2.32 19 3 C18.87705231 5.98947039 18.81421231 8.95711867 18.79467773 11.94775391 C18.77982834 13.33807579 18.77982834 13.33807579 18.76467896 14.75648499 C18.7330118 17.82981789 18.70828592 20.90316628 18.68359375 23.9765625 C18.66302873 26.10363168 18.64203238 28.23069674 18.62062073 30.35775757 C18.56535342 35.96371116 18.5159647 41.56970192 18.46777344 47.17572021 C18.4175924 52.89322223 18.36188862 58.6106701 18.30664062 64.328125 C18.19900206 75.55203885 18.09807992 86.77599855 18 98 C12.06 98 6.12 98 0 98 C-1.1931476 94.42055721 -1.13979919 91.17067952 -1.12939453 87.44604492 C-1.13114685 86.67805573 -1.13289917 85.91006653 -1.13470459 85.11880493 C-1.1391142 82.57267003 -1.13618505 80.0266044 -1.1328125 77.48046875 C-1.13348655 75.70225511 -1.13445743 73.92404157 -1.13571167 72.14582825 C-1.13718806 68.40914029 -1.13503877 64.6724762 -1.13037109 60.93579102 C-1.12471933 56.1830638 -1.12792399 51.43039362 -1.13394356 46.67766857 C-1.13758985 42.9978443 -1.1363913 39.3180331 -1.13381577 35.63820839 C-1.13315531 33.88860378 -1.13394357 32.13899792 -1.13629532 30.38939476 C-1.14697321 20.19784031 -0.85948354 10.16230469 0 0 Z " fill="#1BBA80" transform="translate(545,375)"/>
<path d="M0 0 C1.32 0.66 2.64 1.32 4 2 C3.54113403 3.315448 3.54113403 3.315448 3.07299805 4.6574707 C1.60576348 8.87396029 0.14524091 13.0927208 -1.3125 17.3125 C-1.57988983 18.08511169 -1.84727966 18.85772339 -2.12277222 19.65374756 C-5.2667803 28.75550853 -8.3151852 37.87591054 -11.140625 47.08203125 C-11.38890549 47.88842545 -11.63718597 48.69481964 -11.89299011 49.52565002 C-13.09069698 53.42519357 -14.27207304 57.32881392 -15.43286133 61.23950195 C-15.86244008 62.65196284 -16.29235339 64.06432204 -16.72265625 65.4765625 C-17.09140869 66.71486816 -17.46016113 67.95317383 -17.84008789 69.22900391 C-18.22285889 70.14343262 -18.60562988 71.05786133 -19 72 C-21.70716242 72.90238747 -23.23776768 73.11851302 -26.01171875 73.09765625 C-27.14770508 73.09282227 -27.14770508 73.09282227 -28.30664062 73.08789062 C-29.48516602 73.07532227 -29.48516602 73.07532227 -30.6875 73.0625 C-31.48478516 73.05798828 -32.28207031 73.05347656 -33.10351562 73.04882812 C-35.06904257 73.0370585 -37.03453085 73.01912348 -39 73 C-39.23460937 71.83597656 -39.46921875 70.67195313 -39.7109375 69.47265625 C-41.29280631 62.35424658 -43.50303661 55.40884167 -45.625 48.4375 C-46.04977999 47.03329409 -46.47426152 45.62899786 -46.8984375 44.22460938 C-47.92885397 40.8153584 -48.96330015 37.4073463 -50 34 C-50 34.66 -50 35.32 -50 36 C-50.66 36 -51.32 36 -52 36 C-53.08702837 39.37382077 -54.16917086 42.74918843 -55.25 46.125 C-55.73098145 47.62196411 -55.73098145 47.62196411 -56.22167969 49.14916992 C-58.38431083 55.92625238 -60.34673646 62.71222787 -62.078125 69.61328125 C-62.38234375 70.40089844 -62.6865625 71.18851562 -63 72 C-66.83031413 73.27677138 -70.23497484 72.8624174 -74.1875 72.5625 C-75.58110662 72.46174998 -76.9747448 72.36143606 -78.3684082 72.26147461 C-79.5668335 72.17518799 -80.76525879 72.08890137 -82 72 C-82.29132812 70.91162842 -82.58265625 69.82325684 -82.8828125 68.7019043 C-85.8888591 57.6035709 -89.30887803 46.69990634 -93 35.8125 C-93.51345798 34.28725647 -94.02647922 32.76186584 -94.5390625 31.23632812 C-95.5381911 28.26439858 -96.53961365 25.29325905 -97.54296875 22.32275391 C-99.71456153 15.88826333 -101.8572819 9.44415357 -104 3 C-101.7602852 0.7602852 -96.57102512 1.81468167 -93.5625 1.8125 C-92.67755859 1.80025391 -91.79261719 1.78800781 -90.88085938 1.77539062 C-90.03458984 1.77345703 -89.18832031 1.77152344 -88.31640625 1.76953125 C-87.53724854 1.76542236 -86.75809082 1.76131348 -85.95532227 1.75708008 C-84 2 -84 2 -82 4 C-81.22493351 6.43467945 -80.54076516 8.83729897 -79.90625 11.30859375 C-79.61796326 12.3923806 -79.61796326 12.3923806 -79.32385254 13.49806213 C-78.70942207 15.80955268 -78.10384938 18.12322441 -77.5 20.4375 C-76.89573452 22.74808238 -76.28943174 25.05802028 -75.67614746 27.3662262 C-75.29453992 28.80274342 -74.91812244 30.24065171 -74.54748535 31.68003845 C-73.69103512 34.90690698 -72.87274136 37.19088795 -71 40 C-70.84442627 39.44763672 -70.68885254 38.89527344 -70.52856445 38.32617188 C-67.8332477 28.77535406 -65.12709983 19.22902457 -62.1875 9.75 C-61.9810083 9.07775391 -61.7745166 8.40550781 -61.56176758 7.71289062 C-60.12196256 3.12196256 -60.12196256 3.12196256 -59 2 C-56.13732433 1.92674832 -53.299281 1.90761795 -50.4375 1.9375 C-49.63119141 1.94201172 -48.82488281 1.94652344 -47.99414062 1.95117188 C-45.99606244 1.96299482 -43.99802217 1.98093086 -42 2 C-39.76790419 6.96620047 -38.02162064 11.89193228 -36.51953125 17.12109375 C-36.19295784 18.23823509 -36.19295784 18.23823509 -35.85978699 19.37794495 C-35.1732393 21.72995356 -34.49277396 24.0836701 -33.8125 26.4375 C-33.34480392 28.04373715 -32.87670873 29.64985815 -32.40820312 31.25585938 C-31.2675195 35.16924595 -30.13228294 39.08417494 -29 43 C-27.914715 39.21404135 -26.8303706 35.4278146 -25.74682617 31.64135742 C-25.20083324 29.73407615 -24.65413636 27.82699644 -24.10742188 25.91992188 C-23.75615234 24.69208984 -23.40488281 23.46425781 -23.04296875 22.19921875 C-22.69540527 20.98669434 -22.3478418 19.77416992 -21.98974609 18.52490234 C-20.82998077 14.39448998 -19.75003637 10.24588386 -18.7043457 6.08520508 C-18 4 -18 4 -16 2 C-13.26565038 1.6936141 -10.61720179 1.4886664 -7.875 1.375 C-7.12089844 1.33632813 -6.36679687 1.29765625 -5.58984375 1.2578125 C-3.72696816 1.16348969 -1.86351745 1.08065338 0 1 C0 0.67 0 0.34 0 0 Z M-102 4 C-101.608125 5.175625 -101.21625 6.35125 -100.8125 7.5625 C-100.53341797 8.40039062 -100.25433594 9.23828125 -99.96679688 10.1015625 C-99.30819429 12.07603975 -98.64797265 14.04997752 -97.98632812 16.0234375 C-94.15437908 27.47343225 -90.42015824 38.9548229 -86.6875 50.4375 C-86.03585687 52.44077134 -85.3841645 54.44402665 -84.73242188 56.44726562 C-83.15438122 61.29799296 -81.57700314 66.14893527 -80 71 C-75.05 71 -70.1 71 -65 71 C-62.4719723 65.47134595 -60.69316266 59.9134806 -59.0625 54.0625 C-58.67553955 52.69218628 -58.67553955 52.69218628 -58.28076172 51.29418945 C-56.02410159 43.23579235 -53.95632471 35.13600923 -52 27 C-51.34 27 -50.68 27 -50 27 C-49.88591797 27.6494458 -49.77183594 28.2988916 -49.65429688 28.96801758 C-48.81007044 32.88012508 -47.67691484 36.67867325 -46.53125 40.51171875 C-46.17069519 41.72587212 -46.17069519 41.72587212 -45.80285645 42.96455383 C-45.29625201 44.66850563 -44.78853923 46.37212825 -44.27978516 48.07543945 C-43.49983443 50.68805461 -42.72428462 53.30194768 -41.94921875 55.91601562 C-41.45599079 57.57299457 -40.96251 59.22989827 -40.46875 60.88671875 C-40.12028015 62.06170174 -40.12028015 62.06170174 -39.76477051 63.26042175 C-38.60659269 67.21544196 -38.60659269 67.21544196 -37 71 C-31.39 71 -25.78 71 -20 71 C-19.32324219 68.46570313 -18.64648438 65.93140625 -17.94921875 63.3203125 C-15.03459065 52.67717766 -11.44747351 42.28927002 -7.8125 31.875 C-6.86558371 29.15458287 -5.92036473 26.43361498 -4.97917175 23.71121216 C-4.40055807 22.03818753 -3.81869589 20.36628116 -3.23286438 18.69577026 C-2.96886337 17.93362213 -2.70486237 17.171474 -2.43286133 16.38623047 C-2.08908195 15.40177444 -2.08908195 15.40177444 -1.73835754 14.39743042 C-0.68345929 10.97219939 0.13075361 7.47698557 1 4 C-4.61 4 -10.22 4 -16 4 C-20.41955478 18.57809454 -24.80523727 33.09811332 -28 48 C-28.66 48 -29.32 48 -30 48 C-30.22429687 46.71351563 -30.44859375 45.42703125 -30.6796875 44.1015625 C-32.28987752 36.0506124 -34.77299876 28.23300832 -37.125 20.375 C-37.59806167 18.78267247 -38.07072117 17.19022541 -38.54296875 15.59765625 C-39.68994432 11.7301351 -40.84512627 7.86520469 -42 4 C-47.61 4 -53.22 4 -59 4 C-60.22950389 8.05194992 -61.45713669 12.10438239 -62.68041992 16.15820312 C-63.09540858 17.53156074 -63.51139229 18.90461815 -63.9284668 20.27734375 C-66.51655732 28.79842158 -68.94326259 37.33166409 -71 46 C-74.54495066 37.90286178 -76.91128638 29.58793531 -79.1875 21.0625 C-79.54565499 19.73617435 -79.90437564 18.41000132 -80.26367188 17.08398438 C-80.91734402 14.67147523 -81.56829808 12.25822668 -82.21557617 9.84399414 C-82.75713533 7.88052615 -83.35591205 5.93226385 -84 4 C-89.94 4 -95.88 4 -102 4 Z " fill="#0F643D" transform="translate(750,400)"/>
<path d="M0 0 C6.6 0.33 13.2 0.66 20 1 C19.67 1.66 19.34 2.32 19 3 C18.87705231 5.98947039 18.81421231 8.95711867 18.79467773 11.94775391 C18.77982834 13.33807579 18.77982834 13.33807579 18.76467896 14.75648499 C18.7330118 17.82981789 18.70828592 20.90316628 18.68359375 23.9765625 C18.66302873 26.10363168 18.64203238 28.23069674 18.62062073 30.35775757 C18.56535342 35.96371116 18.5159647 41.56970192 18.46777344 47.17572021 C18.4175924 52.89322223 18.36188862 58.6106701 18.30664062 64.328125 C18.19900206 75.55203885 18.09807992 86.77599855 18 98 C12.06 98 6.12 98 0 98 C-1.1931476 94.42055721 -1.13979919 91.17067952 -1.12939453 87.44604492 C-1.13114685 86.67805573 -1.13289917 85.91006653 -1.13470459 85.11880493 C-1.1391142 82.57267003 -1.13618505 80.0266044 -1.1328125 77.48046875 C-1.13348655 75.70225511 -1.13445743 73.92404157 -1.13571167 72.14582825 C-1.13718806 68.40914029 -1.13503877 64.6724762 -1.13037109 60.93579102 C-1.12471933 56.1830638 -1.12792399 51.43039362 -1.13394356 46.67766857 C-1.13758985 42.9978443 -1.1363913 39.3180331 -1.13381577 35.63820839 C-1.13315531 33.88860378 -1.13394357 32.13899792 -1.13629532 30.38939476 C-1.14697321 20.19784031 -0.85948354 10.16230469 0 0 Z M3 3 C3 33.36 3 63.72 3 95 C6.96 95 10.92 95 15 95 C15 64.64 15 34.28 15 3 C11.04 3 7.08 3 3 3 Z " fill="#169763" transform="translate(545,375)"/>
<path d="M0 0 C0.33 0 0.66 0 1 0 C1.33 3.63 1.66 7.26 2 11 C1.01 11.495 1.01 11.495 0 12 C-1.125 6.25 -1.125 6.25 0 4 C-4.95 4 -9.9 4 -15 4 C-15 26.11 -15 48.22 -15 71 C-10.05 71 -5.1 71 0 71 C-0.02618408 69.73929687 -0.05236816 68.47859375 -0.0793457 67.1796875 C-0.17024982 62.47593118 -0.2273951 57.77225159 -0.2746582 53.06787109 C-0.29971104 51.03681353 -0.3337632 49.0058453 -0.37719727 46.97509766 C-0.43825687 44.04567352 -0.46630227 41.11744721 -0.48828125 38.1875 C-0.51408768 37.28821777 -0.5398941 36.38893555 -0.56648254 35.46240234 C-0.56925331 29.15067502 0.86036054 24.84052317 5 20 C9.34372215 16.97828024 12.76927949 16.52447995 18 17 C21.83443612 17.8025564 22.79612357 18.71806171 25.12011719 21.93188477 C27.71370018 26.67518811 27.5058604 31.23480653 27.390625 36.52734375 C27.38496521 37.51626114 27.37930542 38.50517853 27.37347412 39.52406311 C27.35120015 42.66238143 27.30101998 45.79953057 27.25 48.9375 C27.22992342 51.07355114 27.21167468 53.2096203 27.1953125 55.34570312 C27.15136468 60.56424809 27.08239898 65.78192626 27 71 C32.28 71 37.56 71 43 71 C42.93087599 64.04368024 42.84278786 57.08794739 42.73754883 50.13208008 C42.7044098 47.76853984 42.67634398 45.40492255 42.65356445 43.04125977 C42.61981577 39.63264306 42.56748871 36.22472537 42.51171875 32.81640625 C42.50532883 31.76916885 42.4989389 30.72193146 42.49235535 29.64295959 C42.34255315 22.07225135 41.22277764 15.65170613 37.25 9.125 C31.07309133 3.29125292 24.734722 3.54139246 16.54296875 3.703125 C12.25460131 4.06245899 9.69572993 4.86468937 6 7 C5.195625 7.391875 4.39125 7.78375 3.5625 8.1875 C3.046875 8.455625 2.53125 8.72375 2 9 C4.57015918 5.03767127 7.06660663 2.98198478 11.59375 1.50390625 C20.7823288 -0.42032535 28.84250034 0.71795476 36.75 5.75 C41.13400728 10.13400728 43.81893234 15.24612571 44.12025452 21.49310303 C44.11803391 22.42575989 44.11581329 23.35841675 44.11352539 24.31933594 C44.11344986 25.38013367 44.11337433 26.4409314 44.11329651 27.53387451 C44.10813522 28.67253967 44.10297394 29.81120483 44.09765625 30.984375 C44.0962413 32.15510559 44.09482635 33.32583618 44.09336853 34.53204346 C44.0877709 38.27138829 44.0752188 42.01067326 44.0625 45.75 C44.0574847 48.28515539 44.05292184 50.82031171 44.04882812 53.35546875 C44.03780224 59.57033293 44.02106644 65.78516219 44 72 C40.6717269 73.66413655 37.00266027 72.81867406 33.375 72.5625 C32.57320313 72.51029297 31.77140625 72.45808594 30.9453125 72.40429688 C28.96320897 72.27451629 26.98155501 72.13790265 25 72 C25.01047363 70.72882324 25.02094727 69.45764648 25.03173828 68.14794922 C25.06802194 63.41799756 25.09093096 58.68805813 25.10986328 53.95800781 C25.11990179 51.91339039 25.13353542 49.86878726 25.15087891 47.82421875 C25.1752217 44.88017239 25.18650478 41.93631637 25.1953125 38.9921875 C25.20563507 38.0825827 25.21595764 37.17297791 25.22659302 36.23580933 C25.22756157 30.71897993 24.9845832 25.83855537 21.7109375 21.15625 C18.01991911 18.66186314 13.22677737 19.3264346 9 20 C5.58688333 22.52570633 4.33362232 23.99913304 3 28 C2.88650152 29.45706917 2.82398525 30.91844959 2.79467773 32.37963867 C2.77473251 33.26032516 2.75478729 34.14101166 2.73423767 35.04838562 C2.70916893 36.46882927 2.70916893 36.46882927 2.68359375 37.91796875 C2.66281265 38.89034988 2.64203156 39.86273102 2.62062073 40.86457825 C2.55521252 43.97214665 2.49628071 47.07979985 2.4375 50.1875 C2.39430649 52.29362858 2.35069193 54.39974856 2.30664062 56.50585938 C2.19954001 61.67048591 2.09824781 66.83519778 2 72 C-2 73 -2 73 -17 72 C-17 49.23 -17 26.46 -17 3 C-9.125 0.75 -9.125 0.75 -4.5625 1.375 C-3.69753906 1.48585938 -2.83257812 1.59671875 -1.94140625 1.7109375 C-1.30074219 1.80632812 -0.66007812 1.90171875 0 2 C0 1.34 0 0.68 0 0 Z " fill="#0E5D36" transform="translate(267,400)"/>
<path d="M0 0 C0.33 0.66 0.66 1.32 1 2 C8.61730174 1.88239798 16.23446029 1.75756641 23.8515625 1.62768555 C26.44333199 1.58434872 29.03512979 1.54267275 31.62695312 1.50268555 C35.35034728 1.44495298 39.07359904 1.3812667 42.796875 1.31640625 C43.95741394 1.29969376 45.11795288 1.28298126 46.31365967 1.26576233 C47.93488739 1.2358445 47.93488739 1.2358445 49.58886719 1.20532227 C50.53928894 1.18977798 51.48971069 1.1742337 52.46893311 1.15821838 C54.96872129 1.08257732 54.96872129 1.08257732 57.19854736 0.42930603 C59 0 59 0 61.234375 0.92578125 C63.9046564 4.06277113 63.42751999 7.27864638 63.25 11.1875 C63.23195313 11.93708984 63.21390625 12.68667969 63.1953125 13.45898438 C63.14824109 15.3065371 63.07649766 17.15343159 63 19 C58.35908635 19.90931025 53.86576079 20.14650014 49.15234375 20.1328125 C48.05086754 20.13424759 48.05086754 20.13424759 46.92713928 20.13571167 C45.38331008 20.13638875 43.83947795 20.13456758 42.2956543 20.13037109 C39.9411782 20.12500838 37.58689217 20.13033608 35.23242188 20.13671875 C33.72656208 20.13605803 32.22070241 20.13477701 30.71484375 20.1328125 C30.01576401 20.13483673 29.31668427 20.13686096 28.59642029 20.13894653 C24.84526546 20.12105708 21.72629728 19.74525946 18 19 C18 26.26 18 33.52 18 41 C22.95 40.7525 22.95 40.7525 28 40.5 C37.34377142 40.05449411 46.64649262 39.87939604 56 40 C56.75712312 44.018118 57.11233839 47.78825175 57.0625 51.875 C57.05347656 52.84179688 57.04445313 53.80859375 57.03515625 54.8046875 C57.02355469 55.52914062 57.01195312 56.25359375 57 57 C53.23152584 58.20209556 49.62073676 58.132906 45.6875 58.125 C44.41261719 58.12757813 43.13773438 58.13015625 41.82421875 58.1328125 C38.11197286 58.00388874 34.6584119 57.59632587 31 57 C31 56.67 31 56.34 31 56 C38.92 56 46.84 56 55 56 C55 51.38 55 46.76 55 42 C42.46 42 29.92 42 17 42 C17 34.08 17 26.16 17 18 C31.19 18 45.38 18 60 18 C60 13.05 60 8.1 60 3 C40.53 3 21.06 3 1 3 C1 34.02 1 65.04 1 97 C6.28 97 11.56 97 17 97 C17 83.47 17 69.94 17 56 C19.64 56 22.28 56 25 56 C25 56.33 25 56.66 25 57 C22.69 57 20.38 57 18 57 C18 70.53 18 84.06 18 98 C14.6717269 99.66413655 11.00266027 98.81867406 7.375 98.5625 C6.57320313 98.51029297 5.77140625 98.45808594 4.9453125 98.40429688 C2.96320897 98.27451629 0.98155501 98.13790265 -1 98 C-1.02319135 86.25597267 -1.04094973 74.51195082 -1.05181217 62.76790524 C-1.05702613 57.31441882 -1.06409678 51.86094809 -1.07543945 46.4074707 C-1.08632117 41.14254668 -1.09228805 35.87763773 -1.09487724 30.61270332 C-1.09672196 28.60611293 -1.10032422 26.59952334 -1.10573006 24.59293938 C-1.11301061 21.77800603 -1.11398798 18.96313464 -1.11352539 16.14819336 C-1.11712067 15.32244308 -1.12071594 14.49669281 -1.12442017 13.6459198 C-1.11616838 8.99191051 -0.77281436 4.5911197 0 0 Z " fill="#0C4D29" transform="translate(473,374)"/>
<path d="M0 0 C-0.82242188 0.268125 -1.64484375 0.53625 -2.4921875 0.8125 C-15.84119977 5.4985274 -25.05676945 12.78198075 -31.28125 25.6484375 C-34.65573223 33.67488452 -35.20337144 41.12371584 -35.25 49.75 C-35.270625 50.6884375 -35.29125 51.626875 -35.3125 52.59375 C-35.38022819 64.85255153 -31.19851122 76.68240625 -22.8125 85.8125 C-14.016185 93.92617415 -3.45211781 97.39460601 8.3125 97.3125 C9.15409668 97.30686035 9.99569336 97.3012207 10.86279297 97.29541016 C22.11825414 97.07548337 30.63344883 93.95663238 38.94140625 86.18359375 C43.46112513 81.35149689 46.32400338 76.01790945 49 70 C48.02160156 69.81824219 48.02160156 69.81824219 47.0234375 69.6328125 C42.21353658 68.71056011 37.60974535 67.69832723 33 66 C32.835 66.99 32.67 67.98 32.5 69 C30.95943693 74.30039882 27.30047685 77.71922384 23 81 C17.13724301 84.10746837 11.52156602 84.31055076 5 84 C5 83.67 5 83.34 5 83 C5.9178125 82.85304688 6.835625 82.70609375 7.78125 82.5546875 C16.89197506 80.88949195 23.39861759 79.19251041 28.8125 71.38671875 C30.29490184 68.96065833 31.68517837 66.5200748 33 64 C45.66970387 67.07517084 45.66970387 67.07517084 51 69 C49.73356288 77.99495085 42.96881081 86.41910749 36 92 C25.07999331 99.73060435 11.89152576 101.47818567 -1.13671875 99.53125 C-13.3112951 96.91239107 -22.78712407 90.39014139 -29.9453125 80.2421875 C-38.31522278 66.82931872 -39.76577833 52.21330013 -37.53125 36.7578125 C-33.88637191 21.78777747 -25.70303553 10.46830503 -12.7109375 2.41015625 C-4.64388093 -1.78610805 -4.64388093 -1.78610805 0 0 Z " fill="#10643D" transform="translate(109,376)"/>
<path d="M0 0 C2.76285884 2.76285884 3.57635335 5.99884514 4.8125 9.625 C5.09875244 10.45443115 5.38500488 11.2838623 5.67993164 12.13842773 C8.87961634 21.50196181 11.95970481 30.90664152 15.03695679 40.31097412 C15.63766112 42.14637025 16.23957112 43.98137222 16.84268188 45.815979 C17.70059196 48.42920179 18.55235899 51.04434646 19.40234375 53.66015625 C19.66451691 54.45626816 19.92669006 55.25238007 20.19680786 56.07261658 C21.1921704 59.15475163 22 61.73949065 22 65 C26.95 64.67 31.9 64.34 37 64 C37.51949219 62.2365625 38.03898438 60.473125 38.57421875 58.65625 C42.28771345 46.073312 46.01806913 33.50096567 50 21 C50.66 21 51.32 21 52 21 C55.53781901 31.26356285 58.82879194 41.57913292 61.875 52 C62.1851001 53.05638672 62.4952002 54.11277344 62.81469727 55.20117188 C63.10014404 56.18666016 63.38559082 57.17214844 63.6796875 58.1875 C63.93476074 59.06792969 64.18983398 59.94835937 64.45263672 60.85546875 C65 63 65 63 65 65 C70.61 65 76.22 65 82 65 C82.33 62.69 82.66 60.38 83 58 C83.33863623 56.56221919 83.7106546 55.13151369 84.12890625 53.71484375 C84.35562012 52.94688477 84.58233398 52.17892578 84.81591797 51.38769531 C85.18547607 50.17484863 85.18547607 50.17484863 85.5625 48.9375 C85.94752686 47.66084473 85.94752686 47.66084473 86.34033203 46.35839844 C89.49613134 36.0997234 93.2280099 26.04519289 97 16 C98.39715798 20.43817036 97.06985655 23.66569341 95.578125 27.9140625 C95.1871463 29.06858414 95.1871463 29.06858414 94.78826904 30.24642944 C93.95201761 32.70943811 93.10152442 35.16723467 92.25 37.625 C91.41753414 40.05721028 90.58803739 42.4904113 89.75964355 44.92401123 C89.2256951 46.48977244 88.68902968 48.05460997 88.14953613 49.61846924 C86.47798783 54.48587316 84.97567048 59.36432982 83.72949219 64.36083984 C83.48875977 64.9017627 83.24802734 65.44268555 83 66 C80.29283758 66.90238747 78.76223232 67.11851302 75.98828125 67.09765625 C74.85229492 67.09282227 74.85229492 67.09282227 73.69335938 67.08789062 C72.51483398 67.07532227 72.51483398 67.07532227 71.3125 67.0625 C70.51521484 67.05798828 69.71792969 67.05347656 68.89648438 67.04882812 C66.93095743 67.0370585 64.96546915 67.01912348 63 67 C62.76539063 65.83597656 62.53078125 64.67195313 62.2890625 63.47265625 C60.70719369 56.35424658 58.49696339 49.40884167 56.375 42.4375 C55.95022001 41.03329409 55.52573848 39.62899786 55.1015625 38.22460938 C54.07114603 34.8153584 53.03669985 31.4073463 52 28 C52 28.66 52 29.32 52 30 C51.34 30 50.68 30 50 30 C48.91297163 33.37382077 47.83082914 36.74918843 46.75 40.125 C46.26901855 41.62196411 46.26901855 41.62196411 45.77832031 43.14916992 C43.61568917 49.92625238 41.65326354 56.71222787 39.921875 63.61328125 C39.61765625 64.40089844 39.3134375 65.18851562 39 66 C35.16968587 67.27677138 31.76502516 66.8624174 27.8125 66.5625 C26.41889338 66.46174998 25.0252552 66.36143606 23.6315918 66.26147461 C22.4331665 66.17518799 21.23474121 66.08890137 20 66 C19.71012207 64.915979 19.42024414 63.83195801 19.12158203 62.71508789 C16.08162713 51.48468277 12.60877467 40.4543398 8.875 29.4375 C8.34461766 27.86147425 7.81466882 26.28530256 7.28515625 24.70898438 C4.64971629 16.85429632 4.64971629 16.85429632 1.96582031 9.01611328 C0 3.30878151 0 3.30878151 0 0 Z " fill="#0D5B35" transform="translate(648,406)"/>
<path d="M0 0 C2.47897349 -0.00067492 4.95794691 -0.00164652 7.43692017 -0.00289917 C12.61615635 -0.00436781 17.79537521 -0.00224885 22.97460938 0.00244141 C29.57659984 0.00813216 36.17854959 0.00485847 42.78053856 -0.00113106 C47.89554139 -0.00476435 53.01053474 -0.00358532 58.12553787 -0.00100327 C60.55813222 -0.00034133 62.99072746 -0.00113646 65.42332077 -0.00348282 C100.79467028 -0.03011565 100.79467028 -0.03011565 105.5390625 3.1328125 C104.83983075 3.13096891 104.140599 3.12912533 103.42017841 3.12722588 C86.35803689 3.08293894 69.29591008 3.04990364 52.23372364 3.02918816 C43.98237346 3.01890246 35.73106178 3.00489427 27.47973633 2.98193359 C20.28274419 2.96191643 13.08577996 2.94907642 5.88876075 2.94463551 C2.08266885 2.94204215 -1.72334324 2.93600393 -5.52940941 2.92135239 C-9.12201506 2.90763644 -12.71450909 2.90361772 -16.30713844 2.90659714 C-18.2333787 2.90579653 -20.1596072 2.89510902 -22.08581543 2.88397217 C-32.83465481 2.90903705 -43.28696992 3.77235637 -53.2734375 7.9453125 C-53.90016357 8.20449463 -54.52688965 8.46367676 -55.17260742 8.73071289 C-58.73438151 10.2457028 -62.02851504 11.96581569 -65.2734375 14.0703125 C-66.3253125 14.7509375 -67.3771875 15.4315625 -68.4609375 16.1328125 C-69.1209375 15.8028125 -69.7809375 15.4728125 -70.4609375 15.1328125 C-49.15035059 -1.22730621 -25.60327114 -0.0246481 0 0 Z " fill="#148F60" transform="translate(377.4609375,12.8671875)"/>
<path d="M0 0 C1.18780123 3.56340369 0.69287001 4.50224116 -0.41259766 8.01025391 C-2.66574449 16.57535438 -2.43345203 25.04304705 -2.3984375 33.8359375 C-2.40046398 35.64612952 -2.40338017 37.45632075 -2.40713501 39.26651001 C-2.41153363 43.04363853 -2.40520881 46.82055283 -2.39111328 50.59765625 C-2.37404762 55.40072442 -2.38386177 60.20328851 -2.40183067 65.00633812 C-2.41275661 68.74022098 -2.40918173 72.47398762 -2.4014473 76.2078743 C-2.39946825 77.97701708 -2.40182228 79.74617096 -2.40888596 81.51530075 C-2.47230812 101.86237706 1.05193684 118.678372 14 135 C13.67 135.66 13.34 136.32 13 137 C-1.14325013 122.85674987 -4.81045979 102.93325253 -5.3515625 83.6796875 C-5.37521378 82.91035889 -5.39886505 82.14103027 -5.42323303 81.34838867 C-5.49652638 78.85738269 -5.56205371 76.36628804 -5.625 73.875 C-5.64712555 73.01972717 -5.6692511 72.16445435 -5.69204712 71.28326416 C-5.98498525 59.46978843 -6.04818427 47.68704492 -5.6875 35.875 C-5.65285645 34.65796387 -5.61821289 33.44092773 -5.58251953 32.18701172 C-5.15974808 21.06332176 -3.90169611 10.46363956 0 0 Z " fill="#117046" transform="translate(281,62)"/>
<path d="M0 0 C0.74958984 0.05220703 1.49917969 0.10441406 2.27148438 0.15820312 C4.11887082 0.28763784 5.96574371 0.42436518 7.8125 0.5625 C10.68434328 6.52709758 12.97826477 12.62026822 15.125 18.875 C15.40359863 19.66374512 15.68219727 20.45249023 15.96923828 21.26513672 C16.22302246 22.01939941 16.47680664 22.77366211 16.73828125 23.55078125 C16.96942627 24.22665283 17.20057129 24.90252441 17.4387207 25.59887695 C17.87410568 27.88614105 17.52414166 29.36753121 16.8125 31.5625 C15.52693334 27.75518645 14.24528817 23.94657809 12.96728516 20.13671875 C12.53184244 18.84045677 12.09532408 17.54455562 11.65771484 16.24902344 C11.02940673 14.38831959 10.40526741 12.52620969 9.78125 10.6640625 C9.40419922 9.54338379 9.02714844 8.42270508 8.63867188 7.26806641 C7.8125 4.5625 7.8125 4.5625 7.8125 2.5625 C2.2025 2.5625 -3.4075 2.5625 -9.1875 2.5625 C-7.56311348 7.00022514 -5.93814406 11.4377355 -4.3125 15.875 C-4.06717529 16.54477875 -3.82185059 17.2145575 -3.5690918 17.90463257 C-0.83847419 25.35821962 1.89875846 32.80920272 4.6640625 40.25 C5.11023926 41.45100342 5.55641602 42.65200684 6.01611328 43.8894043 C6.8594916 46.15699605 7.70415003 48.42411224 8.55029297 50.69067383 C10.753695 56.61444606 12.85340065 62.55333948 14.8125 68.5625 C19.7625 68.5625 24.7125 68.5625 29.8125 68.5625 C31.1325 65.2625 32.4525 61.9625 33.8125 58.5625 C34.82777342 62.62359369 34.86680484 63.23216838 33.375 66.8125 C32.94380859 67.87210938 32.94380859 67.87210938 32.50390625 68.953125 C32.16166016 69.74976563 32.16166016 69.74976563 31.8125 70.5625 C29.58406512 70.75850577 27.35470107 70.94396569 25.125 71.125 C23.26294922 71.28162109 23.26294922 71.28162109 21.36328125 71.44140625 C15.32690946 71.64726711 15.32690946 71.64726711 12.8125 70.5625 C11.1049518 67.67024164 10.14728766 64.54073336 9.10546875 61.359375 C8.77638016 60.41177307 8.44729156 59.46417114 8.10823059 58.487854 C7.05258836 55.43572024 6.02552937 52.37486807 5 49.3125 C3.98349444 46.33602417 2.96110326 43.36162529 1.93753052 40.38757324 C1.25763964 38.40990868 0.58094283 36.43114316 -0.09255981 34.45129395 C-2.77447945 26.6093935 -5.6861798 18.8696309 -8.75947571 11.17279053 C-9.07821152 10.36070129 -9.39694733 9.54861206 -9.7253418 8.71191406 C-10.00838669 8.00423889 -10.29143158 7.29656372 -10.58305359 6.56744385 C-11.1875 4.5625 -11.1875 4.5625 -11.1875 0.5625 C-7.35939179 -0.71353607 -3.95274893 -0.30033987 0 0 Z " fill="#0B5832" transform="translate(328.1875,401.4375)"/>
<path d="M0 0 C3.07536854 0.65900754 5.07735566 1.53867783 8 3 C8 8.28 8 13.56 8 19 C3.24564087 19.79239319 -1.0766034 20.14666751 -5.84765625 20.1328125 C-6.94913246 20.13424759 -6.94913246 20.13424759 -8.07286072 20.13571167 C-9.61668992 20.13638875 -11.16052205 20.13456758 -12.7043457 20.13037109 C-15.0588218 20.12500838 -17.41310783 20.13033608 -19.76757812 20.13671875 C-21.27343792 20.13605803 -22.77929759 20.13477701 -24.28515625 20.1328125 C-24.98423599 20.13483673 -25.68331573 20.13686096 -26.40357971 20.13894653 C-30.15473454 20.12105708 -33.27370272 19.74525946 -37 19 C-37 26.26 -37 33.52 -37 41 C-33.7 40.835 -30.4 40.67 -27 40.5 C-17.65622858 40.05449411 -8.35350738 39.87939604 1 40 C1.75712312 44.018118 2.11233839 47.78825175 2.0625 51.875 C2.05347656 52.84179688 2.04445313 53.80859375 2.03515625 54.8046875 C2.02355469 55.52914062 2.01195312 56.25359375 2 57 C-1.76847416 58.20209556 -5.37926324 58.132906 -9.3125 58.125 C-10.58738281 58.12757813 -11.86226562 58.13015625 -13.17578125 58.1328125 C-16.88802714 58.00388874 -20.3415881 57.59632587 -24 57 C-24 56.67 -24 56.34 -24 56 C-16.08 56 -8.16 56 0 56 C0 51.38 0 46.76 0 42 C-12.54 42 -25.08 42 -38 42 C-38 34.08 -38 26.16 -38 18 C-23.81 18 -9.62 18 5 18 C5 13.05 5 8.1 5 3 C1.7 3 -1.6 3 -5 3 C-5 2.67 -5 2.34 -5 2 C-3.35 1.67 -1.7 1.34 0 1 C0 0.67 0 0.34 0 0 Z " fill="#0E5932" transform="translate(528,374)"/>
<path d="M0 0 C0.94875 0.845625 1.8975 1.69125 2.875 2.5625 C17.14826321 14.73928793 31.15536247 20.89667741 49.78076172 22.1784668 C57.33440413 22.76939801 63.39874006 24.55877606 69 30 C71.86842626 35.20639013 71.08096827 40.66503937 70.83398438 46.40625 C70.72053305 51.10078747 70.80523211 54.25735432 74 58 C78.74502221 60.87750343 84.24358595 61.5555955 89.6640625 60.71875 C93.39069728 59.57209315 96.4928346 57.59970422 99.73828125 55.47265625 C101.7761272 54.14576865 103.80508137 53.0396983 106 52 C101.33718738 58.47061704 94.89751179 62.07887858 87.05078125 63.5546875 C81.39641167 63.8228166 77.39244464 62.75018657 72.65625 59.6796875 C69.82012234 56.80342596 68.13428048 53.913283 67.84667969 49.81542969 C67.89694298 46.50212749 68.07408945 43.20648617 68.29296875 39.90039062 C68.45353132 35.49190099 68.50009675 33.65670145 65.7421875 30.03515625 C61.73538835 27.06144919 58.82938472 25.78778236 53.8515625 25.32421875 C52.35375244 25.17025635 52.35375244 25.17025635 50.82568359 25.01318359 C49.76945801 24.90570801 48.71323242 24.79823242 47.625 24.6875 C29.57246715 22.59573693 13.87763069 16.78629995 1.0390625 3.41015625 C0 2 0 2 0 0 Z " fill="#117549" transform="translate(295,199)"/>
<path d="M0 0 C0.66 0 1.32 0 2 0 C1.5875913 8.09352081 -0.93555864 14.67170324 -4 22.125 C-4.74451872 23.97543999 -5.48902688 25.82588448 -6.23246765 27.67675781 C-6.98843191 29.55506185 -7.74904733 31.43143242 -8.51025391 33.30761719 C-10.78164016 38.93731986 -12.98477433 44.59316333 -15.1875 50.25 C-15.93071335 52.15114968 -16.67417423 54.05220262 -17.41796875 55.953125 C-17.94534216 57.30207174 -18.4726986 58.65102511 -19 60 C-20.46915004 55.59254989 -18.47505281 52.43880295 -16.8125 48.3125 C-16.07805305 46.4406427 -15.34508319 44.56820544 -14.61328125 42.6953125 C-14.20287598 41.65020508 -13.7924707 40.60509766 -13.36962891 39.52832031 C-10.96519388 33.33422138 -8.64669056 27.10784406 -6.32089233 20.88388062 C-5.26457975 18.05760927 -4.20597395 15.23219947 -3.14729309 12.40681458 C-2.09765131 9.6047468 -1.04891128 6.80234131 0 4 C-5.61 4 -11.22 4 -17 4 C-17.33 6.31 -17.66 8.62 -18 11 C-18.45512286 12.60829944 -18.95947914 14.20390329 -19.5234375 15.77734375 C-19.8225 16.62103516 -20.1215625 17.46472656 -20.4296875 18.33398438 C-20.74164063 19.19314453 -21.05359375 20.05230469 -21.375 20.9375 C-21.67921875 21.79279297 -21.9834375 22.64808594 -22.296875 23.52929688 C-24.14497537 28.70634726 -26.05749064 33.85771294 -28 39 C-29.13920872 35.64079479 -28.85791784 33.72731589 -27.70703125 30.40234375 C-27.40845215 29.52296143 -27.10987305 28.6435791 -26.80224609 27.73754883 C-26.47562988 26.81353271 -26.14901367 25.8895166 -25.8125 24.9375 C-25.48588379 23.99608154 -25.15926758 23.05466309 -24.82275391 22.0847168 C-24.17602332 20.22468366 -23.52541075 18.36599497 -22.87060547 16.50878906 C-22.1499303 14.43204815 -21.47679815 12.33887728 -20.81640625 10.2421875 C-20.50574219 9.27539062 -20.19507813 8.30859375 -19.875 7.3125 C-19.62492187 6.50425781 -19.37484375 5.69601562 -19.1171875 4.86328125 C-17.49742695 2.16179251 -16.01606404 1.79281795 -13 1 C-9.66796875 0.8046875 -9.66796875 0.8046875 -6.1875 0.875 C-4.44533203 0.90207031 -4.44533203 0.90207031 -2.66796875 0.9296875 C-1.78753906 0.95289063 -0.90710938 0.97609375 0 1 C0 0.67 0 0.34 0 0 Z " fill="#0F683F" transform="translate(383,400)"/>
<path d="M0 0 C0.33 0 0.66 0 1 0 C1.99425393 4.20653705 2.22932595 8.33782421 2.3515625 12.640625 C2.37521378 13.38785828 2.39886505 14.13509155 2.42323303 14.90496826 C2.49716299 17.35317571 2.56236741 19.80147853 2.625 22.25 C2.64712555 23.08869629 2.6692511 23.92739258 2.69204712 24.79150391 C2.99749969 36.8708557 3.03853459 48.92171792 2.6875 61 C2.63553467 62.96114746 2.63553467 62.96114746 2.58251953 64.96191406 C1.47171531 96.52828469 1.47171531 96.52828469 -6 104 C-5.48719672 101.17493078 -4.84592099 98.46627466 -4.04876709 95.70495605 C-0.95297663 84.78632158 -0.39598269 74.58442236 -0.390625 63.28125 C-0.37560248 61.4432228 -0.358867 59.60520889 -0.34051514 57.76721191 C-0.29728571 52.98670751 -0.27694247 48.20638499 -0.26177979 43.42572021 C-0.24204644 38.52459144 -0.20009613 33.62365463 -0.16015625 28.72265625 C-0.08533675 19.14849737 -0.03475519 9.57438244 0 0 Z " fill="#0F683F" transform="translate(542,77)"/>
<path d="M0 0 C4.0950667 3.71413026 6.26655446 7.41520563 7.03515625 12.93359375 C7.22640382 18.39662228 6.50559059 22.646746 3.6875 27.4375 C-0.22093933 31.45016438 -3.45267708 33.58550322 -9.0625 33.6875 C-13.55653207 33.62922005 -16.53427371 33.04627529 -20.3125 30.4375 C-25.12155392 25.36127642 -26.80144427 20.68277071 -26.62890625 13.78125 C-25.92389376 8.55893523 -23.6065443 4.69836368 -19.875 1.0625 C-13.05494608 -3.26241224 -7.3403651 -3.46243637 0 0 Z M-22.125 5.5 C-24.97931492 10.15704013 -24.91233498 15.14804607 -24.3125 20.4375 C-23.23635825 23.36516947 -21.91308567 25.73651168 -20.3125 28.4375 C-19.3225 28.4375 -18.3325 28.4375 -17.3125 28.4375 C-17.3125 29.0975 -17.3125 29.7575 -17.3125 30.4375 C-11.69211242 32.24591174 -7.53479129 32.9593188 -2.0390625 30.49609375 C1.63892589 28.24103752 3.35274154 25.44177537 4.6875 21.4375 C5.34509519 14.06380973 5.4474072 8.32475364 0.6875 2.4375 C-3.42143221 -0.52475345 -7.18435587 -1.09291419 -12.1328125 -0.91796875 C-16.51451403 -0.20339019 -19.27709771 2.2592836 -22.125 5.5 Z " fill="#116E43" transform="translate(475.3125,105.5625)"/>
<path d="M0 0 C4.923364 3.4522393 7.55008466 8.02075288 8.6875 13.9375 C8.75374507 15.68636981 8.77302595 17.43752748 8.75 19.1875 C8.74097656 20.07953125 8.73195313 20.9715625 8.72265625 21.890625 C8.71105469 22.56609375 8.69945312 23.2415625 8.6875 23.9375 C8.3575 23.9375 8.0275 23.9375 7.6875 23.9375 C7.60113281 23.091875 7.51476562 22.24625 7.42578125 21.375 C6.20121454 11.23973181 6.20121454 11.23973181 0.6875 2.9375 C-3.14951639 0.44795832 -6.90059072 -0.32964159 -11.4375 0 C-16.66485243 1.26468204 -19.94766963 3.05497535 -23.125 7.4375 C-26.21200631 13.93646065 -26.14518906 20.850815 -24.125 27.6875 C-22.64329806 31.70424649 -20.69406923 34.23224462 -17.3125 36.9375 C-11.74429128 38.79356957 -6.28140298 38.84902916 -0.9375 36.375 C2.22700262 33.43653328 3.70460075 30.76166283 5.6875 26.9375 C6.3475 26.2775 7.0075 25.6175 7.6875 24.9375 C7.2082502 29.96962286 6.02055792 33.10448339 2.6875 36.9375 C-2.37966791 40.1130559 -7.30597504 41.81117636 -13.3125 40.9375 C-18.53467259 39.09495986 -22.39040497 36.77019562 -25.3125 31.9375 C-28.17116556 25.07670265 -28.67541858 16.60825882 -26.58984375 9.4609375 C-24.21544187 4.32761522 -21.00152499 1.43140277 -16.0625 -1.3125 C-10.2935998 -2.88583642 -5.29927636 -3.00555972 0 0 Z " fill="#0A5530" transform="translate(619.3125,419.0625)"/>
<path d="M0 0 C0.70640625 0.598125 1.4128125 1.19625 2.140625 1.8125 C7.09000765 6.35859962 10.98118093 11.51330266 13 18 C13.046875 20.125 13.046875 20.125 12 22 C8.98046875 23.484375 8.98046875 23.484375 5.1875 24.75 C3.94355469 25.17796875 2.69960937 25.6059375 1.41796875 26.046875 C-2 27 -2 27 -6 27 C-6.67408308 25.73308493 -7.33900497 24.46129251 -8 23.1875 C-8.556875 22.12595703 -8.556875 22.12595703 -9.125 21.04296875 C-10 19 -10 19 -10 16 C-7.61303418 18.96312998 -5.27451723 21.94993105 -3 25 C-1.01492176 24.43711205 0.96302563 23.84902373 2.9375 23.25 C4.03964844 22.92515625 5.14179688 22.6003125 6.27734375 22.265625 C9.07368211 21.28780479 9.07368211 21.28780479 10.03515625 19.16015625 C9.93901414 13.25275754 4.5989232 7.36633091 0.75 3.1875 C-9.86269845 -6.72391881 -23.26532522 -7.31236147 -37 -8 C-37 -8.33 -37 -8.66 -37 -9 C-23.92378044 -11.2784322 -10.23941386 -8.84685357 0 0 Z " fill="#10683F" transform="translate(147,383)"/>
<path d="M0 0 C0.33 0 0.66 0 1 0 C1.33 3.63 1.66 7.26 2 11 C1.01 11.495 1.01 11.495 0 12 C-1.125 6.25 -1.125 6.25 0 4 C-4.95 4 -9.9 4 -15 4 C-15 26.11 -15 48.22 -15 71 C-15.33 71 -15.66 71 -16 71 C-16.33 48.56 -16.66 26.12 -17 3 C-9.125 0.75 -9.125 0.75 -4.5625 1.375 C-3.69753906 1.48585938 -2.83257812 1.59671875 -1.94140625 1.7109375 C-1.30074219 1.80632812 -0.66007812 1.90171875 0 2 C0 1.34 0 0.68 0 0 Z " fill="#108A58" transform="translate(267,400)"/>
<path d="M0 0 C0.74958984 0.05220703 1.49917969 0.10441406 2.27148438 0.15820312 C4.11887082 0.28763784 5.96574371 0.42436518 7.8125 0.5625 C10.68434328 6.52709758 12.97826477 12.62026822 15.125 18.875 C15.40359863 19.66374512 15.68219727 20.45249023 15.96923828 21.26513672 C16.22302246 22.01939941 16.47680664 22.77366211 16.73828125 23.55078125 C16.96942627 24.22665283 17.20057129 24.90252441 17.4387207 25.59887695 C17.87410568 27.88614105 17.52414166 29.36753121 16.8125 31.5625 C15.52693334 27.75518645 14.24528817 23.94657809 12.96728516 20.13671875 C12.53184244 18.84045677 12.09532408 17.54455562 11.65771484 16.24902344 C11.02940673 14.38831959 10.40526741 12.52620969 9.78125 10.6640625 C9.40419922 9.54338379 9.02714844 8.42270508 8.63867188 7.26806641 C7.8125 4.5625 7.8125 4.5625 7.8125 2.5625 C2.2025 2.5625 -3.4075 2.5625 -9.1875 2.5625 C-8.506875 4.315625 -7.82625 6.06875 -7.125 7.875 C-5.0625 13.1875 -5.0625 13.1875 -6.1875 16.5625 C-7.02962256 14.64967875 -7.86088864 12.73207527 -8.6875 10.8125 C-9.1515625 9.74515625 -9.615625 8.6778125 -10.09375 7.578125 C-11.1875 4.5625 -11.1875 4.5625 -11.1875 0.5625 C-7.35939179 -0.71353607 -3.95274893 -0.30033987 0 0 Z " fill="#0F693F" transform="translate(328.1875,401.4375)"/>
<path d="M0 0 C12.54 0 25.08 0 38 0 C38 4.62 38 9.24 38 14 C25.46 13.67 12.92 13.34 0 13 C0 12.67 0 12.34 0 12 C11.88 12 23.76 12 36 12 C36 8.37 36 4.74 36 1 C24.12 1 12.24 1 0 1 C0 0.67 0 0.34 0 0 Z " fill="#1FD391" transform="translate(490,416)"/>
<path d="M0 0 C2.5625 2.0625 2.5625 2.0625 4 4 C3.195625 3.67 2.39125 3.34 1.5625 3 C-4.21356466 1.37864852 -8.89275425 0.98540019 -14.375 3.625 C-20.14938994 8.84944804 -20.57636162 14.60824075 -21 22 C-20.34 22.33 -19.68 22.66 -19 23 C-18.87625 24.1446875 -18.87625 24.1446875 -18.75 25.3125 C-18.20541913 28.26272152 -18.20541913 28.26272152 -15.3125 30.1875 C-12.23329935 31.87234564 -9.36706002 33.03798285 -6 34 C-6 34.33 -6 34.66 -6 35 C-12.28654496 34.67483388 -15.56859961 33.84362368 -20 29 C-23.70730021 23.0331409 -23.52544376 16.69557194 -22 10 C-20.125 6.5 -20.125 6.5 -18 4 C-17.54625 3.4225 -17.0925 2.845 -16.625 2.25 C-11.63904202 -1.58535229 -5.85033602 -1.58747258 0 0 Z " fill="#117246" transform="translate(416,104)"/>
<path d="M0 0 C1.29920099 2.49972849 2.27493153 4.8103245 3.1875 7.5 C4.98902964 10.97881586 6.37532236 12.61178383 9.90625 14.33984375 C15.34024369 16.05317385 20.23245622 15.8183073 25.375 13.4375 C28.53950262 10.49903328 30.01710075 7.82416283 32 4 C32.66 3.34 33.32 2.68 34 2 C33.5207502 7.03212286 32.33305792 10.16698339 29 14 C23.93283209 17.1755559 19.00652496 18.87367636 13 18 C7.85493001 16.18466398 3.71168245 13.8810284 1 9 C0.40984232 6.00381485 0.13283533 3.04857087 0 0 Z " fill="#10693F" transform="translate(593,442)"/>
<path d="M0 0 C0.33 0 0.66 0 1 0 C1.33 3.63 1.66 7.26 2 11 C1.01 11.495 1.01 11.495 0 12 C-1.125 6.25 -1.125 6.25 0 4 C-5.28 4 -10.56 4 -16 4 C-16 7.3 -16 10.6 -16 14 C-16.33 14 -16.66 14 -17 14 C-17 10.37 -17 6.74 -17 3 C-11.02197063 0.79072828 -6.26039609 1.06786859 0 2 C0 1.34 0 0.68 0 0 Z " fill="#15774A" transform="translate(267,400)"/>
<path d="M0 0 C0.33 0 0.66 0 1 0 C2.22683698 9.44242308 1.92221014 18.70693441 1.5625 28.1875 C1.50913872 29.72719194 1.45639993 31.26690559 1.40429688 32.80664062 C1.27669597 36.53803766 1.14071149 40.26907163 1 44 C0.67 44 0.34 44 0 44 C-0.16931862 39.34124223 -0.32967117 34.6822877 -0.48217773 30.02294922 C-0.53512895 28.44213828 -0.59041318 26.86140352 -0.64819336 25.28076172 C-0.95849981 16.74868349 -1.14827241 8.48871013 0 0 Z " fill="#14784E" transform="translate(543,109)"/>
<path d="M0 0 C2 2 2 2 2.125 5.625 C2.08375 6.73875 2.0425 7.8525 2 9 C2.66 9.33 3.32 9.66 4 10 C4.73075648 12.3140622 5.40138258 14.64828869 6 17 C6.99 17 7.98 17 9 17 C9 17.66 9 18.32 9 19 C11.31 19.33 13.62 19.66 16 20 C14.375 21.1875 14.375 21.1875 12 22 C6.39400084 20.01454196 3.58333301 16.84999941 0.75 11.75 C-0.32024333 7.82577447 -0.15850322 4.04183205 0 0 Z " fill="#148253" transform="translate(449,117)"/>
<path d="M0 0 C0.88494141 -0.01224609 1.76988281 -0.02449219 2.68164062 -0.03710938 C3.52791016 -0.03904297 4.37417969 -0.04097656 5.24609375 -0.04296875 C6.02525146 -0.04707764 6.80440918 -0.05118652 7.60717773 -0.05541992 C9.5625 0.1875 9.5625 0.1875 11.5625 2.1875 C11.5625 3.1775 11.5625 4.1675 11.5625 5.1875 C10.9025 5.1875 10.2425 5.1875 9.5625 5.1875 C9.5625 4.1975 9.5625 3.2075 9.5625 2.1875 C3.6225 2.1875 -2.3175 2.1875 -8.4375 2.1875 C-8.7675 2.8475 -9.0975 3.5075 -9.4375 4.1875 C-9.7675 3.1975 -10.0975 2.2075 -10.4375 1.1875 C-8.1977852 -1.0522148 -3.00852512 0.00218167 0 0 Z " fill="#177A4E" transform="translate(656.4375,401.8125)"/>
<path d="M0 0 C5.61 0 11.22 0 17 0 C14.05357143 11.25 14.05357143 11.25 12 15 C11.67 14.34 11.34 13.68 11 13 C11.66666667 11 12.33333333 9 13 7 C13.04099097 5.33383749 13.04808411 3.6659729 13 2 C11.23050905 1.89184775 9.45912513 1.81433917 7.6875 1.75 C6.20830078 1.68039062 6.20830078 1.68039062 4.69921875 1.609375 C1.85596306 1.73096572 1.85596306 1.73096572 0.14453125 4.015625 C-0.23316406 4.67046875 -0.61085938 5.3253125 -1 6 C-0.67 4.02 -0.34 2.04 0 0 Z " fill="#22C98A" transform="translate(734,404)"/>
<path d="M0 0 C0.94875 0.845625 1.8975 1.69125 2.875 2.5625 C6.67588417 5.83483586 10.71877689 8.66636591 14.86328125 11.484375 C17 13 17 13 19 15 C11.25747016 13.9640277 5.04367527 7.69447208 0 2 C0 1.34 0 0.68 0 0 Z " fill="#0F683F" transform="translate(295,199)"/>
<path d="M0 0 C0.66 0 1.32 0 2 0 C1.814375 0.928125 1.62875 1.85625 1.4375 2.8125 C0.75876119 6.01343771 0.75876119 6.01343771 2 9 C1.34 9 0.68 9 0 9 C-1.63676257 10.9600281 -1.63676257 10.9600281 -3 13 C-2.45144652 8.428721 -1.58255197 4.32564205 0 0 Z " fill="#117348" transform="translate(698,427)"/>
<path d="M0 0 C1.32 0.66 2.64 1.32 4 2 C2 4 2 4 0.12060547 4.13525391 C-0.62302246 4.08288574 -1.36665039 4.03051758 -2.1328125 3.9765625 C-2.93847656 3.925 -3.74414062 3.8734375 -4.57421875 3.8203125 C-5.41597656 3.75585938 -6.25773438 3.69140625 -7.125 3.625 C-7.97449219 3.56828125 -8.82398438 3.5115625 -9.69921875 3.453125 C-11.8001345 3.31149023 -13.90017334 3.15695674 -16 3 C-16 2.67 -16 2.34 -16 2 C-8.08 1.505 -8.08 1.505 0 1 C0 0.67 0 0.34 0 0 Z " fill="#249365" transform="translate(750,400)"/>
<path d="M0 0 C2.31 0 4.62 0 7 0 C7 0.33 7 0.66 7 1 C4.69 1 2.38 1 0 1 C0 0.67 0 0.34 0 0 Z " fill="#25B77E" transform="translate(506,374)"/>
<path d="M0 0 C2.31 0 4.62 0 7 0 C7 0.33 7 0.66 7 1 C4.69 1 2.38 1 0 1 C0 0.67 0 0.34 0 0 Z " fill="#28BA82" transform="translate(487,374)"/>
<path d="M0 0 C1 4 1 4 1 4 Z " fill="#29A071" transform="translate(69,418)"/>
<path d="M0 0 C0.99 0.495 0.99 0.495 2 1 C1.67 1.66 1.34 2.32 1 3 C0.67 2.01 0.34 1.02 0 0 Z " fill="#20B37D" transform="translate(364,112)"/>
<path d="M0 0 C3 1 3 1 3 1 Z " fill="#21B47B" transform="translate(202,419)"/>
<path d="M0 0 C3 1 3 1 3 1 Z " fill="#23B57F" transform="translate(559,374)"/>
<path d="M0 0 C3 1 3 1 3 1 Z " fill="#26B982" transform="translate(555,374)"/>
<path d="M0 0 C3 1 3 1 3 1 Z " fill="#27B77E" transform="translate(523,374)"/>
<path d="M0 0 C3 1 3 1 3 1 Z " fill="#27B97F" transform="translate(499,374)"/>
<path d="M0 0 C3 1 3 1 3 1 Z " fill="#27B880" transform="translate(495,374)"/>
<path d="M0 0 C3 1 3 1 3 1 Z " fill="#25B67E" transform="translate(479,374)"/>
<path d="M0 0 C3 1 3 1 3 1 Z " fill="#28B97F" transform="translate(475,374)"/>
<path d="" fill="#23AE79" transform="translate(0,0)"/>
<path d="" fill="#23BB82" transform="translate(0,0)"/>
<path d="" fill="#27AC7A" transform="translate(0,0)"/>
<path d="M0 0 C2 1 2 1 2 1 Z " fill="#269F6D" transform="translate(402,475)"/>
<path d="" fill="#26B079" transform="translate(0,0)"/>
<path d="M0 0 C2 1 2 1 2 1 Z " fill="#24B47D" transform="translate(606,456)"/>
<path d="" fill="#28A574" transform="translate(0,0)"/>
<path d="" fill="#24B47E" transform="translate(0,0)"/>
<path d="" fill="#26AC7A" transform="translate(0,0)"/>
<path d="" fill="#23B47D" transform="translate(0,0)"/>
<path d="M0 0 C2 1 2 1 2 1 Z " fill="#28A073" transform="translate(68,434)"/>
<path d="" fill="#26B078" transform="translate(0,0)"/>
<path d="" fill="#24B079" transform="translate(0,0)"/>
<path d="" fill="#26B179" transform="translate(0,0)"/>
<path d="" fill="#26B077" transform="translate(0,0)"/>
<path d="" fill="#23B47D" transform="translate(0,0)"/>
<path d="" fill="#26A172" transform="translate(0,0)"/>
<path d="" fill="#26AE76" transform="translate(0,0)"/>
<path d="M0 0 C2 1 2 1 2 1 Z " fill="#24AF7C" transform="translate(607,420)"/>
<path d="" fill="#27AE78" transform="translate(0,0)"/>
<path d="M0 0 C2 1 2 1 2 1 Z " fill="#28996C" transform="translate(746,400)"/>
<path d="M0 0 C2 1 2 1 2 1 Z " fill="#27A672" transform="translate(156,391)"/>
<path d="M0 0 C2 1 2 1 2 1 Z " fill="#25B479" transform="translate(536,381)"/>
<path d="M0 0 C2 1 2 1 2 1 Z " fill="#27B57C" transform="translate(548,374)"/>
<path d="M0 0 C2 1 2 1 2 1 Z " fill="#27BA80" transform="translate(520,374)"/>
<path d="M0 0 C2 1 2 1 2 1 Z " fill="#26B87C" transform="translate(503,374)"/>
<path d="" fill="#22AC77" transform="translate(0,0)"/>
<path d="" fill="#25AD7B" transform="translate(0,0)"/>
<path d="" fill="#25B980" transform="translate(0,0)"/>
<path d="" fill="#1FB27A" transform="translate(0,0)"/>
<path d="M0 0 C2 1 2 1 2 1 Z " fill="#21B47C" transform="translate(360,108)"/>
<path d="M0 0 C2 1 2 1 2 1 Z " fill="#21B87E" transform="translate(466,106)"/>
<path d="M0 0 C2 1 2 1 2 1 Z " fill="#21B87E" transform="translate(410,106)"/>
<path d="" fill="#22B07C" transform="translate(0,0)"/>
<path d="" fill="#25B27E" transform="translate(0,0)"/>
<path d="M0 0 C2 1 2 1 2 1 Z " fill="#22B57F" transform="translate(331,14)"/>
<path d="" fill="#279F70" transform="translate(0,0)"/>
<path d="" fill="#22A372" transform="translate(0,0)"/>
<path d="" fill="#25A471" transform="translate(0,0)"/>
<path d="" fill="#20A46F" transform="translate(0,0)"/>
<path d="" fill="#21AC74" transform="translate(0,0)"/>
<path d="" fill="#24A470" transform="translate(0,0)"/>
<path d="" fill="#26A675" transform="translate(0,0)"/>
<path d="" fill="#289E6C" transform="translate(0,0)"/>
<path d="" fill="#26A573" transform="translate(0,0)"/>
<path d="" fill="#29A26F" transform="translate(0,0)"/>
<path d="" fill="#26A770" transform="translate(0,0)"/>
<path d="" fill="#21A975" transform="translate(0,0)"/>
<path d="" fill="#24A573" transform="translate(0,0)"/>
<path d="" fill="#23B879" transform="translate(0,0)"/>
<path d="" fill="#25AD79" transform="translate(0,0)"/>
<path d="" fill="#25A876" transform="translate(0,0)"/>
<path d="" fill="#24A874" transform="translate(0,0)"/>
<path d="" fill="#26A172" transform="translate(0,0)"/>
<path d="" fill="#26A774" transform="translate(0,0)"/>
<path d="" fill="#25AB76" transform="translate(0,0)"/>
<path d="" fill="#26AC77" transform="translate(0,0)"/>
<path d="" fill="#24AE77" transform="translate(0,0)"/>
<path d="" fill="#24AD75" transform="translate(0,0)"/>
<path d="" fill="#24B37A" transform="translate(0,0)"/>
<path d="" fill="#25AF78" transform="translate(0,0)"/>
<path d="" fill="#25B37B" transform="translate(0,0)"/>
<path d="" fill="#27B17B" transform="translate(0,0)"/>
<path d="" fill="#24B07A" transform="translate(0,0)"/>
<path d="" fill="#24B87E" transform="translate(0,0)"/>
<path d="" fill="#26AC78" transform="translate(0,0)"/>
<path d="" fill="#28AC77" transform="translate(0,0)"/>
<path d="" fill="#29B67C" transform="translate(0,0)"/>
<path d="" fill="#26B981" transform="translate(0,0)"/>
<path d="" fill="#27AC78" transform="translate(0,0)"/>
<path d="" fill="#26AF78" transform="translate(0,0)"/>
<path d="" fill="#23B67C" transform="translate(0,0)"/>
<path d="" fill="#23AE76" transform="translate(0,0)"/>
<path d="" fill="#22B77F" transform="translate(0,0)"/>
<path d="" fill="#24AB76" transform="translate(0,0)"/>
<path d="" fill="#25B078" transform="translate(0,0)"/>
<path d="" fill="#24B279" transform="translate(0,0)"/>
<path d="" fill="#27B77F" transform="translate(0,0)"/>
<path d="" fill="#25B37B" transform="translate(0,0)"/>
<path d="" fill="#25B581" transform="translate(0,0)"/>
<path d="" fill="#24B67F" transform="translate(0,0)"/>
<path d="" fill="#27B17A" transform="translate(0,0)"/>
<path d="" fill="#26C080" transform="translate(0,0)"/>
<path d="" fill="#24B279" transform="translate(0,0)"/>
<path d="" fill="#24B07B" transform="translate(0,0)"/>
<path d="" fill="#25B17A" transform="translate(0,0)"/>
<path d="" fill="#27B17A" transform="translate(0,0)"/>
<path d="" fill="#26B07A" transform="translate(0,0)"/>
<path d="" fill="#23AF7B" transform="translate(0,0)"/>
<path d="" fill="#26B27B" transform="translate(0,0)"/>
<path d="" fill="#28AD78" transform="translate(0,0)"/>
<path d="" fill="#24B97F" transform="translate(0,0)"/>
<path d="" fill="#24B57C" transform="translate(0,0)"/>
<path d="" fill="#2AB079" transform="translate(0,0)"/>
<path d="" fill="#29AB76" transform="translate(0,0)"/>
<path d="" fill="#29A373" transform="translate(0,0)"/>
<path d="" fill="#26B27B" transform="translate(0,0)"/>
<path d="" fill="#24BA7E" transform="translate(0,0)"/>
<path d="" fill="#26AD76" transform="translate(0,0)"/>
<path d="" fill="#24B17A" transform="translate(0,0)"/>
<path d="" fill="#26B178" transform="translate(0,0)"/>
<path d="" fill="#25B07B" transform="translate(0,0)"/>
<path d="" fill="#24B27D" transform="translate(0,0)"/>
<path d="" fill="#28B77E" transform="translate(0,0)"/>
<path d="" fill="#26B179" transform="translate(0,0)"/>
<path d="" fill="#27B079" transform="translate(0,0)"/>
<path d="" fill="#29AB77" transform="translate(0,0)"/>
<path d="" fill="#27B57D" transform="translate(0,0)"/>
<path d="" fill="#27B078" transform="translate(0,0)"/>
<path d="" fill="#23AD78" transform="translate(0,0)"/>
<path d="" fill="#26AF79" transform="translate(0,0)"/>
<path d="" fill="#26AA76" transform="translate(0,0)"/>
<path d="" fill="#299D6E" transform="translate(0,0)"/>
<path d="" fill="#24B078" transform="translate(0,0)"/>
<path d="" fill="#23B37C" transform="translate(0,0)"/>
<path d="" fill="#24A878" transform="translate(0,0)"/>
<path d="" fill="#2AB37B" transform="translate(0,0)"/>
<path d="" fill="#23B47A" transform="translate(0,0)"/>
<path d="" fill="#26B57E" transform="translate(0,0)"/>
<path d="" fill="#289F72" transform="translate(0,0)"/>
<path d="" fill="#26B07A" transform="translate(0,0)"/>
<path d="" fill="#24AF79" transform="translate(0,0)"/>
<path d="" fill="#25B47A" transform="translate(0,0)"/>
<path d="" fill="#27B079" transform="translate(0,0)"/>
<path d="" fill="#29AD78" transform="translate(0,0)"/>
<path d="" fill="#22B47B" transform="translate(0,0)"/>
<path d="" fill="#28AC76" transform="translate(0,0)"/>
<path d="" fill="#24B27B" transform="translate(0,0)"/>
<path d="" fill="#21B078" transform="translate(0,0)"/>
<path d="" fill="#25AE78" transform="translate(0,0)"/>
<path d="" fill="#29B17A" transform="translate(0,0)"/>
<path d="" fill="#27B17B" transform="translate(0,0)"/>
<path d="" fill="#24B27C" transform="translate(0,0)"/>
<path d="" fill="#27AF79" transform="translate(0,0)"/>
<path d="" fill="#29AA77" transform="translate(0,0)"/>
<path d="" fill="#22B07C" transform="translate(0,0)"/>
<path d="" fill="#23B078" transform="translate(0,0)"/>
<path d="" fill="#22B27A" transform="translate(0,0)"/>
<path d="" fill="#2CA270" transform="translate(0,0)"/>
<path d="" fill="#25AF7B" transform="translate(0,0)"/>
<path d="" fill="#29AE77" transform="translate(0,0)"/>
<path d="" fill="#28AA78" transform="translate(0,0)"/>
<path d="" fill="#27AF7C" transform="translate(0,0)"/>
<path d="" fill="#25B77E" transform="translate(0,0)"/>
<path d="" fill="#29A979" transform="translate(0,0)"/>
<path d="" fill="#25B07A" transform="translate(0,0)"/>
<path d="" fill="#27B079" transform="translate(0,0)"/>
<path d="" fill="#27AD79" transform="translate(0,0)"/>
<path d="" fill="#27B37C" transform="translate(0,0)"/>
<path d="" fill="#25AA77" transform="translate(0,0)"/>
<path d="" fill="#2A9F70" transform="translate(0,0)"/>
<path d="" fill="#29AD78" transform="translate(0,0)"/>
<path d="" fill="#26A673" transform="translate(0,0)"/>
<path d="" fill="#27A974" transform="translate(0,0)"/>
<path d="" fill="#25AD78" transform="translate(0,0)"/>
<path d="" fill="#29A173" transform="translate(0,0)"/>
<path d="" fill="#26A070" transform="translate(0,0)"/>
<path d="" fill="#24AE78" transform="translate(0,0)"/>
<path d="" fill="#28AB72" transform="translate(0,0)"/>
<path d="" fill="#26AC78" transform="translate(0,0)"/>
<path d="" fill="#26AC78" transform="translate(0,0)"/>
<path d="" fill="#28A774" transform="translate(0,0)"/>
<path d="" fill="#27A670" transform="translate(0,0)"/>
<path d="" fill="#2AA974" transform="translate(0,0)"/>
<path d="" fill="#24AF77" transform="translate(0,0)"/>
<path d="" fill="#28A470" transform="translate(0,0)"/>
<path d="" fill="#24AB74" transform="translate(0,0)"/>
<path d="" fill="#27AF79" transform="translate(0,0)"/>
<path d="" fill="#26AD76" transform="translate(0,0)"/>
<path d="" fill="#26AF76" transform="translate(0,0)"/>
<path d="" fill="#2AA371" transform="translate(0,0)"/>
<path d="" fill="#26AD78" transform="translate(0,0)"/>
<path d="" fill="#27A270" transform="translate(0,0)"/>
<path d="" fill="#26A775" transform="translate(0,0)"/>
<path d="" fill="#23AC77" transform="translate(0,0)"/>
<path d="" fill="#27B17C" transform="translate(0,0)"/>
<path d="" fill="#29976D" transform="translate(0,0)"/>
<path d="" fill="#21B178" transform="translate(0,0)"/>
<path d="" fill="#24AD76" transform="translate(0,0)"/>
<path d="" fill="#2AA273" transform="translate(0,0)"/>
<path d="" fill="#2AC48A" transform="translate(0,0)"/>
<path d="" fill="#22AE76" transform="translate(0,0)"/>
<path d="" fill="#27AA76" transform="translate(0,0)"/>
<path d="" fill="#28A774" transform="translate(0,0)"/>
<path d="" fill="#2AAF7B" transform="translate(0,0)"/>
<path d="" fill="#27AF77" transform="translate(0,0)"/>
<path d="" fill="#28A573" transform="translate(0,0)"/>
<path d="" fill="#24B77C" transform="translate(0,0)"/>
<path d="" fill="#2BBF83" transform="translate(0,0)"/>
<path d="" fill="#26B980" transform="translate(0,0)"/>
<path d="" fill="#29B983" transform="translate(0,0)"/>
<path d="" fill="#1FAC76" transform="translate(0,0)"/>
<path d="" fill="#24AC76" transform="translate(0,0)"/>
<path d="" fill="#26B77F" transform="translate(0,0)"/>
<path d="" fill="#21B07A" transform="translate(0,0)"/>
<path d="" fill="#26AF78" transform="translate(0,0)"/>
<path d="" fill="#27AF7A" transform="translate(0,0)"/>
<path d="" fill="#404843" transform="translate(0,0)"/>
<path d="" fill="#23AD78" transform="translate(0,0)"/>
<path d="" fill="#23AB77" transform="translate(0,0)"/>
<path d="" fill="#24AB78" transform="translate(0,0)"/>
<path d="" fill="#24AB79" transform="translate(0,0)"/>
<path d="" fill="#22A973" transform="translate(0,0)"/>
<path d="" fill="#22B07A" transform="translate(0,0)"/>
<path d="" fill="#434945" transform="translate(0,0)"/>
<path d="" fill="#1FB77D" transform="translate(0,0)"/>
<path d="" fill="#24B47E" transform="translate(0,0)"/>
<path d="" fill="#24B681" transform="translate(0,0)"/>
<path d="" fill="#24B981" transform="translate(0,0)"/>
<path d="" fill="#21B77F" transform="translate(0,0)"/>
<path d="" fill="#22B37D" transform="translate(0,0)"/>
<path d="" fill="#25AD7A" transform="translate(0,0)"/>
<path d="" fill="#24B27E" transform="translate(0,0)"/>
<path d="" fill="#24B47D" transform="translate(0,0)"/>
<path d="" fill="#22B37D" transform="translate(0,0)"/>
<path d="" fill="#22B27D" transform="translate(0,0)"/>
<path d="" fill="#23B47E" transform="translate(0,0)"/>
<path d="" fill="#24B37E" transform="translate(0,0)"/>
<path d="" fill="#23B17B" transform="translate(0,0)"/>
<path d="" fill="#24AF7A" transform="translate(0,0)"/>
<path d="" fill="#22B47E" transform="translate(0,0)"/>
<path d="" fill="#21B57E" transform="translate(0,0)"/>
<path d="" fill="#1FB27B" transform="translate(0,0)"/>
<path d="" fill="#1EB67F" transform="translate(0,0)"/>
<path d="" fill="#20B47F" transform="translate(0,0)"/>
<path d="" fill="#20B57D" transform="translate(0,0)"/>
<path d="" fill="#20B57F" transform="translate(0,0)"/>
<path d="" fill="#23B57E" transform="translate(0,0)"/>
<path d="" fill="#22B77F" transform="translate(0,0)"/>
<path d="" fill="#21B77F" transform="translate(0,0)"/>
<path d="" fill="#21B67C" transform="translate(0,0)"/>
<path d="" fill="#414643" transform="translate(0,0)"/>
<path d="" fill="#2C624A" transform="translate(0,0)"/>
<path d="" fill="#2E7857" transform="translate(0,0)"/>
<path d="" fill="#2BA475" transform="translate(0,0)"/>
<path d="" fill="#2E6D53" transform="translate(0,0)"/>
<path d="" fill="#34463D" transform="translate(0,0)"/>
<path d="" fill="#3D4740" transform="translate(0,0)"/>
<path d="" fill="#3F4841" transform="translate(0,0)"/>
<path d="" fill="#414A47" transform="translate(0,0)"/>
<path d="" fill="#23AC76" transform="translate(0,0)"/>
<path d="" fill="#24AC7B" transform="translate(0,0)"/>
<path d="" fill="#23BA81" transform="translate(0,0)"/>
<path d="" fill="#25B580" transform="translate(0,0)"/>
<path d="" fill="#2E7D5D" transform="translate(0,0)"/>
<path d="" fill="#2E5B48" transform="translate(0,0)"/>
<path d="" fill="#3C4742" transform="translate(0,0)"/>
<path d="" fill="#27B17C" transform="translate(0,0)"/>
<path d="" fill="#24AC7C" transform="translate(0,0)"/>
<path d="" fill="#23AF7B" transform="translate(0,0)"/>
<path d="" fill="#25B27A" transform="translate(0,0)"/>
<path d="" fill="#2F473F" transform="translate(0,0)"/>
<path d="" fill="#28B57F" transform="translate(0,0)"/>
<path d="" fill="#27AF7C" transform="translate(0,0)"/>
<path d="" fill="#26AD7A" transform="translate(0,0)"/>
<path d="" fill="#25B07C" transform="translate(0,0)"/>
<path d="" fill="#23AD78" transform="translate(0,0)"/>
<path d="" fill="#454844" transform="translate(0,0)"/>
<path d="" fill="#28B17D" transform="translate(0,0)"/>
<path d="" fill="#25B07B" transform="translate(0,0)"/>
<path d="" fill="#28AD78" transform="translate(0,0)"/>
<path d="" fill="#38453F" transform="translate(0,0)"/>
<path d="" fill="#35453E" transform="translate(0,0)"/>
<path d="" fill="#2B5C47" transform="translate(0,0)"/>
<path d="" fill="#28A978" transform="translate(0,0)"/>
<path d="" fill="#23B27C" transform="translate(0,0)"/>
<path d="" fill="#2AA978" transform="translate(0,0)"/>
<path d="" fill="#2A9B70" transform="translate(0,0)"/>
<path d="" fill="#2B5D49" transform="translate(0,0)"/>
<path d="" fill="#2C4E41" transform="translate(0,0)"/>
<path d="" fill="#33453D" transform="translate(0,0)"/>
<path d="" fill="#35463E" transform="translate(0,0)"/>
<path d="" fill="#39453F" transform="translate(0,0)"/>
<path d="" fill="#3B4641" transform="translate(0,0)"/>
<path d="" fill="#3C4742" transform="translate(0,0)"/>
<path d="" fill="#3D4743" transform="translate(0,0)"/>
<path d="" fill="#434846" transform="translate(0,0)"/>
<path d="" fill="#26BA83" transform="translate(0,0)"/>
<path d="" fill="#23AF7A" transform="translate(0,0)"/>
<path d="" fill="#21B27D" transform="translate(0,0)"/>
<path d="" fill="#22B07D" transform="translate(0,0)"/>
<path d="" fill="#38463C" transform="translate(0,0)"/>
</svg>
