<?xml version="1.0" encoding="UTF-8"?>
<svg version="1.1" xmlns="http://www.w3.org/2000/svg" width="800" height="800">
<path d="M0 0 C1.82892288 -0.00503792 1.82892288 -0.00503792 3.6947937 -0.01017761 C7.01110359 -0.01800134 10.32735082 -0.0213523 13.64366555 -0.0219934 C15.72328914 -0.0227084 17.80290632 -0.02485115 19.88252831 -0.02749062 C27.15948269 -0.03671716 34.43641887 -0.04082884 41.71337891 -0.04003906 C48.46164465 -0.03943882 55.20983032 -0.04998718 61.95807582 -0.06578273 C67.78179078 -0.07892113 73.60547977 -0.08422034 79.42920941 -0.08358365 C82.89420886 -0.08333054 86.359137 -0.08607754 89.82412148 -0.0967617 C93.69527856 -0.10837474 97.56632842 -0.10365755 101.4375 -0.09765625 C102.56259476 -0.10327576 103.68768951 -0.10889526 104.84687805 -0.11468506 C122.50492115 -0.04559428 136.37781807 3.38957291 149.22924805 16.12963867 C151.36922298 18.25134791 151.36922298 18.25134791 154.12768555 19.72338867 C156.4128418 21.14526367 156.4128418 21.14526367 157.4128418 24.14526367 C158.00581055 24.70987305 158.5987793 25.27448242 159.2097168 25.85620117 C162.08439165 28.84300873 163.76937662 32.10956433 165.6628418 35.77026367 C166.02635742 36.45088867 166.38987305 37.13151367 166.7644043 37.83276367 C169.4128418 42.87076884 169.4128418 42.87076884 169.4128418 45.14526367 C170.4028418 45.47526367 171.3928418 45.80526367 172.4128418 46.14526367 C171.7528418 46.14526367 171.0928418 46.14526367 170.4128418 46.14526367 C170.7428418 48.78526367 171.0728418 51.42526367 171.4128418 54.14526367 C172.0728418 54.14526367 172.7328418 54.14526367 173.4128418 54.14526367 C173.46182617 54.82331055 173.51081055 55.50135742 173.5612793 56.19995117 C174.00296193 61.69813843 174.66856532 66.99225669 175.9128418 72.36791992 C177.49880825 81.17746794 177.57720566 90.02127451 177.61816406 98.94848633 C177.62776467 100.30955284 177.63777595 101.67061651 177.64816284 103.03167725 C177.67498184 106.69623909 177.69611453 110.36081351 177.71616483 114.0254178 C177.7381679 117.86644509 177.76548591 121.70743465 177.79222107 125.5484314 C177.84195573 132.80835093 177.88696514 140.06829162 177.93024343 147.3282522 C177.9797811 155.59921018 178.03463744 163.87013028 178.08992302 172.14105153 C178.20344757 189.14242048 178.31034984 206.14382471 178.4128418 223.14526367 C177.7528418 223.14526367 177.0928418 223.14526367 176.4128418 223.14526367 C174.72494847 230.86134743 173.12407078 238.20406083 173.4128418 246.14526367 C173.12609762 248.1524729 172.81048442 250.15705054 172.4128418 252.14526367 C171.7528418 252.14526367 171.0928418 252.14526367 170.4128418 252.14526367 C169.4228418 255.11526367 168.4328418 258.08526367 167.4128418 261.14526367 C166.7528418 261.14526367 166.0928418 261.14526367 165.4128418 261.14526367 C165.2478418 262.23838867 165.0828418 263.33151367 164.9128418 264.45776367 C163.40955545 270.5471627 159.53627064 275.52391134 155.4128418 280.14526367 C154.09828123 280.84822366 152.76485803 281.51735099 151.4128418 282.14526367 C150.12157155 283.37414061 148.87357762 284.64946855 147.6628418 285.95776367 C140.32244152 293.41938157 132.19759869 296.6400535 122.4128418 300.14526367 C122.4128418 300.47526367 122.4128418 300.80526367 122.4128418 301.14526367 C116.69017327 302.13752996 111.19256292 302.24644287 105.39331055 302.17260742 C103.46557787 302.15997519 101.53784341 302.14761322 99.61010742 302.13549805 C96.59027462 302.11056931 93.57053575 302.08243676 90.55078125 302.04931641 C87.62328467 302.01924831 84.69591149 302.00139421 81.76831055 301.98510742 C80.40587471 301.96491798 80.40587471 301.96491798 79.01591492 301.94432068 C78.17776749 301.94094193 77.33962006 301.93756317 76.47607422 301.93408203 C75.36857063 301.92289589 75.36857063 301.92289589 74.23869324 301.91148376 C71.07678092 302.31633136 69.90059422 304.78885679 67.9753418 307.20776367 C65.4128418 310.14526367 65.4128418 310.14526367 62.4128418 311.14526367 C62.2890918 311.76401367 62.1653418 312.38276367 62.0378418 313.02026367 C61.13411084 316.09294892 59.08424095 316.54242418 56.4128418 318.14526367 C55.76070888 320.16989622 55.76070888 320.16989622 55.4128418 322.14526367 C54.4228418 322.80526367 53.4328418 323.46526367 52.4128418 324.14526367 C52.1034668 324.80526367 51.7940918 325.46526367 51.4753418 326.14526367 C50.4128418 328.14526367 50.4128418 328.14526367 48.3503418 329.14526367 C47.7109668 329.47526367 47.0715918 329.80526367 46.4128418 330.14526367 C46.2684668 330.78463867 46.1240918 331.42401367 45.9753418 332.08276367 C45.14638272 335.1222803 43.03402605 335.57255312 40.4128418 337.14526367 C40.05122151 338.47120472 39.71556141 339.80464824 39.4128418 341.14526367 C38.07950846 341.81193034 36.74617513 342.47859701 35.4128418 343.14526367 C35.04073759 344.46830084 34.70654006 345.80264302 34.4128418 347.14526367 C33.4228418 347.80526367 32.4328418 348.46526367 31.4128418 349.14526367 C31.1240918 349.78463867 30.8353418 350.42401367 30.5378418 351.08276367 C29.02202189 353.86176683 27.15561109 354.61441569 24.4128418 356.14526367 C23.6084668 356.84651367 22.8040918 357.54776367 21.9753418 358.27026367 C18.9222857 360.50420716 17.19742922 361.14526367 13.4128418 361.14526367 C10.2878418 359.33276367 10.2878418 359.33276367 7.4128418 357.14526367 C6.6497168 356.83588867 5.8865918 356.52651367 5.1003418 356.20776367 C3.4128418 355.14526367 3.4128418 355.14526367 2.82714844 353.14257812 C2.27304474 349.13389745 2.17810538 345.1684015 2.09643555 341.12573242 C2.07565445 340.26716141 2.05487335 339.40859039 2.03346252 338.52400208 C1.96831657 335.79366713 1.90924526 333.06323972 1.8503418 330.33276367 C1.8071233 328.47663449 1.76350796 326.62051451 1.71948242 324.7644043 C1.61267119 320.22478442 1.51130615 315.68507195 1.4128418 311.14526367 C0.7528418 310.81526367 0.0928418 310.48526367 -0.5871582 310.14526367 C-1.21847159 308.11103164 -1.58987435 306.1267939 -1.8996582 304.02026367 C-2.42366523 302.01416947 -2.42366523 302.01416947 -4.26293945 301.04760742 C-7.09710412 299.94728467 -9.42459363 299.90472592 -12.4621582 299.83276367 C-22.3129318 299.22194907 -30.86188893 295.53857788 -39.5871582 291.14526367 C-40.5771582 290.81526367 -41.5671582 290.48526367 -42.5871582 290.14526367 C-42.8552832 289.56776367 -43.1234082 288.99026367 -43.3996582 288.39526367 C-45.37879461 284.64532101 -48.8007362 282.03847467 -52.5871582 280.14526367 C-52.9171582 279.15526367 -53.2471582 278.16526367 -53.5871582 277.14526367 C-54.8246582 276.00057617 -54.8246582 276.00057617 -56.0871582 274.83276367 C-58.89204856 271.81750654 -59.30578096 270.17833751 -59.5871582 266.14526367 C-60.2471582 266.14526367 -60.9071582 266.14526367 -61.5871582 266.14526367 C-63.7391019 262.91734812 -63.78802263 261.86125558 -63.5871582 258.14526367 C-64.2471582 258.14526367 -64.9071582 258.14526367 -65.5871582 258.14526367 C-67.12922609 255.37217881 -67.84085478 253.23225941 -68.0559082 250.07495117 C-68.64715258 243.73463313 -70.25184768 237.66401099 -71.77075195 231.49291992 C-71.98860352 230.57639648 -72.20645508 229.65987305 -72.4309082 228.71557617 C-72.6287793 227.90878418 -72.82665039 227.10199219 -73.03051758 226.27075195 C-74.62124238 217.3389717 -74.73600887 208.3406731 -74.73242188 199.29272461 C-74.73578049 198.05700211 -74.7391391 196.8212796 -74.74259949 195.54811096 C-74.75041668 192.19040524 -74.7537738 188.8327614 -74.75441527 185.47505093 C-74.75513087 183.36810231 -74.75727473 181.26115999 -74.75991249 179.15421295 C-74.76913652 171.77769058 -74.77325109 164.40118615 -74.77246094 157.0246582 C-74.77186097 150.19063816 -74.7824045 143.35669725 -74.7982046 136.52269721 C-74.81135659 130.61995064 -74.81664165 124.7172297 -74.81600553 118.81446862 C-74.81575278 115.30470754 -74.81847879 111.79501693 -74.82918358 108.28527069 C-74.91277299 78.85172305 -74.91277299 78.85172305 -71.99430847 65.41595459 C-71.55617421 62.97246488 -71.80931139 61.4788041 -72.5871582 59.14526367 C-71.9271582 59.14526367 -71.2671582 59.14526367 -70.5871582 59.14526367 C-70.63743164 58.14108398 -70.68770508 57.1369043 -70.73950195 56.10229492 C-70.57571448 51.8480204 -69.65397067 48.800228 -68.1496582 44.83276367 C-67.69719727 43.61975586 -67.24473633 42.40674805 -66.77856445 41.15698242 C-65.3899791 37.64682075 -63.8414219 35.14554269 -61.5871582 32.14526367 C-60.03692176 29.79821359 -58.51112676 27.43672624 -56.98950195 25.07104492 C-55.5871582 23.14526367 -55.5871582 23.14526367 -53.5871582 22.14526367 C-53.2571582 21.15526367 -52.9271582 20.16526367 -52.5871582 19.14526367 C-51.26328674 18.45999981 -49.92793371 17.79683352 -48.5871582 17.14526367 C-47.0149118 15.74127521 -45.47588869 14.29965234 -43.9621582 12.83276367 C-39.20347705 8.46712993 -34.53132441 5.60814373 -28.5871582 3.14526367 C-27.5971582 2.73276367 -26.6071582 2.32026367 -25.5871582 1.89526367 C-17.24230053 -0.19095075 -8.54781824 -0.00342456 0 0 Z M163.4128418 35.14526367 C164.4128418 37.14526367 164.4128418 37.14526367 164.4128418 37.14526367 Z M165.4128418 39.14526367 C166.4128418 41.14526367 166.4128418 41.14526367 166.4128418 41.14526367 Z M-65.5871582 41.14526367 C-64.5871582 44.14526367 -64.5871582 44.14526367 -64.5871582 44.14526367 Z M-68.5871582 49.14526367 C-67.5871582 51.14526367 -67.5871582 51.14526367 -67.5871582 51.14526367 Z M168.4128418 252.14526367 C169.4128418 254.14526367 169.4128418 254.14526367 169.4128418 254.14526367 Z M-62.5871582 260.14526367 C-61.5871582 262.14526367 -61.5871582 262.14526367 -61.5871582 262.14526367 Z M74.4128418 300.14526367 C74.4128418 300.47526367 74.4128418 300.80526367 74.4128418 301.14526367 C76.0628418 301.14526367 77.7128418 301.14526367 79.4128418 301.14526367 C79.4128418 300.81526367 79.4128418 300.48526367 79.4128418 300.14526367 C77.7628418 300.14526367 76.1128418 300.14526367 74.4128418 300.14526367 Z M88.4128418 300.14526367 C88.4128418 300.47526367 88.4128418 300.80526367 88.4128418 301.14526367 C91.3828418 301.14526367 94.3528418 301.14526367 97.4128418 301.14526367 C97.4128418 300.81526367 97.4128418 300.48526367 97.4128418 300.14526367 C94.4428418 300.14526367 91.4728418 300.14526367 88.4128418 300.14526367 Z M100.4128418 300.14526367 C100.4128418 300.47526367 100.4128418 300.80526367 100.4128418 301.14526367 C102.0628418 301.14526367 103.7128418 301.14526367 105.4128418 301.14526367 C105.4128418 300.81526367 105.4128418 300.48526367 105.4128418 300.14526367 C103.7628418 300.14526367 102.1128418 300.14526367 100.4128418 300.14526367 Z " fill="#2FB554" transform="translate(348.587158203125,219.854736328125)"/>
<path d="M0 0 C5.94012461 2.62736281 8.46473526 7.2628272 11 13 C13.9158376 22.13506085 12.09958601 31.5769598 8 40 C5.79352455 43.27628173 4.28249441 44.8116704 1 47 C-3.20529509 47.76459911 -7.27638938 47.92736007 -11.10546875 45.8671875 C-16.36700067 41.58167536 -18.91700026 36.66899839 -20 30 C-20.59539403 20.41644613 -20.66254322 12.40730534 -14.5 4.625 C-9.85166794 -0.25574866 -6.4579772 -0.85294038 0 0 Z " fill="#056228" transform="translate(346,351)"/>
<path d="M0 0 C6.33084654 2.73095341 8.54291661 7.89155365 11 14 C13.47718941 22.07034034 12.11925793 30.31467939 9 38 C6.79318813 41.91531138 4.79666118 44.60749 1 47 C-3.00940205 47.793941 -7.17059003 47.92421336 -10.87890625 46.05078125 C-16.5024862 41.5829245 -18.93704062 35.9564786 -20 29 C-20.6934329 20.90596431 -20.23737964 13.41392733 -15.3125 6.69921875 C-10.57289215 1.14005371 -7.57729296 -0.94893202 0 0 Z " fill="#05662A" transform="translate(403,351)"/>
<path d="M0 0 C4.99900132 2.56284083 8.31343397 6.94637492 10.33984375 12.11328125 C12.29056131 20.64334208 12.66923357 31.3794194 8.3203125 39.1953125 C5.41693308 43.16383704 2.68867568 46.35359365 -2.2421875 47.5390625 C-6.47256061 47.80969243 -8.63503915 47.22035372 -12.3125 45 C-17.79271705 39.6720112 -20.14327677 32.39923284 -20.25 24.9375 C-20.15789503 15.74747113 -18.59391729 8.59391729 -12 2 C-7.94251943 -0.70498705 -4.76352188 -0.87978524 0 0 Z " fill="#06692C" transform="translate(460,351)"/>
<path d="M0 0 C0.33 0 0.66 0 1 0 C1 42.57 1 85.14 1 129 C0.67 129 0.34 129 0 129 C0 86.43 0 43.86 0 0 Z " fill="#006C50" transform="translate(527,305)"/>
<path d="M0 0 C0.33 0 0.66 0 1 0 C1 42.57 1 85.14 1 129 C0.67 129 0.34 129 0 129 C0 86.43 0 43.86 0 0 Z " fill="#007E00" transform="translate(272,303)"/>
<path d="M0 0 C39.93 0 79.86 0 121 0 C121 0.33 121 0.66 121 1 C81.07 1 41.14 1 0 1 C0 0.67 0 0.34 0 0 Z " fill="#00A70E" transform="translate(337,218)"/>
<path d="M0 0 C0.66 0.33 1.32 0.66 2 1 C1.401875 1.556875 0.80375 2.11375 0.1875 2.6875 C-2.01922139 4.85394547 -2.01922139 4.85394547 -3.3125 7.1875 C-5.84126263 11.40210438 -8.94437187 15.15744298 -12 19 C-12.66 18.67 -13.32 18.34 -14 18 C-14.625 15.9375 -14.625 15.9375 -15 14 C-14.360625 13.566875 -13.72125 13.13375 -13.0625 12.6875 C-10.73253997 11.08760823 -10.73253997 11.08760823 -10 8 C-9.443125 7.731875 -8.88625 7.46375 -8.3125 7.1875 C-4.87242492 5.42097496 -2.66738688 2.78863174 0 0 Z " fill="#1A7B35" transform="translate(306,231)"/>
<path d="M0 0 C0.77601563 0.14308594 1.55203125 0.28617188 2.3515625 0.43359375 C7.01193805 1.15709959 11.68163741 1.61057136 16.375 2.0625 C17.30183594 2.15337891 18.22867187 2.24425781 19.18359375 2.33789062 C21.45555904 2.56040269 23.72768866 2.78105499 26 3 C26.66 4.65 27.32 6.3 28 8 C27.278125 7.525625 26.55625 7.05125 25.8125 6.5625 C21.52943105 4.38036771 16.99619787 4.57053761 12.28125 4.31640625 C7.82324711 3.8865274 4.15995222 2.62167629 0 1 C0 0.67 0 0.34 0 0 Z " fill="#136528" transform="translate(320,515)"/>
<path d="M0 0 C0.99 0 1.98 0 3 0 C3 1.32 3 2.64 3 4 C2.01 4.495 2.01 4.495 1 5 C0.6433535 7.81254136 0.55586944 10.60155293 0.44140625 13.43359375 C0.29574219 14.28050781 0.15007812 15.12742187 0 16 C-0.99 16.66 -1.98 17.32 -3 18 C-4.81567764 11.19120886 -2.67529847 6.34952814 0 0 Z M-2 8 C-1 10 -1 10 -1 10 Z " fill="#15752B" transform="translate(282,261)"/>
<path d="M0 0 C0.33 0 0.66 0 1 0 C1 11.55 1 23.1 1 35 C0.67 35 0.34 35 0 35 C0 23.45 0 11.9 0 0 Z " fill="#004D2B" transform="translate(349,531)"/>
<path d="M0 0 C0.66 0.66 1.32 1.32 2 2 C1.9765625 4.3828125 1.9765625 4.3828125 1.625 7.125 C1.51414062 8.03507812 1.40328125 8.94515625 1.2890625 9.8828125 C1.19367187 10.58148438 1.09828125 11.28015625 1 12 C0.34 12 -0.32 12 -1 12 C-1.33 12.66 -1.66 13.32 -2 14 C-3.81975482 8.87160006 -1.8599099 4.82315618 0 0 Z " fill="#177A25" transform="translate(520,460)"/>
<path d="M0 0 C0.33 0.66 0.66 1.32 1 2 C-0.8125 5 -0.8125 5 -3 8 C-3.99 8 -4.98 8 -6 8 C-6.33 6.68 -6.66 5.36 -7 4 C-6.1028125 3.566875 -6.1028125 3.566875 -5.1875 3.125 C-2.80672208 1.95257974 -2.80672208 1.95257974 0 0 Z " fill="#219646" transform="translate(298,241)"/>
<path d="M0 0 C3.40320742 1.01176437 4.75725331 1.64843582 6.8125 4.625 C7.204375 5.40875 7.59625 6.1925 8 7 C5 6 2 5 -1 4 C-0.67 2.68 -0.34 1.36 0 0 Z " fill="#227D37" transform="translate(307,506)"/>
<path d="M0 0 C0.66 0.33 1.32 0.66 2 1 C0.60667426 4.36720387 -0.9789286 5.9859524 -4 8 C-4.33 7.34 -4.66 6.68 -5 6 C-4.54625 5.566875 -4.0925 5.13375 -3.625 4.6875 C-1.79975666 2.89201658 -1.79975666 2.89201658 0 0 Z " fill="#05652A" transform="translate(417,522)"/>
<path d="M0 0 C0.99 0 1.98 0 3 0 C3.66 1.98 4.32 3.96 5 6 C3.68 5.67 2.36 5.34 1 5 C0.67 3.35 0.34 1.7 0 0 Z " fill="#167029" transform="translate(351,570)"/>
<path d="M0 0 C3.3 0 6.6 0 10 0 C10 0.33 10 0.66 10 1 C6.7 1 3.4 1 0 1 C0 0.67 0 0.34 0 0 Z " fill="#006B13" transform="translate(332,520)"/>
<path d="M0 0 C0.33 0 0.66 0 1 0 C1 3.3 1 6.6 1 10 C0.67 10 0.34 10 0 10 C0 6.7 0 3.4 0 0 Z " fill="#008537" transform="translate(273,432)"/>
<path d="M0 0 C0.33 0 0.66 0 1 0 C1 3.3 1 6.6 1 10 C0.67 10 0.34 10 0 10 C0 6.7 0 3.4 0 0 Z " fill="#005220" transform="translate(273,293)"/>
<path d="M0 0 C0.33 0 0.66 0 1 0 C1 3.3 1 6.6 1 10 C0.67 10 0.34 10 0 10 C0 6.7 0 3.4 0 0 Z " fill="#00673C" transform="translate(526,295)"/>
<path d="M0 0 C3.3 0 6.6 0 10 0 C10 0.33 10 0.66 10 1 C6.7 1 3.4 1 0 1 C0 0.67 0 0.34 0 0 Z " fill="#00B200" transform="translate(463,219)"/>
<path d="M0 0 C2.125 0.375 2.125 0.375 4 1 C2.02 1.33 0.04 1.66 -2 2 C-1.34 1.34 -0.68 0.68 0 0 Z " fill="#00751C" transform="translate(322,220)"/>
<path d="M0 0 C2.31 0 4.62 0 7 0 C7 0.33 7 0.66 7 1 C4.69 1 2.38 1 0 1 C0 0.67 0 0.34 0 0 Z " fill="#00A312" transform="translate(326,219)"/>
<path d="M0 0 C2.475 0.495 2.475 0.495 5 1 C4.01 1.33 3.02 1.66 2 2 C1.34 1.34 0.68 0.68 0 0 Z " fill="#004D1F" transform="translate(476,221)"/>
<path d="M0 0 C0 0.99 0 1.98 0 3 C-0.66 2.67 -1.32 2.34 -2 2 C-1.34 1.34 -0.68 0.68 0 0 Z " fill="#00600A" transform="translate(498,504)"/>
<path d="M0 0 C0.33 0 0.66 0 1 0 C1 1.65 1 3.3 1 5 C0.67 5 0.34 5 0 5 C0 3.35 0 1.7 0 0 Z " fill="#00A95D" transform="translate(274,443)"/>
<path d="M0 0 C0.33 0 0.66 0 1 0 C1 1.65 1 3.3 1 5 C0.67 5 0.34 5 0 5 C0 3.35 0 1.7 0 0 Z " fill="#006E43" transform="translate(525,290)"/>
<path d="M0 0 C0.33 0 0.66 0 1 0 C1 1.65 1 3.3 1 5 C0.67 5 0.34 5 0 5 C0 3.35 0 1.7 0 0 Z " fill="#339D5D" transform="translate(274,288)"/>
<path d="M0 0 C4 1 4 1 4 1 Z " fill="#005F1F" transform="translate(362,582)"/>
<path d="M0 0 C4 1 4 1 4 1 Z " fill="#005F00" transform="translate(324,519)"/>
<path d="M0 0 C1 4 1 4 1 4 Z " fill="#009925" transform="translate(522,458)"/>
<path d="M0 0 C1 4 1 4 1 4 Z " fill="#3F6A3F" transform="translate(277,458)"/>
<path d="M0 0 C1 4 1 4 1 4 Z " fill="#3F8F64" transform="translate(523,454)"/>
<path d="M0 0 C1 4 1 4 1 4 Z " fill="#3F744F" transform="translate(276,454)"/>
<path d="M0 0 C1 4 1 4 1 4 Z " fill="#1F8F3F" transform="translate(275,449)"/>
<path d="M0 0 C1 4 1 4 1 4 Z " fill="#009444" transform="translate(524,450)"/>
<path d="M0 0 C1 4 1 4 1 4 Z " fill="#008934" transform="translate(525,444)"/>
<path d="M0 0 C1 4 1 4 1 4 Z " fill="#00AF5F" transform="translate(524,285)"/>
<path d="M0 0 C1 4 1 4 1 4 Z " fill="#006F5F" transform="translate(275,283)"/>
<path d="M0 0 C1 4 1 4 1 4 Z " fill="#3F6455" transform="translate(277,275)"/>
<path d="M0 0 C0.66 0.66 1.32 1.32 2 2 C1.01 2.495 1.01 2.495 0 3 C0 2.01 0 1.02 0 0 Z " fill="#0FBF6F" transform="translate(519,268)"/>
<path d="M0 0 C0.66 0.33 1.32 0.66 2 1 C1.01 1 0.02 1 -1 1 C-0.67 0.67 -0.34 0.34 0 0 Z " fill="#00390C" transform="translate(307,228)"/>
<path d="M0 0 C0.66 0.33 1.32 0.66 2 1 C1.01 1 0.02 1 -1 1 C-0.67 0.67 -0.34 0.34 0 0 Z " fill="#005922" transform="translate(313,224)"/>
<path d="M0 0 C0.33 0.66 0.66 1.32 1 2 C0.34 1.67 -0.32 1.34 -1 1 C-0.67 0.67 -0.34 0.34 0 0 Z " fill="#555555" transform="translate(44,785)"/>
<path d="M0 0 C0.33 0.66 0.66 1.32 1 2 C0.34 1.67 -0.32 1.34 -1 1 C-0.67 0.67 -0.34 0.34 0 0 Z " fill="#000000" transform="translate(544,726)"/>
<path d="M0 0 C0.66 0.66 1.32 1.32 2 2 C1.34 2 0.68 2 0 2 C0 1.34 0 0.68 0 0 Z " fill="#003115" transform="translate(354,576)"/>
<path d="" fill="#007F86" transform="translate(0,0)"/>
<path d="M0 0 C3 1 3 1 3 1 Z " fill="#005400" transform="translate(474,519)"/>
<path d="M0 0 C3 1 3 1 3 1 Z " fill="#007F00" transform="translate(481,516)"/>
<path d="M0 0 C3 1 3 1 3 1 Z " fill="#002A00" transform="translate(317,516)"/>
<path d="M0 0 C0.33 0.66 0.66 1.32 1 2 C0.34 1.67 -0.32 1.34 -1 1 C-0.67 0.67 -0.34 0.34 0 0 Z " fill="#003711" transform="translate(500,502)"/>
<path d="" fill="#389B38" transform="translate(0,0)"/>
<path d="" fill="#2A9B2A" transform="translate(0,0)"/>
<path d="" fill="#1C7F1C" transform="translate(0,0)"/>
<path d="M0 0 C0.33 0.66 0.66 1.32 1 2 C0.34 1.67 -0.32 1.34 -1 1 C-0.67 0.67 -0.34 0.34 0 0 Z " fill="#555555" transform="translate(44,410)"/>
<path d="" fill="#009B5B" transform="translate(0,0)"/>
<path d="" fill="#009469" transform="translate(0,0)"/>
<path d="" fill="#559B15" transform="translate(0,0)"/>
<path d="M0 0 C3 1 3 1 3 1 Z " fill="#007115" transform="translate(473,220)"/>
<path d="M0 0 C0.66 0.66 1.32 1.32 2 2 C1.34 2 0.68 2 0 2 C0 1.34 0 0.68 0 0 Z " fill="#000000" transform="translate(257,65)"/>
<path d="M0 0 C0.66 0.66 1.32 1.32 2 2 C1.34 2 0.68 2 0 2 C0 1.34 0 0.68 0 0 Z " fill="#000000" transform="translate(257,40)"/>
<path d="M0 0 C0.33 0.66 0.66 1.32 1 2 C0.34 1.67 -0.32 1.34 -1 1 C-0.67 0.67 -0.34 0.34 0 0 Z " fill="#000000" transform="translate(544,16)"/>
<path d="M0 0 C2 1 2 1 2 1 Z " fill="#000000" transform="translate(543,798)"/>
<path d="M0 0 C2 1 2 1 2 1 Z " fill="#FFFFFF" transform="translate(257,798)"/>
<path d="M0 0 C2 1 2 1 2 1 Z " fill="#000000" transform="translate(518,796)"/>
<path d="M0 0 C2 1 2 1 2 1 Z " fill="#000000" transform="translate(257,794)"/>
<path d="M0 0 C2 1 2 1 2 1 Z " fill="#000000" transform="translate(257,791)"/>
<path d="M0 0 C2 1 2 1 2 1 Z " fill="#000000" transform="translate(257,785)"/>
<path d="M0 0 C2 1 2 1 2 1 Z " fill="#000000" transform="translate(257,779)"/>
<path d="M0 0 C2 1 2 1 2 1 Z " fill="#000000" transform="translate(257,773)"/>
<path d="M0 0 C2 1 2 1 2 1 Z " fill="#000000" transform="translate(519,771)"/>
<path d="" fill="#7F7F7F" transform="translate(0,0)"/>
<path d="M0 0 C2 1 2 1 2 1 Z " fill="#000000" transform="translate(257,766)"/>
<path d="M0 0 C2 1 2 1 2 1 Z " fill="#000000" transform="translate(257,760)"/>
<path d="M0 0 C2 1 2 1 2 1 Z " fill="#000000" transform="translate(257,754)"/>
<path d="M0 0 C2 1 2 1 2 1 Z " fill="#000000" transform="translate(257,748)"/>
<path d="M0 0 C2 1 2 1 2 1 Z " fill="#000000" transform="translate(257,741)"/>
<path d="M0 0 C2 1 2 1 2 1 Z " fill="#000000" transform="translate(257,735)"/>
<path d="M0 0 C2 1 2 1 2 1 Z " fill="#000000" transform="translate(257,729)"/>
<path d="M0 0 C2 1 2 1 2 1 Z " fill="#000000" transform="translate(519,727)"/>
<path d="M0 0 C2 1 2 1 2 1 Z " fill="#000000" transform="translate(257,723)"/>
<path d="M0 0 C2 1 2 1 2 1 Z " fill="#000000" transform="translate(567,721)"/>
<path d="M0 0 C2 1 2 1 2 1 Z " fill="#000000" transform="translate(543,721)"/>
<path d="M0 0 C2 1 2 1 2 1 Z " fill="#000000" transform="translate(257,719)"/>
<path d="M0 0 C2 1 2 1 2 1 Z " fill="#000000" transform="translate(257,716)"/>
<path d="M0 0 C2 1 2 1 2 1 Z " fill="#000000" transform="translate(567,715)"/>
<path d="M0 0 C2 1 2 1 2 1 Z " fill="#000000" transform="translate(257,698)"/>
<path d="M0 0 C2 1 2 1 2 1 Z " fill="#000000" transform="translate(619,693)"/>
<path d="M0 0 C2 1 2 1 2 1 Z " fill="#000000" transform="translate(543,692)"/>
<path d="M0 0 C2 1 2 1 2 1 Z " fill="#000000" transform="translate(257,691)"/>
<path d="M0 0 C2 1 2 1 2 1 Z " fill="#000000" transform="translate(519,690)"/>
<path d="M0 0 C2 1 2 1 2 1 Z " fill="#000000" transform="translate(257,685)"/>
<path d="M0 0 C2 1 2 1 2 1 Z " fill="#000000" transform="translate(257,679)"/>
<path d="M0 0 C2 1 2 1 2 1 Z " fill="#000000" transform="translate(257,673)"/>
<path d="M0 0 C2 1 2 1 2 1 Z " fill="#000000" transform="translate(257,666)"/>
<path d="M0 0 C2 1 2 1 2 1 Z " fill="#000000" transform="translate(567,665)"/>
<path d="M0 0 C2 1 2 1 2 1 Z " fill="#000000" transform="translate(257,660)"/>
<path d="M0 0 C2 1 2 1 2 1 Z " fill="#000000" transform="translate(257,654)"/>
<path d="M0 0 C2 1 2 1 2 1 Z " fill="#000000" transform="translate(543,652)"/>
<path d="M0 0 C2 1 2 1 2 1 Z " fill="#000000" transform="translate(257,648)"/>
<path d="M0 0 C2 1 2 1 2 1 Z " fill="#000000" transform="translate(43,648)"/>
<path d="M0 0 C2 1 2 1 2 1 Z " fill="#000000" transform="translate(567,646)"/>
<path d="M0 0 C2 1 2 1 2 1 Z " fill="#00FF00" transform="translate(257,641)"/>
<path d="M0 0 C2 1 2 1 2 1 Z " fill="#000000" transform="translate(619,627)"/>
<path d="M0 0 C2 1 2 1 2 1 Z " fill="#000000" transform="translate(257,623)"/>
<path d="M0 0 C2 1 2 1 2 1 Z " fill="#000000" transform="translate(519,621)"/>
<path d="M0 0 C2 1 2 1 2 1 Z " fill="#000000" transform="translate(543,610)"/>
<path d="M0 0 C2 1 2 1 2 1 Z " fill="#000000" transform="translate(257,610)"/>
<path d="M0 0 C2 1 2 1 2 1 Z " fill="#000000" transform="translate(257,604)"/>
<path d="M0 0 C2 1 2 1 2 1 Z " fill="#7F7F7F" transform="translate(43,598)"/>
<path d="M0 0 C2 1 2 1 2 1 Z " fill="#000000" transform="translate(543,592)"/>
<path d="M0 0 C2 1 2 1 2 1 Z " fill="#000000" transform="translate(257,591)"/>
<path d="M0 0 C2 1 2 1 2 1 Z " fill="#000000" transform="translate(567,590)"/>
<path d="M0 0 C2 1 2 1 2 1 Z " fill="#000000" transform="translate(543,590)"/>
<path d="M0 0 C2 1 2 1 2 1 Z " fill="#000000" transform="translate(257,585)"/>
<path d="M0 0 C2 1 2 1 2 1 Z " fill="#004A00" transform="translate(366,581)"/>
<path d="M0 0 C2 1 2 1 2 1 Z " fill="#004400" transform="translate(360,581)"/>
<path d="M0 0 C2 1 2 1 2 1 Z " fill="#007F00" transform="translate(368,580)"/>
<path d="M0 0 C2 1 2 1 2 1 Z " fill="#000000" transform="translate(358,580)"/>
<path d="M0 0 C2 1 2 1 2 1 Z " fill="#000000" transform="translate(257,579)"/>
<path d="M0 0 C2 1 2 1 2 1 Z " fill="#000000" transform="translate(257,573)"/>
<path d="M0 0 C2 1 2 1 2 1 Z " fill="#000000" transform="translate(519,571)"/>
<path d="M0 0 C2 1 2 1 2 1 Z " fill="#000000" transform="translate(257,554)"/>
<path d="M0 0 C2 1 2 1 2 1 Z " fill="#000000" transform="translate(257,548)"/>
<path d="M0 0 C2 1 2 1 2 1 Z " fill="#000000" transform="translate(567,546)"/>
<path d="M0 0 C2 1 2 1 2 1 Z " fill="#000000" transform="translate(257,541)"/>
<path d="M0 0 C2 1 2 1 2 1 Z " fill="#000000" transform="translate(519,540)"/>
<path d="M0 0 C2 1 2 1 2 1 Z " fill="#000000" transform="translate(257,535)"/>
<path d="M0 0 C2 1 2 1 2 1 Z " fill="#000000" transform="translate(519,527)"/>
<path d="M0 0 C2 1 2 1 2 1 Z " fill="#002A00" transform="translate(419,523)"/>
<path d="M0 0 C2 1 2 1 2 1 Z " fill="#000000" transform="translate(257,523)"/>
<path d="M0 0 C2 1 2 1 2 1 Z " fill="#00AA00" transform="translate(421,522)"/>
<path d="M0 0 C2 1 2 1 2 1 Z " fill="#003F1F" transform="translate(344,522)"/>
<path d="M0 0 C2 1 2 1 2 1 Z " fill="#000000" transform="translate(519,521)"/>
<path d="M0 0 C2 1 2 1 2 1 Z " fill="#007219" transform="translate(342,521)"/>
<path d="M0 0 C2 1 2 1 2 1 Z " fill="#004400" transform="translate(477,518)"/>
<path d="M0 0 C2 1 2 1 2 1 Z " fill="#004419" transform="translate(322,518)"/>
<path d="M0 0 C2 1 2 1 2 1 Z " fill="#00721F" transform="translate(479,517)"/>
<path d="M0 0 C2 1 2 1 2 1 Z " fill="#004A1F" transform="translate(320,517)"/>
<path d="M0 0 C2 1 2 1 2 1 Z " fill="#000000" transform="translate(257,516)"/>
<path d="M0 0 C2 1 2 1 2 1 Z " fill="#00BF00" transform="translate(484,515)"/>
<path d="M0 0 C2 1 2 1 2 1 Z " fill="#002A00" transform="translate(315,515)"/>
<path d="M0 0 C2 1 2 1 2 1 Z " fill="#00AA15" transform="translate(313,514)"/>
<path d="M0 0 C2 1 2 1 2 1 Z " fill="#002A15" transform="translate(487,513)"/>
<path d="M0 0 C2 1 2 1 2 1 Z " fill="#003F00" transform="translate(310,512)"/>
<path d="M0 0 C2 1 2 1 2 1 Z " fill="#00BF3F" transform="translate(490,511)"/>
<path d="M0 0 C2 1 2 1 2 1 Z " fill="#000000" transform="translate(257,504)"/>
<path d="" fill="#3FBF3F" transform="translate(0,0)"/>
<path d="M0 0 C2 1 2 1 2 1 Z " fill="#000000" transform="translate(257,485)"/>
<path d="" fill="#00AA3F" transform="translate(0,0)"/>
<path d="" fill="#00942A" transform="translate(0,0)"/>
<path d="" fill="#007F55" transform="translate(0,0)"/>
<path d="" fill="#000000" transform="translate(0,0)"/>
<path d="M0 0 C2 1 2 1 2 1 Z " fill="#000000" transform="translate(519,477)"/>
<path d="M0 0 C2 1 2 1 2 1 Z " fill="#00FF00" transform="translate(543,473)"/>
<path d="M0 0 C2 1 2 1 2 1 Z " fill="#000000" transform="translate(257,473)"/>
<path d="M0 0 C2 1 2 1 2 1 Z " fill="#00FF00" transform="translate(543,460)"/>
<path d="M0 0 C2 1 2 1 2 1 Z " fill="#000000" transform="translate(257,460)"/>
<path d="M0 0 C2 1 2 1 2 1 Z " fill="#000000" transform="translate(257,448)"/>
<path d="M0 0 C2 1 2 1 2 1 Z " fill="#7F7F7F" transform="translate(43,448)"/>
<path d="M0 0 C2 1 2 1 2 1 Z " fill="#000000" transform="translate(257,429)"/>
<path d="M0 0 C2 1 2 1 2 1 Z " fill="#000000" transform="translate(257,410)"/>
<path d="M0 0 C2 1 2 1 2 1 Z " fill="#000000" transform="translate(257,404)"/>
<path d="M0 0 C2 1 2 1 2 1 Z " fill="#000000" transform="translate(543,327)"/>
<path d="M0 0 C2 1 2 1 2 1 Z " fill="#000000" transform="translate(567,315)"/>
<path d="M0 0 C2 1 2 1 2 1 Z " fill="#000000" transform="translate(257,310)"/>
<path d="M0 0 C2 1 2 1 2 1 Z " fill="#FFFFFF" transform="translate(43,310)"/>
<path d="M0 0 C2 1 2 1 2 1 Z " fill="#00FF00" transform="translate(543,298)"/>
<path d="M0 0 C2 1 2 1 2 1 Z " fill="#000000" transform="translate(257,298)"/>
<path d="M0 0 C2 1 2 1 2 1 Z " fill="#000000" transform="translate(257,291)"/>
<path d="M0 0 C2 1 2 1 2 1 Z " fill="#00FF00" transform="translate(257,285)"/>
<path d="M0 0 C2 1 2 1 2 1 Z " fill="#000000" transform="translate(257,273)"/>
<path d="M0 0 C2 1 2 1 2 1 Z " fill="#000000" transform="translate(257,266)"/>
<path d="M0 0 C2 1 2 1 2 1 Z " fill="#000000" transform="translate(257,260)"/>
<path d="M0 0 C2 1 2 1 2 1 Z " fill="#000000" transform="translate(257,248)"/>
<path d="M0 0 C2 1 2 1 2 1 Z " fill="#000000" transform="translate(543,246)"/>
<path d="M0 0 C2 1 2 1 2 1 Z " fill="#007F00" transform="translate(519,246)"/>
<path d="M0 0 C2 1 2 1 2 1 Z " fill="#000000" transform="translate(257,241)"/>
<path d="M0 0 C2 1 2 1 2 1 Z " fill="#000000" transform="translate(257,235)"/>
<path d="M0 0 C2 1 2 1 2 1 Z " fill="#000000" transform="translate(257,229)"/>
<path d="M0 0 C2 1 2 1 2 1 Z " fill="#00BF15" transform="translate(485,225)"/>
<path d="M0 0 C2 1 2 1 2 1 Z " fill="#003F00" transform="translate(482,223)"/>
<path d="M0 0 C2 1 2 1 2 1 Z " fill="#00FF00" transform="translate(315,223)"/>
<path d="M0 0 C2 1 2 1 2 1 Z " fill="#009F1F" transform="translate(318,222)"/>
<path d="M0 0 C2 1 2 1 2 1 Z " fill="#000000" transform="translate(257,216)"/>
<path d="M0 0 C2 1 2 1 2 1 Z " fill="#000000" transform="translate(43,211)"/>
<path d="M0 0 C2 1 2 1 2 1 Z " fill="#000000" transform="translate(257,210)"/>
<path d="M0 0 C2 1 2 1 2 1 Z " fill="#000000" transform="translate(43,205)"/>
<path d="M0 0 C2 1 2 1 2 1 Z " fill="#000000" transform="translate(257,198)"/>
<path d="M0 0 C2 1 2 1 2 1 Z " fill="#000000" transform="translate(43,198)"/>
<path d="M0 0 C2 1 2 1 2 1 Z " fill="#000000" transform="translate(43,192)"/>
<path d="M0 0 C2 1 2 1 2 1 Z " fill="#000000" transform="translate(567,190)"/>
<path d="M0 0 C2 1 2 1 2 1 Z " fill="#000000" transform="translate(257,173)"/>
<path d="M0 0 C2 1 2 1 2 1 Z " fill="#000000" transform="translate(257,166)"/>
<path d="M0 0 C2 1 2 1 2 1 Z " fill="#000000" transform="translate(257,141)"/>
<path d="M0 0 C2 1 2 1 2 1 Z " fill="#000000" transform="translate(257,129)"/>
<path d="M0 0 C2 1 2 1 2 1 Z " fill="#000000" transform="translate(257,123)"/>
<path d="M0 0 C2 1 2 1 2 1 Z " fill="#000000" transform="translate(257,116)"/>
<path d="M0 0 C2 1 2 1 2 1 Z " fill="#000000" transform="translate(257,110)"/>
<path d="M0 0 C2 1 2 1 2 1 Z " fill="#000000" transform="translate(257,104)"/>
<path d="" fill="#7F7F7F" transform="translate(0,0)"/>
<path d="M0 0 C2 1 2 1 2 1 Z " fill="#000000" transform="translate(257,98)"/>
<path d="M0 0 C2 1 2 1 2 1 Z " fill="#000000" transform="translate(519,96)"/>
<path d="M0 0 C2 1 2 1 2 1 Z " fill="#000000" transform="translate(519,77)"/>
<path d="M0 0 C2 1 2 1 2 1 Z " fill="#000000" transform="translate(257,73)"/>
<path d="M0 0 C2 1 2 1 2 1 Z " fill="#000000" transform="translate(567,71)"/>
<path d="M0 0 C2 1 2 1 2 1 Z " fill="#000000" transform="translate(257,60)"/>
<path d="M0 0 C2 1 2 1 2 1 Z " fill="#000000" transform="translate(619,55)"/>
<path d="M0 0 C2 1 2 1 2 1 Z " fill="#FFFFFF" transform="translate(257,54)"/>
<path d="M0 0 C2 1 2 1 2 1 Z " fill="#000000" transform="translate(257,48)"/>
<path d="M0 0 C2 1 2 1 2 1 Z " fill="#000000" transform="translate(567,40)"/>
<path d="M0 0 C2 1 2 1 2 1 Z " fill="#000000" transform="translate(257,35)"/>
<path d="M0 0 C2 1 2 1 2 1 Z " fill="#000000" transform="translate(257,29)"/>
<path d="M0 0 C2 1 2 1 2 1 Z " fill="#007F00" transform="translate(567,27)"/>
<path d="M0 0 C2 1 2 1 2 1 Z " fill="#000000" transform="translate(257,23)"/>
<path d="M0 0 C2 1 2 1 2 1 Z " fill="#00FF00" transform="translate(567,21)"/>
<path d="M0 0 C2 1 2 1 2 1 Z " fill="#000000" transform="translate(257,16)"/>
<path d="M0 0 C2 1 2 1 2 1 Z " fill="#000000" transform="translate(519,15)"/>
<path d="M0 0 C2 1 2 1 2 1 Z " fill="#000000" transform="translate(543,11)"/>
<path d="M0 0 C2 1 2 1 2 1 Z " fill="#00FF00" transform="translate(257,10)"/>
<path d="M0 0 C2 1 2 1 2 1 Z " fill="#00FF00" transform="translate(257,4)"/>
<path d="M0 0 C2 1 2 1 2 1 Z " fill="#000000" transform="translate(519,2)"/>
<path d="" fill="#FFFFFF" transform="translate(0,0)"/>
<path d="" fill="#000000" transform="translate(0,0)"/>
<path d="" fill="#FFFFFF" transform="translate(0,0)"/>
<path d="" fill="#00FF00" transform="translate(0,0)"/>
<path d="" fill="#000000" transform="translate(0,0)"/>
<path d="" fill="#FFFFFF" transform="translate(0,0)"/>
<path d="" fill="#FFFFFF" transform="translate(0,0)"/>
<path d="" fill="#00FF00" transform="translate(0,0)"/>
<path d="" fill="#000000" transform="translate(0,0)"/>
<path d="" fill="#000000" transform="translate(0,0)"/>
<path d="" fill="#000000" transform="translate(0,0)"/>
<path d="" fill="#000000" transform="translate(0,0)"/>
<path d="" fill="#000000" transform="translate(0,0)"/>
<path d="" fill="#000000" transform="translate(0,0)"/>
<path d="" fill="#000000" transform="translate(0,0)"/>
<path d="" fill="#FFFF00" transform="translate(0,0)"/>
<path d="" fill="#000000" transform="translate(0,0)"/>
<path d="" fill="#000000" transform="translate(0,0)"/>
<path d="" fill="#000000" transform="translate(0,0)"/>
<path d="" fill="#000000" transform="translate(0,0)"/>
<path d="" fill="#FFFFFF" transform="translate(0,0)"/>
<path d="" fill="#FFFFFF" transform="translate(0,0)"/>
<path d="" fill="#FFFFFF" transform="translate(0,0)"/>
<path d="" fill="#000000" transform="translate(0,0)"/>
<path d="" fill="#000000" transform="translate(0,0)"/>
<path d="" fill="#FFFFFF" transform="translate(0,0)"/>
<path d="" fill="#FFFFFF" transform="translate(0,0)"/>
<path d="" fill="#FFFFFF" transform="translate(0,0)"/>
<path d="" fill="#000000" transform="translate(0,0)"/>
<path d="" fill="#000000" transform="translate(0,0)"/>
<path d="" fill="#FFFFFF" transform="translate(0,0)"/>
<path d="" fill="#000000" transform="translate(0,0)"/>
<path d="" fill="#00FF00" transform="translate(0,0)"/>
<path d="" fill="#FFFFFF" transform="translate(0,0)"/>
<path d="" fill="#000000" transform="translate(0,0)"/>
<path d="" fill="#000000" transform="translate(0,0)"/>
<path d="" fill="#FFFFFF" transform="translate(0,0)"/>
<path d="" fill="#000000" transform="translate(0,0)"/>
<path d="" fill="#FFFFFF" transform="translate(0,0)"/>
<path d="" fill="#000000" transform="translate(0,0)"/>
<path d="" fill="#000000" transform="translate(0,0)"/>
<path d="" fill="#000000" transform="translate(0,0)"/>
<path d="" fill="#FFFFFF" transform="translate(0,0)"/>
<path d="" fill="#000000" transform="translate(0,0)"/>
<path d="" fill="#FFFFFF" transform="translate(0,0)"/>
<path d="" fill="#000000" transform="translate(0,0)"/>
<path d="" fill="#000000" transform="translate(0,0)"/>
<path d="" fill="#000000" transform="translate(0,0)"/>
<path d="" fill="#000000" transform="translate(0,0)"/>
<path d="" fill="#FFFFFF" transform="translate(0,0)"/>
<path d="" fill="#000000" transform="translate(0,0)"/>
<path d="" fill="#000000" transform="translate(0,0)"/>
<path d="" fill="#000000" transform="translate(0,0)"/>
<path d="" fill="#FFFFFF" transform="translate(0,0)"/>
<path d="" fill="#000000" transform="translate(0,0)"/>
<path d="" fill="#000000" transform="translate(0,0)"/>
<path d="" fill="#000000" transform="translate(0,0)"/>
<path d="" fill="#000000" transform="translate(0,0)"/>
<path d="" fill="#FFFF00" transform="translate(0,0)"/>
<path d="" fill="#FFFFFF" transform="translate(0,0)"/>
<path d="" fill="#000000" transform="translate(0,0)"/>
<path d="" fill="#000000" transform="translate(0,0)"/>
<path d="" fill="#000000" transform="translate(0,0)"/>
<path d="" fill="#FFFFFF" transform="translate(0,0)"/>
<path d="" fill="#FFFFFF" transform="translate(0,0)"/>
<path d="" fill="#000000" transform="translate(0,0)"/>
<path d="" fill="#000000" transform="translate(0,0)"/>
<path d="" fill="#000000" transform="translate(0,0)"/>
<path d="" fill="#FFFF00" transform="translate(0,0)"/>
<path d="" fill="#FFFFFF" transform="translate(0,0)"/>
<path d="" fill="#FFFFFF" transform="translate(0,0)"/>
<path d="" fill="#000000" transform="translate(0,0)"/>
<path d="" fill="#000000" transform="translate(0,0)"/>
<path d="" fill="#000000" transform="translate(0,0)"/>
<path d="" fill="#000000" transform="translate(0,0)"/>
<path d="" fill="#000000" transform="translate(0,0)"/>
<path d="" fill="#FFFFFF" transform="translate(0,0)"/>
<path d="" fill="#000000" transform="translate(0,0)"/>
<path d="" fill="#000000" transform="translate(0,0)"/>
<path d="" fill="#FFFFFF" transform="translate(0,0)"/>
<path d="" fill="#000000" transform="translate(0,0)"/>
<path d="" fill="#FFFFFF" transform="translate(0,0)"/>
<path d="" fill="#000000" transform="translate(0,0)"/>
<path d="" fill="#FFFFFF" transform="translate(0,0)"/>
<path d="" fill="#000000" transform="translate(0,0)"/>
<path d="" fill="#000000" transform="translate(0,0)"/>
<path d="" fill="#FFFF00" transform="translate(0,0)"/>
<path d="" fill="#FFFFFF" transform="translate(0,0)"/>
<path d="" fill="#FFFFFF" transform="translate(0,0)"/>
<path d="" fill="#000000" transform="translate(0,0)"/>
<path d="" fill="#000000" transform="translate(0,0)"/>
<path d="" fill="#FFFFFF" transform="translate(0,0)"/>
<path d="" fill="#000000" transform="translate(0,0)"/>
<path d="" fill="#000000" transform="translate(0,0)"/>
<path d="" fill="#000000" transform="translate(0,0)"/>
<path d="" fill="#000000" transform="translate(0,0)"/>
<path d="" fill="#000000" transform="translate(0,0)"/>
<path d="" fill="#000000" transform="translate(0,0)"/>
<path d="" fill="#000000" transform="translate(0,0)"/>
<path d="" fill="#000000" transform="translate(0,0)"/>
<path d="" fill="#000000" transform="translate(0,0)"/>
<path d="" fill="#000000" transform="translate(0,0)"/>
<path d="" fill="#FFFFFF" transform="translate(0,0)"/>
<path d="" fill="#FFFFFF" transform="translate(0,0)"/>
<path d="" fill="#FFFFFF" transform="translate(0,0)"/>
<path d="" fill="#000000" transform="translate(0,0)"/>
<path d="" fill="#000000" transform="translate(0,0)"/>
<path d="" fill="#000000" transform="translate(0,0)"/>
<path d="" fill="#000000" transform="translate(0,0)"/>
<path d="" fill="#000000" transform="translate(0,0)"/>
<path d="" fill="#FFFF00" transform="translate(0,0)"/>
<path d="" fill="#FFFFFF" transform="translate(0,0)"/>
<path d="" fill="#000000" transform="translate(0,0)"/>
<path d="" fill="#000000" transform="translate(0,0)"/>
<path d="" fill="#000000" transform="translate(0,0)"/>
<path d="" fill="#FFFFFF" transform="translate(0,0)"/>
<path d="" fill="#000000" transform="translate(0,0)"/>
<path d="" fill="#000000" transform="translate(0,0)"/>
<path d="" fill="#000000" transform="translate(0,0)"/>
<path d="" fill="#000000" transform="translate(0,0)"/>
<path d="" fill="#000000" transform="translate(0,0)"/>
<path d="" fill="#000000" transform="translate(0,0)"/>
<path d="" fill="#FFFFFF" transform="translate(0,0)"/>
<path d="" fill="#000000" transform="translate(0,0)"/>
<path d="" fill="#000000" transform="translate(0,0)"/>
<path d="" fill="#000000" transform="translate(0,0)"/>
<path d="" fill="#000000" transform="translate(0,0)"/>
<path d="" fill="#FFFFFF" transform="translate(0,0)"/>
<path d="" fill="#000000" transform="translate(0,0)"/>
<path d="" fill="#000000" transform="translate(0,0)"/>
<path d="" fill="#000000" transform="translate(0,0)"/>
<path d="" fill="#000000" transform="translate(0,0)"/>
<path d="" fill="#000000" transform="translate(0,0)"/>
<path d="" fill="#000000" transform="translate(0,0)"/>
<path d="" fill="#000000" transform="translate(0,0)"/>
<path d="" fill="#000000" transform="translate(0,0)"/>
<path d="" fill="#000000" transform="translate(0,0)"/>
<path d="" fill="#FFFFFF" transform="translate(0,0)"/>
<path d="" fill="#FFFFFF" transform="translate(0,0)"/>
<path d="" fill="#000000" transform="translate(0,0)"/>
<path d="" fill="#000000" transform="translate(0,0)"/>
<path d="" fill="#000000" transform="translate(0,0)"/>
<path d="" fill="#000000" transform="translate(0,0)"/>
<path d="" fill="#000000" transform="translate(0,0)"/>
<path d="" fill="#000000" transform="translate(0,0)"/>
<path d="" fill="#FFFFFF" transform="translate(0,0)"/>
<path d="" fill="#000000" transform="translate(0,0)"/>
<path d="" fill="#FFFFFF" transform="translate(0,0)"/>
<path d="" fill="#FFFFFF" transform="translate(0,0)"/>
<path d="" fill="#000000" transform="translate(0,0)"/>
<path d="" fill="#000000" transform="translate(0,0)"/>
<path d="" fill="#000000" transform="translate(0,0)"/>
<path d="" fill="#FFFFFF" transform="translate(0,0)"/>
<path d="" fill="#FFFFFF" transform="translate(0,0)"/>
<path d="" fill="#FFFFFF" transform="translate(0,0)"/>
<path d="" fill="#000000" transform="translate(0,0)"/>
<path d="" fill="#FFFFFF" transform="translate(0,0)"/>
<path d="" fill="#000000" transform="translate(0,0)"/>
<path d="" fill="#000000" transform="translate(0,0)"/>
<path d="" fill="#FFFFFF" transform="translate(0,0)"/>
<path d="" fill="#FFFFFF" transform="translate(0,0)"/>
<path d="" fill="#000000" transform="translate(0,0)"/>
<path d="" fill="#000000" transform="translate(0,0)"/>
<path d="" fill="#000000" transform="translate(0,0)"/>
<path d="" fill="#FFFFFF" transform="translate(0,0)"/>
<path d="" fill="#000000" transform="translate(0,0)"/>
<path d="" fill="#000000" transform="translate(0,0)"/>
<path d="" fill="#000000" transform="translate(0,0)"/>
<path d="" fill="#000000" transform="translate(0,0)"/>
<path d="" fill="#000000" transform="translate(0,0)"/>
<path d="" fill="#FFFFFF" transform="translate(0,0)"/>
<path d="" fill="#000000" transform="translate(0,0)"/>
<path d="" fill="#000000" transform="translate(0,0)"/>
<path d="" fill="#000000" transform="translate(0,0)"/>
<path d="" fill="#000000" transform="translate(0,0)"/>
<path d="" fill="#000000" transform="translate(0,0)"/>
<path d="" fill="#00FFFF" transform="translate(0,0)"/>
<path d="" fill="#FFFFFF" transform="translate(0,0)"/>
<path d="" fill="#000000" transform="translate(0,0)"/>
<path d="" fill="#000000" transform="translate(0,0)"/>
<path d="" fill="#000000" transform="translate(0,0)"/>
<path d="" fill="#00FFFF" transform="translate(0,0)"/>
<path d="" fill="#000000" transform="translate(0,0)"/>
<path d="" fill="#00FFFF" transform="translate(0,0)"/>
<path d="" fill="#000000" transform="translate(0,0)"/>
<path d="" fill="#000000" transform="translate(0,0)"/>
<path d="" fill="#00FFFF" transform="translate(0,0)"/>
<path d="" fill="#FFFFFF" transform="translate(0,0)"/>
<path d="" fill="#000000" transform="translate(0,0)"/>
<path d="" fill="#000000" transform="translate(0,0)"/>
<path d="" fill="#000000" transform="translate(0,0)"/>
<path d="" fill="#000000" transform="translate(0,0)"/>
<path d="" fill="#00FFFF" transform="translate(0,0)"/>
<path d="" fill="#FFFFFF" transform="translate(0,0)"/>
<path d="" fill="#000000" transform="translate(0,0)"/>
<path d="" fill="#00FFFF" transform="translate(0,0)"/>
<path d="" fill="#005500" transform="translate(0,0)"/>
<path d="" fill="#00FFFF" transform="translate(0,0)"/>
<path d="" fill="#007F00" transform="translate(0,0)"/>
<path d="" fill="#007F3F" transform="translate(0,0)"/>
<path d="" fill="#000000" transform="translate(0,0)"/>
<path d="" fill="#000000" transform="translate(0,0)"/>
<path d="" fill="#000000" transform="translate(0,0)"/>
<path d="" fill="#000000" transform="translate(0,0)"/>
<path d="" fill="#000000" transform="translate(0,0)"/>
<path d="" fill="#005500" transform="translate(0,0)"/>
<path d="" fill="#003333" transform="translate(0,0)"/>
<path d="" fill="#000000" transform="translate(0,0)"/>
<path d="" fill="#00FFFF" transform="translate(0,0)"/>
<path d="" fill="#000000" transform="translate(0,0)"/>
<path d="" fill="#000000" transform="translate(0,0)"/>
<path d="" fill="#003F3F" transform="translate(0,0)"/>
<path d="" fill="#000000" transform="translate(0,0)"/>
<path d="" fill="#000000" transform="translate(0,0)"/>
<path d="" fill="#000000" transform="translate(0,0)"/>
<path d="" fill="#000000" transform="translate(0,0)"/>
<path d="" fill="#FFFFFF" transform="translate(0,0)"/>
<path d="" fill="#000000" transform="translate(0,0)"/>
<path d="" fill="#000000" transform="translate(0,0)"/>
<path d="" fill="#000000" transform="translate(0,0)"/>
<path d="" fill="#005500" transform="translate(0,0)"/>
<path d="" fill="#00FF00" transform="translate(0,0)"/>
<path d="" fill="#005500" transform="translate(0,0)"/>
<path d="" fill="#00FFFF" transform="translate(0,0)"/>
<path d="" fill="#00552A" transform="translate(0,0)"/>
<path d="" fill="#000000" transform="translate(0,0)"/>
<path d="" fill="#007F00" transform="translate(0,0)"/>
<path d="" fill="#005555" transform="translate(0,0)"/>
<path d="" fill="#00FFFF" transform="translate(0,0)"/>
<path d="" fill="#FFFFFF" transform="translate(0,0)"/>
<path d="" fill="#000000" transform="translate(0,0)"/>
<path d="" fill="#003F3F" transform="translate(0,0)"/>
<path d="" fill="#003F00" transform="translate(0,0)"/>
<path d="" fill="#00FFFF" transform="translate(0,0)"/>
<path d="" fill="#007F00" transform="translate(0,0)"/>
<path d="" fill="#000000" transform="translate(0,0)"/>
<path d="" fill="#000000" transform="translate(0,0)"/>
<path d="" fill="#000000" transform="translate(0,0)"/>
<path d="" fill="#000000" transform="translate(0,0)"/>
<path d="" fill="#00FF00" transform="translate(0,0)"/>
<path d="" fill="#003F3F" transform="translate(0,0)"/>
<path d="" fill="#FFFFFF" transform="translate(0,0)"/>
<path d="" fill="#000000" transform="translate(0,0)"/>
<path d="" fill="#00FFFF" transform="translate(0,0)"/>
<path d="" fill="#000000" transform="translate(0,0)"/>
<path d="" fill="#000000" transform="translate(0,0)"/>
<path d="" fill="#005500" transform="translate(0,0)"/>
<path d="" fill="#007F3F" transform="translate(0,0)"/>
<path d="" fill="#003F00" transform="translate(0,0)"/>
<path d="" fill="#000000" transform="translate(0,0)"/>
<path d="" fill="#00FFFF" transform="translate(0,0)"/>
<path d="" fill="#000000" transform="translate(0,0)"/>
<path d="" fill="#00FF00" transform="translate(0,0)"/>
<path d="" fill="#005500" transform="translate(0,0)"/>
<path d="" fill="#005500" transform="translate(0,0)"/>
<path d="" fill="#00FFFF" transform="translate(0,0)"/>
<path d="" fill="#000000" transform="translate(0,0)"/>
<path d="" fill="#000000" transform="translate(0,0)"/>
<path d="" fill="#00FF00" transform="translate(0,0)"/>
<path d="" fill="#00FFFF" transform="translate(0,0)"/>
<path d="" fill="#000000" transform="translate(0,0)"/>
<path d="" fill="#000000" transform="translate(0,0)"/>
<path d="" fill="#00FF00" transform="translate(0,0)"/>
<path d="" fill="#00FFFF" transform="translate(0,0)"/>
<path d="" fill="#FFFFFF" transform="translate(0,0)"/>
<path d="" fill="#000000" transform="translate(0,0)"/>
<path d="" fill="#006633" transform="translate(0,0)"/>
<path d="" fill="#000000" transform="translate(0,0)"/>
<path d="" fill="#000000" transform="translate(0,0)"/>
<path d="" fill="#007F00" transform="translate(0,0)"/>
<path d="" fill="#00FF00" transform="translate(0,0)"/>
<path d="" fill="#007F00" transform="translate(0,0)"/>
<path d="" fill="#003F00" transform="translate(0,0)"/>
<path d="" fill="#005500" transform="translate(0,0)"/>
<path d="" fill="#007F00" transform="translate(0,0)"/>
<path d="" fill="#005500" transform="translate(0,0)"/>
<path d="" fill="#00AA55" transform="translate(0,0)"/>
<path d="" fill="#007F00" transform="translate(0,0)"/>
<path d="" fill="#007F00" transform="translate(0,0)"/>
<path d="" fill="#007F00" transform="translate(0,0)"/>
<path d="" fill="#005500" transform="translate(0,0)"/>
<path d="" fill="#007F00" transform="translate(0,0)"/>
<path d="" fill="#003F00" transform="translate(0,0)"/>
<path d="" fill="#000000" transform="translate(0,0)"/>
<path d="" fill="#007F00" transform="translate(0,0)"/>
<path d="" fill="#005500" transform="translate(0,0)"/>
<path d="" fill="#003F00" transform="translate(0,0)"/>
<path d="" fill="#003F3F" transform="translate(0,0)"/>
<path d="" fill="#FFFFFF" transform="translate(0,0)"/>
<path d="" fill="#003333" transform="translate(0,0)"/>
<path d="" fill="#000000" transform="translate(0,0)"/>
<path d="" fill="#000000" transform="translate(0,0)"/>
<path d="" fill="#00FF00" transform="translate(0,0)"/>
<path d="" fill="#00FF00" transform="translate(0,0)"/>
<path d="" fill="#FFFFFF" transform="translate(0,0)"/>
<path d="" fill="#000000" transform="translate(0,0)"/>
<path d="" fill="#FFFFFF" transform="translate(0,0)"/>
<path d="" fill="#000000" transform="translate(0,0)"/>
<path d="" fill="#FFFFFF" transform="translate(0,0)"/>
<path d="" fill="#00FF00" transform="translate(0,0)"/>
<path d="" fill="#00FF00" transform="translate(0,0)"/>
<path d="" fill="#00FF00" transform="translate(0,0)"/>
<path d="" fill="#FFFFFF" transform="translate(0,0)"/>
<path d="" fill="#00FF00" transform="translate(0,0)"/>
<path d="" fill="#00FF00" transform="translate(0,0)"/>
<path d="" fill="#000000" transform="translate(0,0)"/>
<path d="" fill="#000000" transform="translate(0,0)"/>
<path d="" fill="#000000" transform="translate(0,0)"/>
<path d="" fill="#00FF00" transform="translate(0,0)"/>
<path d="" fill="#FFFFFF" transform="translate(0,0)"/>
<path d="" fill="#000000" transform="translate(0,0)"/>
<path d="" fill="#FFFFFF" transform="translate(0,0)"/>
<path d="" fill="#000000" transform="translate(0,0)"/>
<path d="" fill="#00FF00" transform="translate(0,0)"/>
<path d="" fill="#00FF00" transform="translate(0,0)"/>
<path d="" fill="#00FF00" transform="translate(0,0)"/>
<path d="" fill="#000000" transform="translate(0,0)"/>
<path d="" fill="#000000" transform="translate(0,0)"/>
<path d="" fill="#000000" transform="translate(0,0)"/>
<path d="" fill="#FFFFFF" transform="translate(0,0)"/>
<path d="" fill="#000000" transform="translate(0,0)"/>
<path d="" fill="#000000" transform="translate(0,0)"/>
<path d="" fill="#00FF00" transform="translate(0,0)"/>
<path d="" fill="#FFFFFF" transform="translate(0,0)"/>
<path d="" fill="#00FF00" transform="translate(0,0)"/>
<path d="" fill="#FFFFFF" transform="translate(0,0)"/>
<path d="" fill="#000000" transform="translate(0,0)"/>
<path d="" fill="#FFFFFF" transform="translate(0,0)"/>
<path d="" fill="#FFFFFF" transform="translate(0,0)"/>
<path d="" fill="#00FF00" transform="translate(0,0)"/>
<path d="" fill="#00FF00" transform="translate(0,0)"/>
<path d="" fill="#00FF00" transform="translate(0,0)"/>
<path d="" fill="#00FF00" transform="translate(0,0)"/>
<path d="" fill="#00FF00" transform="translate(0,0)"/>
<path d="" fill="#00FF00" transform="translate(0,0)"/>
<path d="" fill="#00FF00" transform="translate(0,0)"/>
<path d="" fill="#00FF00" transform="translate(0,0)"/>
<path d="" fill="#00FF00" transform="translate(0,0)"/>
<path d="" fill="#00FF00" transform="translate(0,0)"/>
<path d="" fill="#FFFFFF" transform="translate(0,0)"/>
<path d="" fill="#00FF00" transform="translate(0,0)"/>
<path d="" fill="#FFFFFF" transform="translate(0,0)"/>
<path d="" fill="#000000" transform="translate(0,0)"/>
<path d="" fill="#FFFFFF" transform="translate(0,0)"/>
<path d="" fill="#00FF00" transform="translate(0,0)"/>
<path d="" fill="#000000" transform="translate(0,0)"/>
<path d="" fill="#00FF00" transform="translate(0,0)"/>
<path d="" fill="#00FF00" transform="translate(0,0)"/>
<path d="" fill="#00FF00" transform="translate(0,0)"/>
<path d="" fill="#00FF00" transform="translate(0,0)"/>
<path d="" fill="#000000" transform="translate(0,0)"/>
<path d="" fill="#000000" transform="translate(0,0)"/>
<path d="" fill="#FFFFFF" transform="translate(0,0)"/>
<path d="" fill="#00FF00" transform="translate(0,0)"/>
<path d="" fill="#FFFFFF" transform="translate(0,0)"/>
<path d="" fill="#FFFFFF" transform="translate(0,0)"/>
<path d="" fill="#000000" transform="translate(0,0)"/>
<path d="" fill="#FFFFFF" transform="translate(0,0)"/>
<path d="" fill="#00FF00" transform="translate(0,0)"/>
<path d="" fill="#00FF00" transform="translate(0,0)"/>
<path d="" fill="#00FF00" transform="translate(0,0)"/>
<path d="" fill="#00FF00" transform="translate(0,0)"/>
<path d="" fill="#000000" transform="translate(0,0)"/>
<path d="" fill="#00FF00" transform="translate(0,0)"/>
<path d="" fill="#007F7F" transform="translate(0,0)"/>
<path d="" fill="#006633" transform="translate(0,0)"/>
<path d="" fill="#FFFFFF" transform="translate(0,0)"/>
<path d="" fill="#007F00" transform="translate(0,0)"/>
<path d="" fill="#000000" transform="translate(0,0)"/>
<path d="" fill="#006633" transform="translate(0,0)"/>
<path d="" fill="#007F3F" transform="translate(0,0)"/>
<path d="" fill="#000000" transform="translate(0,0)"/>
<path d="" fill="#007F00" transform="translate(0,0)"/>
<path d="" fill="#003F3F" transform="translate(0,0)"/>
<path d="" fill="#003F3F" transform="translate(0,0)"/>
<path d="" fill="#006633" transform="translate(0,0)"/>
<path d="" fill="#006633" transform="translate(0,0)"/>
<path d="" fill="#FFFFFF" transform="translate(0,0)"/>
<path d="" fill="#005555" transform="translate(0,0)"/>
<path d="" fill="#007F00" transform="translate(0,0)"/>
<path d="" fill="#007F00" transform="translate(0,0)"/>
<path d="" fill="#007F00" transform="translate(0,0)"/>
<path d="" fill="#007F3F" transform="translate(0,0)"/>
<path d="" fill="#006633" transform="translate(0,0)"/>
<path d="" fill="#003F3F" transform="translate(0,0)"/>
<path d="" fill="#007F2A" transform="translate(0,0)"/>
<path d="" fill="#00FF00" transform="translate(0,0)"/>
<path d="" fill="#005500" transform="translate(0,0)"/>
<path d="" fill="#00FF00" transform="translate(0,0)"/>
<path d="" fill="#007F3F" transform="translate(0,0)"/>
<path d="" fill="#007F3F" transform="translate(0,0)"/>
<path d="" fill="#000000" transform="translate(0,0)"/>
<path d="" fill="#007F00" transform="translate(0,0)"/>
<path d="" fill="#005500" transform="translate(0,0)"/>
<path d="" fill="#000000" transform="translate(0,0)"/>
<path d="" fill="#00FF00" transform="translate(0,0)"/>
<path d="" fill="#007F00" transform="translate(0,0)"/>
<path d="" fill="#007F00" transform="translate(0,0)"/>
<path d="" fill="#007F3F" transform="translate(0,0)"/>
<path d="" fill="#00FFFF" transform="translate(0,0)"/>
<path d="" fill="#000000" transform="translate(0,0)"/>
<path d="" fill="#00FF00" transform="translate(0,0)"/>
<path d="" fill="#00FFFF" transform="translate(0,0)"/>
<path d="" fill="#000000" transform="translate(0,0)"/>
<path d="" fill="#000000" transform="translate(0,0)"/>
<path d="" fill="#00FF00" transform="translate(0,0)"/>
<path d="" fill="#FFFFFF" transform="translate(0,0)"/>
<path d="" fill="#00FF00" transform="translate(0,0)"/>
<path d="" fill="#00FFFF" transform="translate(0,0)"/>
<path d="" fill="#000000" transform="translate(0,0)"/>
<path d="" fill="#000000" transform="translate(0,0)"/>
<path d="" fill="#000000" transform="translate(0,0)"/>
<path d="" fill="#000000" transform="translate(0,0)"/>
<path d="" fill="#00FF00" transform="translate(0,0)"/>
<path d="" fill="#FFFFFF" transform="translate(0,0)"/>
<path d="" fill="#000000" transform="translate(0,0)"/>
<path d="" fill="#00FF00" transform="translate(0,0)"/>
<path d="" fill="#00FF00" transform="translate(0,0)"/>
<path d="" fill="#00FF00" transform="translate(0,0)"/>
<path d="" fill="#FFFFFF" transform="translate(0,0)"/>
<path d="" fill="#000000" transform="translate(0,0)"/>
<path d="" fill="#000000" transform="translate(0,0)"/>
<path d="" fill="#000000" transform="translate(0,0)"/>
<path d="" fill="#FFFFFF" transform="translate(0,0)"/>
<path d="" fill="#FFFFFF" transform="translate(0,0)"/>
<path d="" fill="#000000" transform="translate(0,0)"/>
<path d="" fill="#000000" transform="translate(0,0)"/>
<path d="" fill="#00FF00" transform="translate(0,0)"/>
<path d="" fill="#FFFFFF" transform="translate(0,0)"/>
<path d="" fill="#FFFFFF" transform="translate(0,0)"/>
<path d="" fill="#000000" transform="translate(0,0)"/>
<path d="" fill="#000000" transform="translate(0,0)"/>
<path d="" fill="#000000" transform="translate(0,0)"/>
<path d="" fill="#FFFFFF" transform="translate(0,0)"/>
<path d="" fill="#FFFFFF" transform="translate(0,0)"/>
<path d="" fill="#000000" transform="translate(0,0)"/>
<path d="" fill="#000000" transform="translate(0,0)"/>
<path d="" fill="#000000" transform="translate(0,0)"/>
<path d="" fill="#000000" transform="translate(0,0)"/>
<path d="" fill="#000000" transform="translate(0,0)"/>
<path d="" fill="#FFFFFF" transform="translate(0,0)"/>
<path d="" fill="#000000" transform="translate(0,0)"/>
<path d="" fill="#FFFFFF" transform="translate(0,0)"/>
<path d="" fill="#000000" transform="translate(0,0)"/>
<path d="" fill="#000000" transform="translate(0,0)"/>
<path d="" fill="#FFFFFF" transform="translate(0,0)"/>
<path d="" fill="#000000" transform="translate(0,0)"/>
<path d="" fill="#000000" transform="translate(0,0)"/>
<path d="" fill="#000000" transform="translate(0,0)"/>
<path d="" fill="#000000" transform="translate(0,0)"/>
<path d="" fill="#FFFFFF" transform="translate(0,0)"/>
<path d="" fill="#FFFFFF" transform="translate(0,0)"/>
<path d="" fill="#000000" transform="translate(0,0)"/>
<path d="" fill="#000000" transform="translate(0,0)"/>
<path d="" fill="#000000" transform="translate(0,0)"/>
<path d="" fill="#FFFFFF" transform="translate(0,0)"/>
<path d="" fill="#FFFFFF" transform="translate(0,0)"/>
<path d="" fill="#000000" transform="translate(0,0)"/>
<path d="" fill="#000000" transform="translate(0,0)"/>
<path d="" fill="#000000" transform="translate(0,0)"/>
<path d="" fill="#000000" transform="translate(0,0)"/>
<path d="" fill="#000000" transform="translate(0,0)"/>
<path d="" fill="#000000" transform="translate(0,0)"/>
<path d="" fill="#000000" transform="translate(0,0)"/>
<path d="" fill="#FFFFFF" transform="translate(0,0)"/>
<path d="" fill="#000000" transform="translate(0,0)"/>
<path d="" fill="#FFFFFF" transform="translate(0,0)"/>
<path d="" fill="#000000" transform="translate(0,0)"/>
<path d="" fill="#FFFFFF" transform="translate(0,0)"/>
<path d="" fill="#000000" transform="translate(0,0)"/>
<path d="" fill="#000000" transform="translate(0,0)"/>
<path d="" fill="#FFFFFF" transform="translate(0,0)"/>
<path d="" fill="#000000" transform="translate(0,0)"/>
<path d="" fill="#000000" transform="translate(0,0)"/>
<path d="" fill="#000000" transform="translate(0,0)"/>
<path d="" fill="#FFFFFF" transform="translate(0,0)"/>
<path d="" fill="#000000" transform="translate(0,0)"/>
<path d="" fill="#000000" transform="translate(0,0)"/>
<path d="" fill="#000000" transform="translate(0,0)"/>
<path d="" fill="#000000" transform="translate(0,0)"/>
<path d="" fill="#000000" transform="translate(0,0)"/>
<path d="" fill="#000000" transform="translate(0,0)"/>
<path d="" fill="#000000" transform="translate(0,0)"/>
<path d="" fill="#000000" transform="translate(0,0)"/>
<path d="" fill="#000000" transform="translate(0,0)"/>
<path d="" fill="#000000" transform="translate(0,0)"/>
<path d="" fill="#000000" transform="translate(0,0)"/>
<path d="" fill="#FFFFFF" transform="translate(0,0)"/>
<path d="" fill="#000000" transform="translate(0,0)"/>
<path d="" fill="#000000" transform="translate(0,0)"/>
<path d="" fill="#FFFFFF" transform="translate(0,0)"/>
<path d="" fill="#000000" transform="translate(0,0)"/>
<path d="" fill="#FFFFFF" transform="translate(0,0)"/>
<path d="" fill="#000000" transform="translate(0,0)"/>
<path d="" fill="#000000" transform="translate(0,0)"/>
<path d="" fill="#FFFFFF" transform="translate(0,0)"/>
<path d="" fill="#000000" transform="translate(0,0)"/>
<path d="" fill="#000000" transform="translate(0,0)"/>
<path d="" fill="#000000" transform="translate(0,0)"/>
<path d="" fill="#000000" transform="translate(0,0)"/>
<path d="" fill="#FFFFFF" transform="translate(0,0)"/>
<path d="" fill="#000000" transform="translate(0,0)"/>
<path d="" fill="#000000" transform="translate(0,0)"/>
<path d="" fill="#00FF00" transform="translate(0,0)"/>
<path d="" fill="#FFFFFF" transform="translate(0,0)"/>
<path d="" fill="#FFFFFF" transform="translate(0,0)"/>
<path d="" fill="#000000" transform="translate(0,0)"/>
<path d="" fill="#000000" transform="translate(0,0)"/>
<path d="" fill="#FFFFFF" transform="translate(0,0)"/>
<path d="" fill="#FFFFFF" transform="translate(0,0)"/>
<path d="" fill="#000000" transform="translate(0,0)"/>
<path d="" fill="#000000" transform="translate(0,0)"/>
<path d="" fill="#000000" transform="translate(0,0)"/>
<path d="" fill="#000000" transform="translate(0,0)"/>
<path d="" fill="#000000" transform="translate(0,0)"/>
<path d="" fill="#FFFFFF" transform="translate(0,0)"/>
<path d="" fill="#000000" transform="translate(0,0)"/>
<path d="" fill="#000000" transform="translate(0,0)"/>
<path d="" fill="#000000" transform="translate(0,0)"/>
<path d="" fill="#000000" transform="translate(0,0)"/>
<path d="" fill="#000000" transform="translate(0,0)"/>
<path d="" fill="#000000" transform="translate(0,0)"/>
<path d="" fill="#FFFFFF" transform="translate(0,0)"/>
<path d="" fill="#000000" transform="translate(0,0)"/>
<path d="" fill="#FFFFFF" transform="translate(0,0)"/>
<path d="" fill="#000000" transform="translate(0,0)"/>
<path d="" fill="#000000" transform="translate(0,0)"/>
<path d="" fill="#000000" transform="translate(0,0)"/>
<path d="" fill="#000000" transform="translate(0,0)"/>
<path d="" fill="#000000" transform="translate(0,0)"/>
<path d="" fill="#000000" transform="translate(0,0)"/>
<path d="" fill="#FFFFFF" transform="translate(0,0)"/>
<path d="" fill="#000000" transform="translate(0,0)"/>
<path d="" fill="#000000" transform="translate(0,0)"/>
<path d="" fill="#000000" transform="translate(0,0)"/>
<path d="" fill="#000000" transform="translate(0,0)"/>
<path d="" fill="#000000" transform="translate(0,0)"/>
<path d="" fill="#000000" transform="translate(0,0)"/>
<path d="" fill="#000000" transform="translate(0,0)"/>
<path d="" fill="#FFFF00" transform="translate(0,0)"/>
<path d="" fill="#000000" transform="translate(0,0)"/>
<path d="" fill="#000000" transform="translate(0,0)"/>
<path d="" fill="#000000" transform="translate(0,0)"/>
<path d="" fill="#000000" transform="translate(0,0)"/>
<path d="" fill="#000000" transform="translate(0,0)"/>
<path d="" fill="#FFFFFF" transform="translate(0,0)"/>
<path d="" fill="#000000" transform="translate(0,0)"/>
<path d="" fill="#FFFF00" transform="translate(0,0)"/>
<path d="" fill="#000000" transform="translate(0,0)"/>
<path d="" fill="#FFFFFF" transform="translate(0,0)"/>
<path d="" fill="#00FF00" transform="translate(0,0)"/>
<path d="" fill="#000000" transform="translate(0,0)"/>
<path d="" fill="#000000" transform="translate(0,0)"/>
<path d="" fill="#FFFFFF" transform="translate(0,0)"/>
<path d="" fill="#000000" transform="translate(0,0)"/>
<path d="" fill="#FFFFFF" transform="translate(0,0)"/>
<path d="" fill="#FFFFFF" transform="translate(0,0)"/>
<path d="" fill="#000000" transform="translate(0,0)"/>
<path d="" fill="#000000" transform="translate(0,0)"/>
</svg>
